<?xml version="1.0" encoding="UTF-8"?><svg id="Calque_1" xmlns="http://www.w3.org/2000/svg" viewBox="0 0 833.85 206"><path d="m139.71,90.14H59.43C11.94,90.14,2.21,71.99,2.21,44.74c0-13.56,6.17-25.01,17.84-33.14C30.79,4.12,45.9,0,62.58,0s27.47,5.47,32.28,15.41c4.72,9.75,2.02,22.56-7.23,34.27-5.46,6.82-11.8,10.42-18.85,10.69-12.68.5-22.68-10.05-23.1-10.5l4.38-4.11c.08.09,8.61,9.02,18.52,8.61,5.22-.21,10.05-3.05,14.36-8.43,7.78-9.84,10.22-20.28,6.53-27.92-3.75-7.75-13.3-12.03-26.88-12.03C30.06,6,8.21,21.57,8.21,44.74c0,24.95,8.38,39.4,51.22,39.4h80.28v6Z"/><path d="m231.13,90.14h-80.28c-47.49,0-57.22-18.15-57.22-45.4,0-13.56,6.17-25.01,17.84-33.14,10.75-7.48,25.86-11.6,42.54-11.6s27.72,5.54,32.56,15.6c4.69,9.77,1.96,22.51-7.31,34.09-5.45,6.81-11.79,10.4-18.84,10.68-12.66.5-22.68-10.05-23.1-10.5l4.38-4.11c.08.09,8.6,9.01,18.52,8.61,5.22-.21,10.05-3.05,14.36-8.43,7.79-9.73,10.25-20.1,6.58-27.74-3.78-7.87-13.42-12.2-27.15-12.2-32.52,0-54.37,15.57-54.37,38.74,0,24.95,8.38,39.4,51.22,39.4h80.28v6Z"/><path d="m317.72,90.14h-80.28c-47.49,0-57.22-18.15-57.22-45.4,0-13.56,6.17-25.01,17.84-33.14,10.75-7.48,25.86-11.6,42.54-11.6s27.6,5.54,32.44,15.61c4.72,9.8,2.03,22.54-7.19,34.08-5.45,6.81-11.79,10.41-18.84,10.68-12.66.5-22.68-10.05-23.1-10.5l4.38-4.11c.09.09,8.62,9.01,18.52,8.61,5.22-.21,10.05-3.05,14.36-8.43,7.74-9.69,10.16-20.06,6.47-27.73-3.79-7.87-13.39-12.21-27.03-12.21-32.52,0-54.37,15.57-54.37,38.74,0,24.95,8.38,39.4,51.22,39.4h80.28v6Z"/><path d="m409.35,90.14h-80.28c-47.49,0-57.22-18.15-57.22-45.4,0-13.56,6.17-25.01,17.84-33.14,10.75-7.48,25.86-11.6,42.54-11.6s27.72,5.54,32.56,15.6c4.69,9.77,1.96,22.51-7.31,34.09-5.45,6.81-11.79,10.4-18.84,10.68-12.68.52-22.68-10.05-23.1-10.5l4.38-4.11c.08.09,8.61,9.02,18.52,8.61,5.22-.21,10.05-3.05,14.36-8.43,7.79-9.73,10.25-20.1,6.58-27.74-3.78-7.87-13.42-12.2-27.15-12.2-32.52,0-54.37,15.57-54.37,38.74,0,24.95,8.38,39.4,51.22,39.4h80.28v6Z"/><path d="m497.61,90.14h-80.28c-47.49,0-57.22-18.15-57.22-45.4,0-13.56,6.17-25.01,17.84-33.14,10.75-7.48,25.86-11.6,42.54-11.6s27.72,5.54,32.56,15.6c4.69,9.77,1.96,22.51-7.31,34.09-5.45,6.81-11.79,10.4-18.84,10.68-12.64.52-22.68-10.05-23.1-10.5l4.38-4.11c.08.09,8.67,9.02,18.52,8.61,5.22-.21,10.05-3.05,14.36-8.43,7.79-9.73,10.25-20.1,6.58-27.74-3.78-7.87-13.42-12.2-27.15-12.2-32.52,0-54.37,15.57-54.37,38.74,0,24.95,8.38,39.4,51.22,39.4h80.28v6Z"/><path d="m589.45,90.14h-80.28c-47.49,0-57.22-18.15-57.22-45.4,0-13.56,6.17-25.01,17.84-33.14,10.75-7.48,25.86-11.6,42.54-11.6s27.47,5.47,32.28,15.41c4.72,9.75,2.02,22.56-7.23,34.27-5.46,6.82-11.8,10.42-18.85,10.69-12.65.5-22.68-10.05-23.1-10.5l4.38-4.11c.09.09,8.62,9.01,18.52,8.61,5.22-.21,10.05-3.05,14.36-8.43,7.78-9.84,10.22-20.28,6.53-27.92-3.75-7.75-13.3-12.03-26.88-12.03-32.52,0-54.37,15.57-54.37,38.74,0,24.95,8.38,39.4,51.22,39.4h80.28v6Z"/><path d="m680.45,90.14h-80.28c-47.49,0-57.22-18.15-57.22-45.4,0-13.56,6.17-25.01,17.84-33.14,10.75-7.48,25.86-11.6,42.54-11.6s27.48,5.51,32.3,15.52c4.72,9.8,2,22.58-7.26,34.17-5.45,6.81-11.79,10.41-18.84,10.68-12.65.5-22.68-10.05-23.1-10.5l4.38-4.11c.08.09,8.63,9.01,18.52,8.61,5.22-.21,10.05-3.05,14.36-8.43,7.78-9.74,10.23-20.15,6.54-27.82-3.76-7.82-13.31-12.12-26.89-12.12-32.52,0-54.37,15.57-54.37,38.74,0,24.95,8.38,39.4,51.22,39.4h80.28v6Z"/><path d="m772.08,90.14h-80.28c-47.49,0-57.22-18.15-57.22-45.4,0-13.56,6.17-25.01,17.84-33.14,10.75-7.48,25.86-11.6,42.54-11.6s27.47,5.47,32.28,15.41c4.72,9.75,2.02,22.56-7.23,34.27-5.46,6.82-11.8,10.42-18.85,10.69-12.67.5-22.68-10.05-23.1-10.5l4.38-4.11c.08.09,8.61,9.02,18.52,8.61,5.22-.21,10.05-3.05,14.36-8.43,7.78-9.84,10.22-20.28,6.53-27.92-3.75-7.75-13.3-12.03-26.88-12.03-32.52,0-54.37,15.57-54.37,38.74,0,24.95,8.38,39.4,51.22,39.4h80.28v6Z"/><path d="m833.85,90.14h-53.78c-47.49,0-57.22-18.15-57.22-45.4,0-13.56,6.17-25.01,17.84-33.14,10.75-7.48,25.86-11.6,42.54-11.6s27.47,5.47,32.28,15.41c4.72,9.75,2.02,22.56-7.23,34.27-5.46,6.82-11.8,10.42-18.85,10.69-12.69.52-22.68-10.05-23.1-10.5l4.38-4.11c.08.09,8.63,9.02,18.52,8.61,5.22-.21,10.05-3.05,14.36-8.43,7.78-9.84,10.22-20.28,6.53-27.92-3.75-7.75-13.3-12.03-26.88-12.03-32.52,0-54.37,15.57-54.37,38.74,0,24.95,8.38,39.4,51.22,39.4h53.78v6Z"/><rect x="35.29" y="98.12" width="6" height="45.47"/><rect x="35.29" y="156.56" width="6" height="18.89"/><rect x="58.2" y="89.56" width="6" height="31.2"/><rect x="58.2" y="139.65" width="6" height="35.81"/><rect x="766.79" y="98.12" width="6" height="45.47"/><rect x="766.79" y="156.56" width="6" height="18.89"/><rect x="789.9" y="89.56" width="6" height="31.2"/><rect x="789.9" y="139.65" width="6" height="35.81"/><path d="m833,206H0V3h833v203ZM6,200h821V9H6v191Z"/></svg>