<?xml version="1.0" encoding="UTF-8"?><svg id="Calque_1" xmlns="http://www.w3.org/2000/svg" viewBox="0 0 857.63 723.76"><defs><style>.cls-1{fill:none;stroke:#000;stroke-miterlimit:10;stroke-width:6px;}</style></defs><path class="cls-1" d="m836.2,720.76H3.35V118.76h832.85v602Z"/><path class="cls-1" d="m3.35,321.76h832.85"/><path class="cls-1" d="m3.35,706.76h832.85"/><path class="cls-1" d="m836.2,508.76H0"/><path class="cls-1" d="m3.35,464.13s10.29,22.06,71.26,22.06,72.42-22.06,72.42-22.06"/><path class="cls-1" d="m147.03,464.55s9.9,21.43,68.54,21.43,69.7-21.43,69.7-21.43"/><path class="cls-1" d="m285.46,464.13s10.29,22.06,71.26,22.06,72.42-22.06,72.42-22.06"/><path class="cls-1" d="m429.14,464.13s9.71,22.06,67.18,22.06,68.34-22.06,68.34-22.06"/><path class="cls-1" d="m564.66,464.13s10.1,22.06,70.48,22.06,71.84-22.06,71.84-22.06"/><path class="cls-1" d="m706.98,464.13s8.74,19.52,61.16,19.52,62.32-19.52,62.32-19.52"/><path class="cls-1" d="m3.35,478.55s10.29,22.06,71.26,22.06,72.42-22.06,72.42-22.06"/><path class="cls-1" d="m147.03,478.98s9.9,21.43,68.54,21.43,69.7-21.43,69.7-21.43"/><path class="cls-1" d="m285.46,478.55s10.29,22.06,71.26,22.06,72.42-22.06,72.42-22.06"/><path class="cls-1" d="m429.14,478.55s9.71,22.06,67.18,22.06,68.34-22.06,68.34-22.06"/><path class="cls-1" d="m564.66,478.55s10.1,22.06,70.48,22.06,71.84-22.06,71.84-22.06"/><path class="cls-1" d="m706.98,478.55s8.74,19.52,61.16,19.52,62.32-19.52,62.32-19.52"/><path class="cls-1" d="m811.76,467.87c0-16.92-20.6-12.08-20.6-21.75,0-14.5,9.88-13.18,9.88-13.18,11.56,0,13.24-.66,13.24-20.21"/><path class="cls-1" d="m811.76,401.96c0-16.91-20.6-12.08-20.6-21.75,0-14.5,9.88-13.18,9.88-13.18,11.56,0,13.24-.66,13.24-20.21"/><path class="cls-1" d="m774.56,467.87c0-16.92-20.6-12.08-20.6-21.75,0-14.5,9.88-13.18,9.88-13.18,11.56,0,13.24-.66,13.24-20.21"/><path class="cls-1" d="m774.56,401.96c0-16.91-20.6-12.08-20.6-21.75,0-14.5,9.88-13.18,9.88-13.18,11.56,0,13.24-.66,13.24-20.21"/><path class="cls-1" d="m72.82,467.87c0-16.92-20.6-12.08-20.6-21.75,0-14.5,9.88-13.18,9.88-13.18,11.56,0,13.24-.66,13.24-20.21"/><path class="cls-1" d="m72.82,401.96c0-16.91-20.6-12.08-20.6-21.75,0-14.5,9.88-13.18,9.88-13.18,11.56,0,13.24-.66,13.24-20.21"/><path class="cls-1" d="m35.42,467.87c0-16.92-20.6-12.08-20.6-21.75,0-14.5,9.88-13.18,9.88-13.18,11.56,0,13.24-.66,13.24-20.21"/><path class="cls-1" d="m35.42,401.96c0-16.91-20.6-12.08-20.6-21.75,0-14.5,9.88-13.18,9.88-13.18,11.56,0,13.24-.66,13.24-20.21"/><path class="cls-1" d="m50.22,163.17s20.18,21.53,37.41,0c17.02-21.53,9.67-44.82-22.7-44.82s-57.37,15.6-57.37,41.74,9.04,42.4,54.22,42.4h80.28"/><path class="cls-1" d="m141.85,163.17s20.18,21.53,37.41,0c17.23-21.53,9.46-44.82-22.91-44.82s-57.37,15.6-57.37,41.74,9.04,42.4,54.22,42.4h80.28"/><path class="cls-1" d="m228.43,163.17s20.18,21.53,37.41,0c17.02-21.31,9.46-44.82-22.91-44.82s-57.37,15.6-57.37,41.74,9.04,42.4,54.22,42.4h80.28"/><path class="cls-1" d="m320.06,163.17s20.17,21.53,37.41,0c17.23-21.53,9.46-44.82-22.91-44.82s-57.37,15.6-57.37,41.74,9.04,42.4,54.22,42.4h80.28"/><path class="cls-1" d="m408.33,163.17s20.18,21.53,37.41,0c17.23-21.53,9.46-44.82-22.91-44.82s-57.37,15.6-57.37,41.74,9.04,42.4,54.22,42.4h80.28"/><path class="cls-1" d="m499.96,163.17s20.18,21.53,37.41,0c17.02-21.53,9.67-44.82-22.7-44.82s-57.37,15.6-57.37,41.74,9.04,42.4,54.22,42.4h80.28"/><path class="cls-1" d="m590.96,163.17s20.17,21.53,37.41,0c17.02-21.31,9.67-44.82-22.7-44.82s-57.37,15.6-57.37,41.74,9.04,42.4,54.22,42.4h80.28"/><path class="cls-1" d="m682.59,163.17s20.17,21.53,37.41,0c17.02-21.53,9.67-44.82-22.7-44.82s-57.37,15.6-57.37,41.74,9.04,42.4,54.22,42.4h80.28"/><path class="cls-1" d="m770.86,163.17s20.18,21.53,37.41,0c17.02-21.53,9.67-44.82-22.7-44.82s-57.37,15.6-57.37,41.74,9.04,42.4,54.22,42.4h53.78"/><path class="cls-1" d="m40.64,213.47v45.48"/><path class="cls-1" d="m40.64,271.91v18.89"/><path class="cls-1" d="m63.55,204.91v31.19"/><path class="cls-1" d="m63.55,255v35.81"/><path class="cls-1" d="m772.13,213.47v45.48"/><path class="cls-1" d="m772.13,271.91v18.89"/><path class="cls-1" d="m795.25,204.91v31.19"/><path class="cls-1" d="m795.25,255v35.81"/><path class="cls-1" d="m8.55,518.62h9.04"/><path class="cls-1" d="m17.59,553.55h14.29"/><path class="cls-1" d="m62.35,518.62h15.34"/><path class="cls-1" d="m98.29,518.62h8.41"/><path class="cls-1" d="m87.99,609.79h14.5"/><path class="cls-1" d="m53.79,518.62h6.51"/><path class="cls-1" d="m114.11,518.62h8.83"/><path class="cls-1" d="m167.7,518.62h15.55"/><path class="cls-1" d="m322.38,518.62h6.51"/><path class="cls-1" d="m349.7,518.62h8.83"/><path class="cls-1" d="m403.5,518.62h15.34"/><path class="cls-1" d="m557.96,518.62h6.52"/><path class="cls-1" d="m615.55,518.62h8.83"/><path class="cls-1" d="m669.35,518.62h15.34"/><path class="cls-1" d="m715.72,609.79h17.65"/><path class="cls-1" d="m792.64,553.55h17.23"/><path class="cls-1" d="m59.41,686.68h14.5"/><path class="cls-1" d="m5.45,686.68h17.65"/><path class="cls-1" d="m164.96,686.68h14.5"/><path class="cls-1" d="m274.25,686.68h17.65"/><path class="cls-1" d="m400.55,686.68h14.5"/><path class="cls-1" d="m509.84,686.68h17.65"/><path class="cls-1" d="m666.41,686.68h14.5"/><path class="cls-1" d="m775.69,686.68h17.65"/><path class="cls-1" d="m764.06,630.22h17.23"/><path class="cls-1" d="m807.98,686.68h17.65"/><path class="cls-1" d="m823.82,518.62h6.52"/><path d="m193.51,605.38v.38h-11.66v-.38h2.69v-23.38h-2.4v-.38c.64,0,1.38-.06,2.21-.19.83-.13,1.66-.3,2.5-.53s1.57-.48,2.21-.77c.67-.32,1.15-.66,1.44-1.01h.38v26.26h2.64Zm9.27,7.92c1.92-.03,3.44-.7,4.56-2.02,1.12-1.31,1.92-3.33,2.4-6.05.48-2.75.72-6.26.72-10.51,0-3.71-.13-6.72-.38-9.02-.22-2.3-.66-3.98-1.3-5.04-.64-1.09-1.6-1.63-2.88-1.63-1.09,0-1.92.34-2.5,1.01-.54.67-.91,1.7-1.1,3.07-.19,1.34-.29,3.1-.29,5.28,0,2.98.24,5.15.72,6.53.51,1.34,1.54,2.02,3.07,2.02.61,0,1.2-.14,1.78-.43.61-.29,1.15-.74,1.63-1.34l.29.29c-.7.9-1.5,1.52-2.4,1.87-.9.35-1.86.53-2.88.53-2.69,0-4.8-.77-6.34-2.3-1.54-1.57-2.3-3.87-2.3-6.91,0-2.02.42-3.76,1.25-5.23.86-1.5,2.06-2.67,3.6-3.5,1.54-.83,3.36-1.25,5.47-1.25,3.62,0,6.34,1.38,8.16,4.13,1.86,2.72,2.78,6.74,2.78,12.05,0,6.27-1.12,11.02-3.36,14.26-2.24,3.23-5.28,4.85-9.12,4.85-1.73,0-3.18-.27-4.37-.82-1.15-.54-2.03-1.3-2.64-2.26-.58-.93-.86-1.98-.86-3.17h.48c0,1.09.27,2.05.82,2.88.54.86,1.25,1.54,2.11,2.02.9.48,1.86.72,2.88.72Zm36.58-9.98c0,2.21-.51,4.1-1.54,5.66-.99,1.6-2.4,2.82-4.22,3.65-1.82.86-3.98,1.3-6.48,1.3-1.7,0-3.14-.27-4.32-.82-1.18-.54-2.06-1.3-2.64-2.26-.58-.93-.86-1.98-.86-3.17h.48c0,1.09.27,2.05.82,2.88.54.86,1.25,1.54,2.11,2.02.86.48,1.82.72,2.88.72,1.66,0,3.01-.37,4.03-1.1,1.02-.7,1.78-1.7,2.26-2.98.48-1.25.72-2.72.72-4.42,0-2.43-.56-4.38-1.68-5.86-1.12-1.5-2.61-2.26-4.46-2.26-.35,0-.69.02-1.01.05-.29.03-.58.1-.86.19l-.67.19-.14-.38,1.2-.43c1.34-.38,2.48-.99,3.41-1.82.93-.83,1.63-1.9,2.11-3.22.51-1.34.77-2.98.77-4.9,0-2.69-.24-4.58-.72-5.66-.45-1.09-1.36-1.63-2.74-1.63-.93,0-1.65.27-2.16.82-.51.54-.88,1.26-1.1,2.16-.22.86-.34,1.81-.34,2.83,0,1.22.1,2.29.29,3.22.22.9.62,1.57,1.2,2.02l-.05.19c-1.47-.38-2.62-.86-3.46-1.44-.8-.61-1.38-1.26-1.73-1.97-.32-.74-.48-1.46-.48-2.16,0-1.82.77-3.3,2.3-4.42,1.57-1.12,3.6-1.68,6.1-1.68,2.91,0,5.18.59,6.82,1.78,1.63,1.18,2.45,3.01,2.45,5.47,0,1.47-.34,2.77-1.01,3.89-.67,1.09-1.5,1.98-2.5,2.69-.96.67-1.95,1.14-2.98,1.39,1.73.16,3.2.7,4.42,1.63s2.14,2.08,2.78,3.46c.67,1.38,1.01,2.83,1.01,4.37Zm36.35-10.94c0,4.48-.94,7.92-2.83,10.32-1.89,2.37-4.8,3.55-8.74,3.55-3.58,0-6.42-1.18-8.5-3.55-2.05-2.4-3.07-5.84-3.07-10.32s1.02-7.84,3.07-10.18c2.08-2.37,4.91-3.55,8.5-3.55,3.94,0,6.85,1.18,8.74,3.55,1.89,2.34,2.83,5.73,2.83,10.18Zm-6.48,0c0-3.14-.14-5.68-.43-7.63-.29-1.98-.8-3.42-1.54-4.32-.7-.93-1.74-1.39-3.12-1.39-1.28,0-2.29.46-3.02,1.39-.74.9-1.26,2.34-1.58,4.32-.29,1.95-.43,4.5-.43,7.63s.14,5.74.43,7.73c.32,1.98.85,3.44,1.58,4.37.74.93,1.74,1.39,3.02,1.39,1.38,0,2.42-.46,3.12-1.39.74-.93,1.25-2.38,1.54-4.37.29-1.98.43-4.56.43-7.73Zm-5.09,2.16l-2.02-2.06,2.02-2.06,2.06,2.06-2.06,2.06Zm37.3-2.16c0,4.48-.94,7.92-2.83,10.32-1.89,2.37-4.8,3.55-8.74,3.55-3.58,0-6.42-1.18-8.5-3.55-2.05-2.4-3.07-5.84-3.07-10.32s1.02-7.84,3.07-10.18c2.08-2.37,4.91-3.55,8.5-3.55,3.94,0,6.85,1.18,8.74,3.55,1.89,2.34,2.83,5.73,2.83,10.18Zm-6.48,0c0-3.14-.14-5.68-.43-7.63-.29-1.98-.8-3.42-1.54-4.32-.7-.93-1.74-1.39-3.12-1.39-1.28,0-2.29.46-3.02,1.39-.74.9-1.26,2.34-1.58,4.32-.29,1.95-.43,4.5-.43,7.63s.14,5.74.43,7.73c.32,1.98.85,3.44,1.58,4.37.74.93,1.74,1.39,3.02,1.39,1.38,0,2.42-.46,3.12-1.39.74-.93,1.25-2.38,1.54-4.37s.43-4.56.43-7.73Zm-5.09,2.16l-2.02-2.06,2.02-2.06,2.06,2.06-2.06,2.06Zm37.3-2.16c0,4.48-.94,7.92-2.83,10.32-1.89,2.37-4.8,3.55-8.74,3.55-3.58,0-6.42-1.18-8.5-3.55-2.05-2.4-3.07-5.84-3.07-10.32s1.02-7.84,3.07-10.18c2.08-2.37,4.91-3.55,8.5-3.55,3.94,0,6.85,1.18,8.74,3.55,1.89,2.34,2.83,5.73,2.83,10.18Zm-6.48,0c0-3.14-.14-5.68-.43-7.63-.29-1.98-.8-3.42-1.54-4.32-.7-.93-1.74-1.39-3.12-1.39-1.28,0-2.29.46-3.02,1.39-.74.9-1.26,2.34-1.58,4.32-.29,1.95-.43,4.5-.43,7.63s.14,5.74.43,7.73c.32,1.98.85,3.44,1.58,4.37.74.93,1.74,1.39,3.02,1.39,1.38,0,2.42-.46,3.12-1.39.74-.93,1.25-2.38,1.54-4.37s.43-4.56.43-7.73Zm-5.09,2.16l-2.02-2.06,2.02-2.06,2.06,2.06-2.06,2.06Zm47.85-2.16c0,4.48-.94,7.92-2.83,10.32-1.89,2.37-4.8,3.55-8.74,3.55-3.58,0-6.42-1.18-8.5-3.55-2.05-2.4-3.07-5.84-3.07-10.32s1.02-7.84,3.07-10.18c2.08-2.37,4.91-3.55,8.5-3.55,3.94,0,6.85,1.18,8.74,3.55,1.89,2.34,2.83,5.73,2.83,10.18Zm-6.48,0c0-3.14-.14-5.68-.43-7.63-.29-1.98-.8-3.42-1.54-4.32-.7-.93-1.74-1.39-3.12-1.39-1.28,0-2.29.46-3.02,1.39-.74.9-1.26,2.34-1.58,4.32-.29,1.95-.43,4.5-.43,7.63s.14,5.74.43,7.73c.32,1.98.85,3.44,1.58,4.37.74.93,1.74,1.39,3.02,1.39,1.38,0,2.42-.46,3.12-1.39.74-.93,1.25-2.38,1.54-4.37.29-1.98.43-4.56.43-7.73Zm-5.09,2.16l-2.02-2.06,2.02-2.06,2.06,2.06-2.06,2.06Zm37.3-2.16c0,4.48-.94,7.92-2.83,10.32-1.89,2.37-4.8,3.55-8.74,3.55-3.58,0-6.42-1.18-8.5-3.55-2.05-2.4-3.07-5.84-3.07-10.32s1.02-7.84,3.07-10.18c2.08-2.37,4.91-3.55,8.5-3.55,3.94,0,6.85,1.18,8.74,3.55,1.89,2.34,2.83,5.73,2.83,10.18Zm-6.48,0c0-3.14-.14-5.68-.43-7.63-.29-1.98-.8-3.42-1.54-4.32-.7-.93-1.74-1.39-3.12-1.39-1.28,0-2.29.46-3.02,1.39-.74.9-1.26,2.34-1.58,4.32-.29,1.95-.43,4.5-.43,7.63s.14,5.74.43,7.73c.32,1.98.85,3.44,1.58,4.37.74.93,1.74,1.39,3.02,1.39,1.38,0,2.42-.46,3.12-1.39.74-.93,1.25-2.38,1.54-4.37s.43-4.56.43-7.73Zm-5.09,2.16l-2.02-2.06,2.02-2.06,2.06,2.06-2.06,2.06Zm37.3-2.16c0,4.48-.94,7.92-2.83,10.32-1.89,2.37-4.8,3.55-8.74,3.55-3.58,0-6.42-1.18-8.5-3.55-2.05-2.4-3.07-5.84-3.07-10.32s1.02-7.84,3.07-10.18c2.08-2.37,4.91-3.55,8.5-3.55,3.94,0,6.85,1.18,8.74,3.55,1.89,2.34,2.83,5.73,2.83,10.18Zm-6.48,0c0-3.14-.14-5.68-.43-7.63-.29-1.98-.8-3.42-1.54-4.32-.7-.93-1.74-1.39-3.12-1.39-1.28,0-2.29.46-3.02,1.39-.74.9-1.26,2.34-1.58,4.32-.29,1.95-.43,4.5-.43,7.63s.14,5.74.43,7.73c.32,1.98.85,3.44,1.58,4.37.74.93,1.74,1.39,3.02,1.39,1.38,0,2.42-.46,3.12-1.39.74-.93,1.25-2.38,1.54-4.37s.43-4.56.43-7.73Zm-5.09,2.16l-2.02-2.06,2.02-2.06,2.06,2.06-2.06,2.06Zm47.85-2.16c0,4.48-.94,7.92-2.83,10.32-1.89,2.37-4.8,3.55-8.74,3.55-3.58,0-6.42-1.18-8.5-3.55-2.05-2.4-3.07-5.84-3.07-10.32s1.02-7.84,3.07-10.18c2.08-2.37,4.91-3.55,8.5-3.55,3.94,0,6.85,1.18,8.74,3.55,1.89,2.34,2.83,5.73,2.83,10.18Zm-6.48,0c0-3.14-.14-5.68-.43-7.63-.29-1.98-.8-3.42-1.54-4.32-.7-.93-1.74-1.39-3.12-1.39-1.28,0-2.29.46-3.02,1.39-.74.9-1.26,2.34-1.58,4.32-.29,1.95-.43,4.5-.43,7.63s.14,5.74.43,7.73c.32,1.98.85,3.44,1.58,4.37.74.93,1.74,1.39,3.02,1.39,1.38,0,2.42-.46,3.12-1.39.74-.93,1.25-2.38,1.54-4.37.29-1.98.43-4.56.43-7.73Zm-5.09,2.16l-2.02-2.06,2.02-2.06,2.06,2.06-2.06,2.06Zm37.3-2.16c0,4.48-.94,7.92-2.83,10.32-1.89,2.37-4.8,3.55-8.74,3.55-3.58,0-6.42-1.18-8.5-3.55-2.05-2.4-3.07-5.84-3.07-10.32s1.02-7.84,3.07-10.18c2.08-2.37,4.91-3.55,8.5-3.55,3.94,0,6.85,1.18,8.74,3.55,1.89,2.34,2.83,5.73,2.83,10.18Zm-6.48,0c0-3.14-.14-5.68-.43-7.63-.29-1.98-.8-3.42-1.54-4.32-.7-.93-1.74-1.39-3.12-1.39-1.28,0-2.29.46-3.02,1.39-.74.9-1.26,2.34-1.58,4.32-.29,1.95-.43,4.5-.43,7.63s.14,5.74.43,7.73c.32,1.98.85,3.44,1.58,4.37.74.93,1.74,1.39,3.02,1.39,1.38,0,2.42-.46,3.12-1.39.74-.93,1.25-2.38,1.54-4.37s.43-4.56.43-7.73Zm-5.09,2.16l-2.02-2.06,2.02-2.06,2.06,2.06-2.06,2.06Zm37.3-2.16c0,4.48-.94,7.92-2.83,10.32-1.89,2.37-4.8,3.55-8.74,3.55-3.58,0-6.42-1.18-8.5-3.55-2.05-2.4-3.07-5.84-3.07-10.32s1.02-7.84,3.07-10.18c2.08-2.37,4.91-3.55,8.5-3.55,3.94,0,6.85,1.18,8.74,3.55,1.89,2.34,2.83,5.73,2.83,10.18Zm-6.48,0c0-3.14-.14-5.68-.43-7.63-.29-1.98-.8-3.42-1.54-4.32-.7-.93-1.74-1.39-3.12-1.39-1.28,0-2.29.46-3.02,1.39-.74.9-1.26,2.34-1.58,4.32-.29,1.95-.43,4.5-.43,7.63s.14,5.74.43,7.73c.32,1.98.85,3.44,1.58,4.37.74.93,1.74,1.39,3.02,1.39,1.38,0,2.42-.46,3.12-1.39.74-.93,1.25-2.38,1.54-4.37s.43-4.56.43-7.73Zm-5.09,2.16l-2.02-2.06,2.02-2.06,2.06,2.06-2.06,2.06Zm47.85-2.16c0,4.48-.94,7.92-2.83,10.32-1.89,2.37-4.8,3.55-8.74,3.55-3.58,0-6.42-1.18-8.5-3.55-2.05-2.4-3.07-5.84-3.07-10.32s1.02-7.84,3.07-10.18c2.08-2.37,4.91-3.55,8.5-3.55,3.94,0,6.85,1.18,8.74,3.55,1.89,2.34,2.83,5.73,2.83,10.18Zm-6.48,0c0-3.14-.14-5.68-.43-7.63-.29-1.98-.8-3.42-1.54-4.32-.7-.93-1.74-1.39-3.12-1.39-1.28,0-2.29.46-3.02,1.39-.74.9-1.26,2.34-1.58,4.32-.29,1.95-.43,4.5-.43,7.63s.14,5.74.43,7.73c.32,1.98.85,3.44,1.58,4.37.74.93,1.74,1.39,3.02,1.39,1.38,0,2.42-.46,3.12-1.39.74-.93,1.25-2.38,1.54-4.37.29-1.98.43-4.56.43-7.73Zm-5.09,2.16l-2.02-2.06,2.02-2.06,2.06,2.06-2.06,2.06Zm37.3-2.16c0,4.48-.94,7.92-2.83,10.32-1.89,2.37-4.8,3.55-8.74,3.55-3.58,0-6.42-1.18-8.5-3.55-2.05-2.4-3.07-5.84-3.07-10.32s1.02-7.84,3.07-10.18c2.08-2.37,4.91-3.55,8.5-3.55,3.94,0,6.85,1.18,8.74,3.55,1.89,2.34,2.83,5.73,2.83,10.18Zm-6.48,0c0-3.14-.14-5.68-.43-7.63-.29-1.98-.8-3.42-1.54-4.32-.7-.93-1.74-1.39-3.12-1.39-1.28,0-2.29.46-3.02,1.39-.74.9-1.26,2.34-1.58,4.32-.29,1.95-.43,4.5-.43,7.63s.14,5.74.43,7.73c.32,1.98.85,3.44,1.58,4.37.74.93,1.74,1.39,3.02,1.39,1.38,0,2.42-.46,3.12-1.39.74-.93,1.25-2.38,1.54-4.37.29-1.98.43-4.56.43-7.73Zm-5.09,2.16l-2.02-2.06,2.02-2.06,2.06,2.06-2.06,2.06Zm37.3-2.16c0,4.48-.94,7.92-2.83,10.32-1.89,2.37-4.8,3.55-8.74,3.55-3.58,0-6.42-1.18-8.5-3.55-2.05-2.4-3.07-5.84-3.07-10.32s1.02-7.84,3.07-10.18c2.08-2.37,4.91-3.55,8.5-3.55,3.94,0,6.85,1.18,8.74,3.55,1.89,2.34,2.83,5.73,2.83,10.18Zm-6.48,0c0-3.14-.14-5.68-.43-7.63-.29-1.98-.8-3.42-1.54-4.32-.7-.93-1.74-1.39-3.12-1.39-1.28,0-2.29.46-3.02,1.39-.74.9-1.26,2.34-1.58,4.32-.29,1.95-.43,4.5-.43,7.63s.14,5.74.43,7.73c.32,1.98.85,3.44,1.58,4.37.74.93,1.74,1.39,3.02,1.39,1.38,0,2.42-.46,3.12-1.39.74-.93,1.25-2.38,1.54-4.37.29-1.98.43-4.56.43-7.73Zm-5.09,2.16l-2.02-2.06,2.02-2.06,2.06,2.06-2.06,2.06Zm45.98,3.02h.48v8.21h-21.74v-.38h3.07v-33.55h-3.07v-.38h12.72v.38h-3.07v33.55h5.14c1.28,0,2.4-.37,3.36-1.1.99-.74,1.76-1.7,2.3-2.88.54-1.22.82-2.5.82-3.84Zm-524.66,34.59v-.38h6.38v33.89c0,.48.08.9.24,1.25.16.32.54.48,1.15.48h2.02v.38h-3.31c-1.18,0-1.98-.35-2.4-1.06-.42-.7-.64-1.78-.67-3.22-.7,1.5-1.65,2.67-2.83,3.5-1.15.83-2.58,1.25-4.27,1.25-2.72,0-4.75-.86-6.1-2.59-1.34-1.76-2.02-4.58-2.02-8.45,0-4.67.85-8.03,2.54-10.08,1.73-2.08,4.02-3.12,6.86-3.12,1.41,0,2.58.34,3.5,1.01.93.64,1.68,1.5,2.26,2.59v-15.46h-3.36Zm-8.54,25.06c0,2.43.19,4.43.58,6,.42,1.54,1.02,2.67,1.82,3.41.8.74,1.79,1.1,2.98,1.1,1.47,0,2.74-.42,3.79-1.25,1.06-.83,1.97-2.1,2.74-3.79v-14.3c-.58-1.25-1.31-2.21-2.21-2.88-.86-.67-1.95-1.01-3.26-1.01-1.44,0-2.64.46-3.6,1.39s-1.68,2.34-2.16,4.22c-.45,1.86-.67,4.22-.67,7.1Zm21.25-1.1c0-4.22.83-7.3,2.5-9.22s3.98-2.88,6.96-2.88c2.82,0,4.8.69,5.95,2.06,1.15,1.38,1.73,3.18,1.73,5.42,0,.51-.05,1.02-.14,1.54-.1.51-.22.98-.38,1.39h-13.25c-.03.19-.05.46-.05.82v.86c0,2.43.21,4.51.62,6.24.42,1.73,1.14,3.06,2.16,3.98,1.06.9,2.54,1.34,4.46,1.34,1.22,0,2.27-.29,3.17-.86.93-.61,1.63-1.34,2.11-2.21.48-.9.72-1.76.72-2.59h.43c0,.9-.27,1.84-.82,2.83-.54.96-1.34,1.78-2.4,2.45-1.06.64-2.38.96-3.98.96-3.17,0-5.6-.94-7.3-2.83-1.66-1.92-2.5-5.02-2.5-9.31Zm9.46-11.71c-2.24,0-3.79.85-4.66,2.54-.86,1.66-1.34,4.03-1.44,7.1h9.31c.67,0,1.12-.21,1.34-.62.26-.42.38-.99.38-1.73,0-1.38-.1-2.61-.29-3.7-.19-1.12-.64-2-1.34-2.64-.7-.64-1.81-.96-3.31-.96Zm31.73,22.99v.38h-10.22v-.38h3.36v-22.51h-3.36v-.38h5.57l.38,6.96h.1c.29-1.98.72-3.5,1.3-4.56.61-1.09,1.26-1.84,1.97-2.26.74-.42,1.44-.62,2.11-.62,1.06,0,1.81.29,2.26.86.48.54.72,1.2.72,1.97s-.18,1.47-.53,2.02c-.35.54-.8.98-1.34,1.3-.54.29-1.07.48-1.58.58l-.14-.1c.26-.42.46-.88.62-1.39.16-.54.24-1.18.24-1.92,0-.67-.1-1.23-.29-1.68-.19-.48-.46-.78-.82-.91-.38,0-.86.22-1.44.67-.54.42-1.07,1.17-1.58,2.26-.51,1.06-.9,2.58-1.15,4.56v15.17h3.84Zm6.58-11.28c0-4.22.83-7.3,2.5-9.22,1.66-1.92,3.98-2.88,6.96-2.88,2.82,0,4.8.69,5.95,2.06,1.15,1.38,1.73,3.18,1.73,5.42,0,.51-.05,1.02-.14,1.54-.1.51-.22.98-.38,1.39h-13.25c-.03.19-.05.46-.05.82v.86c0,2.43.21,4.51.62,6.24.42,1.73,1.14,3.06,2.16,3.98,1.06.9,2.54,1.34,4.46,1.34,1.22,0,2.27-.29,3.17-.86.93-.61,1.63-1.34,2.11-2.21.48-.9.72-1.76.72-2.59h.43c0,.9-.27,1.84-.82,2.83-.54.96-1.34,1.78-2.4,2.45-1.06.64-2.38.96-3.98.96-3.17,0-5.6-.94-7.3-2.83-1.66-1.92-2.5-5.02-2.5-9.31Zm9.46-11.71c-2.24,0-3.79.85-4.66,2.54-.86,1.66-1.34,4.03-1.44,7.1h9.31c.67,0,1.12-.21,1.34-.62.26-.42.38-.99.38-1.73,0-1.38-.1-2.61-.29-3.7-.19-1.12-.64-2-1.34-2.64-.7-.64-1.81-.96-3.31-.96Zm-.24-3.65l-.29-.24c1.18-1.25,2.24-2.61,3.17-4.08.96-1.5,1.57-2.94,1.82-4.32l2.45,1.01c-.8,1.41-1.82,2.75-3.07,4.03-1.22,1.28-2.58,2.48-4.08,3.6Zm19.5,27.12c1.73,0,3.06-.4,3.98-1.2.93-.83,1.39-2,1.39-3.5,0-1.28-.51-2.38-1.54-3.31-.99-.93-2.35-1.79-4.08-2.59-1.15-.54-2.22-1.12-3.22-1.73-.99-.61-1.79-1.34-2.4-2.21-.58-.86-.86-1.95-.86-3.26,0-1.66.64-3.09,1.92-4.27,1.31-1.18,3.26-1.78,5.86-1.78,2.3,0,3.98.45,5.04,1.34,1.06.86,1.58,1.84,1.58,2.93,0,.7-.18,1.3-.53,1.78-.32.48-.7.83-1.15,1.06-.42.22-.8.34-1.15.34l-.14-.14c.32-.35.54-.75.67-1.2.13-.48.19-.98.19-1.49,0-.64-.11-1.28-.34-1.92-.22-.64-.67-1.18-1.34-1.63-.64-.45-1.58-.67-2.83-.67s-2.3.22-3.07.67c-.77.42-1.33.98-1.68,1.68-.32.67-.48,1.41-.48,2.21,0,1.09.24,1.98.72,2.69.51.7,1.18,1.31,2.02,1.82.83.48,1.76.98,2.78,1.49,1.98.9,3.57,1.87,4.75,2.93,1.18,1.06,1.78,2.4,1.78,4.03,0,1.95-.72,3.5-2.16,4.66-1.44,1.12-3.34,1.68-5.71,1.68-1.73,0-3.14-.24-4.22-.72s-1.9-1.09-2.45-1.82c-.51-.74-.77-1.52-.77-2.35,0-.93.29-1.66.86-2.21.61-.58,1.26-.86,1.97-.86l.14.14c-.26.38-.43.82-.53,1.3-.1.45-.14.9-.14,1.34,0,1.22.4,2.32,1.2,3.31.8.99,2.11,1.49,3.94,1.49Zm11.97-11.76c0-4.22.83-7.3,2.5-9.22s3.98-2.88,6.96-2.88c2.82,0,4.8.69,5.95,2.06,1.15,1.38,1.73,3.18,1.73,5.42,0,.51-.05,1.02-.14,1.54-.1.51-.22.98-.38,1.39h-13.25c-.03.19-.05.46-.05.82v.86c0,2.43.21,4.51.62,6.24.42,1.73,1.14,3.06,2.16,3.98,1.06.9,2.54,1.34,4.46,1.34,1.22,0,2.27-.29,3.17-.86.93-.61,1.63-1.34,2.11-2.21.48-.9.72-1.76.72-2.59h.43c0,.9-.27,1.84-.82,2.83-.54.96-1.34,1.78-2.4,2.45-1.06.64-2.38.96-3.98.96-3.17,0-5.6-.94-7.3-2.83-1.66-1.92-2.5-5.02-2.5-9.31Zm9.46-11.71c-2.24,0-3.79.85-4.66,2.54-.86,1.66-1.34,4.03-1.44,7.1h9.31c.67,0,1.12-.21,1.34-.62.26-.42.38-.99.38-1.73,0-1.38-.1-2.61-.29-3.7-.19-1.12-.64-2-1.34-2.64s-1.81-.96-3.31-.96Zm21.18,22.99v.38h-10.22v-.38h3.36v-22.51h-3.36v-.38h5.57l.38,6.96h.1c.29-1.98.72-3.5,1.3-4.56.61-1.09,1.26-1.84,1.97-2.26.74-.42,1.44-.62,2.11-.62,1.06,0,1.81.29,2.26.86.48.54.72,1.2.72,1.97s-.18,1.47-.53,2.02c-.35.54-.8.98-1.34,1.3-.54.29-1.07.48-1.58.58l-.14-.1c.26-.42.46-.88.62-1.39.16-.54.24-1.18.24-1.92,0-.67-.1-1.23-.29-1.68-.19-.48-.46-.78-.82-.91-.38,0-.86.22-1.44.67-.54.42-1.07,1.17-1.58,2.26-.51,1.06-.9,2.58-1.15,4.56v15.17h3.84Zm24.84-21.31c0-.35-.14-.64-.43-.86s-.77-.34-1.44-.34h-1.63v-.38h6.82v.38h-.67c-.61,0-1.1.21-1.49.62-.38.38-.72.98-1.01,1.78l-7.15,20.5h-.62l-8.3-21.26c-.26-.64-.51-1.07-.77-1.3-.22-.22-.59-.34-1.1-.34h-1.15v-.38h9.6v.38h-3.6c0,.35.02.72.05,1.1.06.35.19.78.38,1.3l6.53,16.7,5.76-16.85c.06-.19.11-.37.14-.53.06-.19.1-.37.1-.53Zm3.96,10.03c0-4.22.83-7.3,2.5-9.22s3.98-2.88,6.96-2.88c2.82,0,4.8.69,5.95,2.06,1.15,1.38,1.73,3.18,1.73,5.42,0,.51-.05,1.02-.14,1.54-.1.51-.22.98-.38,1.39h-13.25c-.03.19-.05.46-.05.82v.86c0,2.43.21,4.51.62,6.24.42,1.73,1.14,3.06,2.16,3.98,1.06.9,2.54,1.34,4.46,1.34,1.22,0,2.27-.29,3.17-.86.93-.61,1.63-1.34,2.11-2.21.48-.9.72-1.76.72-2.59h.43c0,.9-.27,1.84-.82,2.83-.54.96-1.34,1.78-2.4,2.45-1.06.64-2.38.96-3.98.96-3.17,0-5.6-.94-7.3-2.83-1.66-1.92-2.5-5.02-2.5-9.31Zm9.46-11.71c-2.24,0-3.79.85-4.66,2.54-.86,1.66-1.34,4.03-1.44,7.1h9.31c.67,0,1.12-.21,1.34-.62.26-.42.38-.99.38-1.73,0-1.38-.1-2.61-.29-3.7-.19-1.12-.64-2-1.34-2.64-.7-.64-1.81-.96-3.31-.96Zm34.42-12.24v-.38h6.38v33.89c0,.48.08.9.24,1.25.16.32.54.48,1.15.48h2.02v.38h-3.31c-1.18,0-1.98-.35-2.4-1.06-.42-.7-.64-1.78-.67-3.22-.7,1.5-1.65,2.67-2.83,3.5-1.15.83-2.58,1.25-4.27,1.25-2.72,0-4.75-.86-6.1-2.59-1.34-1.76-2.02-4.58-2.02-8.45,0-4.67.85-8.03,2.54-10.08,1.73-2.08,4.02-3.12,6.86-3.12,1.41,0,2.58.34,3.5,1.01.93.64,1.68,1.5,2.26,2.59v-15.46h-3.36Zm-8.54,25.06c0,2.43.19,4.43.58,6,.42,1.54,1.02,2.67,1.82,3.41.8.74,1.79,1.1,2.98,1.1,1.47,0,2.74-.42,3.79-1.25,1.06-.83,1.97-2.1,2.74-3.79v-14.3c-.58-1.25-1.31-2.21-2.21-2.88-.86-.67-1.95-1.01-3.26-1.01-1.44,0-2.64.46-3.6,1.39-.96.93-1.68,2.34-2.16,4.22-.45,1.86-.67,4.22-.67,7.1Zm25.57-23.62c0,.83-.16,1.79-.48,2.88-.32,1.09-.8,2.16-1.44,3.22-.64,1.02-1.44,1.92-2.4,2.69l-.19-.34c.74-.64,1.34-1.34,1.82-2.11.51-.77.91-1.52,1.2-2.26.29-.74.46-1.33.53-1.78-.32-.64-.75-1.12-1.3-1.44-.54-.32-1.15-.56-1.82-.72,0-.74.19-1.33.58-1.78.42-.45.91-.67,1.49-.67.48,0,.93.18,1.34.53.45.32.67.91.67,1.78Zm1.91,22.51c0-4.22.83-7.3,2.5-9.22s3.98-2.88,6.96-2.88c2.82,0,4.8.69,5.95,2.06,1.15,1.38,1.73,3.18,1.73,5.42,0,.51-.05,1.02-.14,1.54-.1.51-.22.98-.38,1.39h-13.25c-.03.19-.05.46-.05.82v.86c0,2.43.21,4.51.62,6.24.42,1.73,1.14,3.06,2.16,3.98,1.06.9,2.54,1.34,4.46,1.34,1.22,0,2.27-.29,3.17-.86.93-.61,1.63-1.34,2.11-2.21.48-.9.72-1.76.72-2.59h.43c0,.9-.27,1.84-.82,2.83-.54.96-1.34,1.78-2.4,2.45-1.06.64-2.38.96-3.98.96-3.17,0-5.6-.94-7.3-2.83-1.66-1.92-2.5-5.02-2.5-9.31Zm9.46-11.71c-2.24,0-3.79.85-4.66,2.54-.86,1.66-1.34,4.03-1.44,7.1h9.31c.67,0,1.12-.21,1.34-.62.26-.42.38-.99.38-1.73,0-1.38-.1-2.61-.29-3.7-.19-1.12-.64-2-1.34-2.64s-1.81-.96-3.31-.96Zm28,23.38c-1.15,0-1.95-.32-2.4-.96-.42-.64-.64-1.57-.67-2.78-.48,1.18-1.3,2.19-2.45,3.02-1.15.8-2.62,1.2-4.42,1.2-1.98,0-3.5-.4-4.56-1.2-1.06-.8-1.58-1.92-1.58-3.36,0-1.66.72-3.06,2.16-4.18s3.5-1.86,6.19-2.21l4.61-.67v-4.13c0-1.66-.08-3.1-.24-4.32s-.58-2.16-1.25-2.83-1.79-1.01-3.36-1.01c-1.34,0-2.37.27-3.07.82-.7.51-1.18,1.18-1.44,2.02-.22.8-.34,1.63-.34,2.5,0,.61.06,1.2.19,1.78.13.54.42,1.04.86,1.49l-.14.14c-1.09-.16-1.95-.56-2.59-1.2-.61-.67-.91-1.52-.91-2.54,0-.8.26-1.6.77-2.4.51-.83,1.31-1.52,2.4-2.06,1.09-.58,2.51-.86,4.27-.86,1.98,0,3.55.34,4.7,1.01s1.97,1.68,2.45,3.02c.48,1.34.72,3.04.72,5.09v12.53c0,.48.08.9.24,1.25.16.32.53.48,1.1.48h2.06v.38h-3.31Zm-12.82-4.32c0,1.22.27,2.21.82,2.98.58.74,1.63,1.1,3.17,1.1,1.38,0,2.54-.37,3.5-1.1s1.7-1.78,2.21-3.12v-6.29l-4.51.67c-1.34.22-2.4.61-3.17,1.15-.74.54-1.26,1.22-1.58,2.02-.29.77-.43,1.63-.43,2.59Zm32.01-18.96h6.38v21.17c0,.48.08.9.24,1.25.16.32.54.48,1.15.48h2.02v.38h-3.26c-1.25,0-2.08-.38-2.5-1.15-.42-.77-.62-1.9-.62-3.41v-1.1c-.93,2.24-2.11,3.82-3.55,4.75-1.41.93-2.9,1.39-4.46,1.39s-2.8-.26-3.7-.77c-.9-.54-1.54-1.39-1.92-2.54-.35-1.18-.53-2.77-.53-4.75v-15.31h-3.36v-.38h6.38v16.85c0,2.14.24,3.74.72,4.8.48,1.02,1.5,1.54,3.07,1.54,1.31,0,2.62-.5,3.94-1.49,1.34-1.02,2.46-2.7,3.36-5.04v-16.27h-3.36v-.38Zm31.76,32.98v.38h-9.6v-.38h3.31v-32.59h-3.36v-.38h6.19l.14,5.28c.48-1.09,1.06-2.06,1.73-2.93.7-.86,1.54-1.55,2.5-2.06.99-.51,2.13-.77,3.41-.77,2.66,0,4.58.88,5.76,2.64,1.22,1.73,1.82,4.53,1.82,8.4,0,4.64-.86,8-2.59,10.08-1.7,2.08-3.97,3.12-6.82,3.12-1.41,0-2.58-.27-3.5-.82s-1.7-1.34-2.3-2.4v12.43h3.31Zm-3.31-26.64v13.39c.58,1.25,1.31,2.16,2.21,2.74.9.54,2,.82,3.31.82,1.44,0,2.62-.46,3.55-1.39.96-.93,1.66-2.32,2.11-4.18.48-1.89.72-4.27.72-7.15,0-2.43-.18-4.42-.53-5.95-.32-1.54-.85-2.67-1.58-3.41-.7-.74-1.63-1.1-2.78-1.1-1.66,0-3.06.58-4.18,1.73-1.12,1.15-2.06,2.66-2.83,4.51Zm35.56,16.94c-1.15,0-1.95-.32-2.4-.96-.42-.64-.64-1.57-.67-2.78-.48,1.18-1.3,2.19-2.45,3.02-1.15.8-2.62,1.2-4.42,1.2-1.98,0-3.5-.4-4.56-1.2-1.06-.8-1.58-1.92-1.58-3.36,0-1.66.72-3.06,2.16-4.18s3.5-1.86,6.19-2.21l4.61-.67v-4.13c0-1.66-.08-3.1-.24-4.32s-.58-2.16-1.25-2.83-1.79-1.01-3.36-1.01c-1.34,0-2.37.27-3.07.82-.7.51-1.18,1.18-1.44,2.02-.22.8-.34,1.63-.34,2.5,0,.61.06,1.2.19,1.78.13.54.42,1.04.86,1.49l-.14.14c-1.09-.16-1.95-.56-2.59-1.2-.61-.67-.91-1.52-.91-2.54,0-.8.26-1.6.77-2.4.51-.83,1.31-1.52,2.4-2.06,1.09-.58,2.51-.86,4.27-.86,1.98,0,3.55.34,4.7,1.01s1.97,1.68,2.45,3.02c.48,1.34.72,3.04.72,5.09v12.53c0,.48.08.9.24,1.25.16.32.53.48,1.1.48h2.06v.38h-3.31Zm-12.82-4.32c0,1.22.27,2.21.82,2.98.58.74,1.63,1.1,3.17,1.1,1.38,0,2.54-.37,3.5-1.1.96-.74,1.7-1.78,2.21-3.12v-6.29l-4.51.67c-1.34.22-2.4.61-3.17,1.15-.74.54-1.26,1.22-1.58,2.02-.29.77-.43,1.63-.43,2.59Zm28.31,3.94v.38h-10.22v-.38h3.36v-22.51h-3.36v-.38h5.57l.38,6.96h.1c.29-1.98.72-3.5,1.3-4.56.61-1.09,1.26-1.84,1.97-2.26.74-.42,1.44-.62,2.11-.62,1.06,0,1.81.29,2.26.86.48.54.72,1.2.72,1.97s-.18,1.47-.53,2.02-.8.98-1.34,1.3c-.54.29-1.07.48-1.58.58l-.14-.1c.26-.42.46-.88.62-1.39.16-.54.24-1.18.24-1.92,0-.67-.1-1.23-.29-1.68-.19-.48-.46-.78-.82-.91-.38,0-.86.22-1.44.67-.54.42-1.07,1.17-1.58,2.26-.51,1.06-.9,2.58-1.15,4.56v15.17h3.84Zm34.47.38c-1.15,0-1.95-.32-2.4-.96-.42-.64-.64-1.57-.67-2.78-.48,1.18-1.3,2.19-2.45,3.02-1.15.8-2.62,1.2-4.42,1.2-1.98,0-3.5-.4-4.56-1.2-1.06-.8-1.58-1.92-1.58-3.36,0-1.66.72-3.06,2.16-4.18s3.5-1.86,6.19-2.21l4.61-.67v-4.13c0-1.66-.08-3.1-.24-4.32s-.58-2.16-1.25-2.83-1.79-1.01-3.36-1.01c-1.34,0-2.37.27-3.07.82-.7.51-1.18,1.18-1.44,2.02-.22.8-.34,1.63-.34,2.5,0,.61.06,1.2.19,1.78.13.54.42,1.04.86,1.49l-.14.14c-1.09-.16-1.95-.56-2.59-1.2-.61-.67-.91-1.52-.91-2.54,0-.8.26-1.6.77-2.4.51-.83,1.31-1.52,2.4-2.06,1.09-.58,2.51-.86,4.27-.86,1.98,0,3.55.34,4.7,1.01s1.97,1.68,2.45,3.02c.48,1.34.72,3.04.72,5.09v12.53c0,.48.08.9.24,1.25.16.32.53.48,1.1.48h2.06v.38h-3.31Zm-12.82-4.32c0,1.22.27,2.21.82,2.98.58.74,1.63,1.1,3.17,1.1,1.38,0,2.54-.37,3.5-1.1s1.7-1.78,2.21-3.12v-6.29l-4.51.67c-1.34.22-2.4.61-3.17,1.15-.74.54-1.26,1.22-1.58,2.02-.29.77-.43,1.63-.43,2.59Zm28.12,3.94v.38h-9.74v-.38h3.36v-22.51h-3.36v-.38h6.19l.14,5.71c.93-2.27,2.14-3.87,3.65-4.8,1.5-.93,3.04-1.39,4.61-1.39s2.8.27,3.7.82c.9.51,1.52,1.36,1.87,2.54.38,1.15.58,2.72.58,4.7v15.31h3.36v.38h-9.74v-.38h3.36v-16.46c0-2.14-.24-3.73-.72-4.75-.48-1.06-1.5-1.58-3.07-1.58-1.31,0-2.67.5-4.08,1.49s-2.56,2.67-3.46,5.04v16.27h3.36Zm27.87-11.28c0-4.22.83-7.3,2.5-9.22s3.98-2.88,6.96-2.88c2.82,0,4.8.69,5.95,2.06,1.15,1.38,1.73,3.18,1.73,5.42,0,.51-.05,1.02-.14,1.54-.1.51-.22.98-.38,1.39h-13.25c-.03.19-.05.46-.05.82v.86c0,2.43.21,4.51.62,6.24.42,1.73,1.14,3.06,2.16,3.98,1.06.9,2.54,1.34,4.46,1.34,1.22,0,2.27-.29,3.17-.86.93-.61,1.63-1.34,2.11-2.21.48-.9.72-1.76.72-2.59h.43c0,.9-.27,1.84-.82,2.83-.54.96-1.34,1.78-2.4,2.45-1.06.64-2.38.96-3.98.96-3.17,0-5.6-.94-7.3-2.83-1.66-1.92-2.5-5.02-2.5-9.31Zm9.46-11.71c-2.24,0-3.79.85-4.66,2.54-.86,1.66-1.34,4.03-1.44,7.1h9.31c.67,0,1.12-.21,1.34-.62.26-.42.38-.99.38-1.73,0-1.38-.1-2.61-.29-3.7-.19-1.12-.64-2-1.34-2.64-.7-.64-1.81-.96-3.31-.96Zm20.99,22.99v.38h-9.74v-.38h3.36v-22.51h-3.36v-.38h6.19l.14,5.71c.93-2.27,2.14-3.87,3.65-4.8,1.5-.93,3.04-1.39,4.61-1.39s2.8.27,3.7.82c.9.51,1.52,1.36,1.87,2.54.38,1.15.58,2.72.58,4.7v15.31h3.36v.38h-9.74v-.38h3.36v-16.46c0-2.14-.24-3.73-.72-4.75-.48-1.06-1.5-1.58-3.07-1.58-1.31,0-2.67.5-4.08,1.49-1.41.99-2.56,2.67-3.46,5.04v16.27h3.36Zm27.58-33.94h19.25v7.49h-.48c0-1.18-.11-2.32-.34-3.41s-.62-1.97-1.2-2.64c-.54-.7-1.31-1.06-2.3-1.06h-7.68v17.28h2.93c1.28,0,2.3-.14,3.07-.43.77-.32,1.52-.77,2.26-1.34v3.94c-.8-.64-1.57-1.09-2.3-1.34-.74-.29-1.74-.43-3.02-.43h-2.93v15.89h4.61v.38h-11.86v-.38h4.03v-33.55h-4.03v-.38Zm30.88,33.94v.38h-10.22v-.38h3.36v-22.51h-3.36v-.38h5.57l.38,6.96h.1c.29-1.98.72-3.5,1.3-4.56.61-1.09,1.26-1.84,1.97-2.26.74-.42,1.44-.62,2.11-.62,1.06,0,1.81.29,2.26.86.48.54.72,1.2.72,1.97s-.18,1.47-.53,2.02c-.35.54-.8.98-1.34,1.3-.54.29-1.07.48-1.58.58l-.14-.1c.26-.42.46-.88.62-1.39.16-.54.24-1.18.24-1.92,0-.67-.1-1.23-.29-1.68-.19-.48-.46-.78-.82-.91-.38,0-.86.22-1.44.67-.54.42-1.07,1.17-1.58,2.26-.51,1.06-.9,2.58-1.15,4.56v15.17h3.84Zm22.71.38c-1.15,0-1.95-.32-2.4-.96-.42-.64-.64-1.57-.67-2.78-.48,1.18-1.3,2.19-2.45,3.02-1.15.8-2.62,1.2-4.42,1.2-1.98,0-3.5-.4-4.56-1.2-1.06-.8-1.58-1.92-1.58-3.36,0-1.66.72-3.06,2.16-4.18s3.5-1.86,6.19-2.21l4.61-.67v-4.13c0-1.66-.08-3.1-.24-4.32s-.58-2.16-1.25-2.83-1.79-1.01-3.36-1.01c-1.34,0-2.37.27-3.07.82-.7.51-1.18,1.18-1.44,2.02-.22.8-.34,1.63-.34,2.5,0,.61.06,1.2.19,1.78.13.54.42,1.04.86,1.49l-.14.14c-1.09-.16-1.95-.56-2.59-1.2-.61-.67-.91-1.52-.91-2.54,0-.8.26-1.6.77-2.4.51-.83,1.31-1.52,2.4-2.06,1.09-.58,2.51-.86,4.27-.86,1.98,0,3.55.34,4.7,1.01s1.97,1.68,2.45,3.02c.48,1.34.72,3.04.72,5.09v12.53c0,.48.08.9.24,1.25.16.32.53.48,1.1.48h2.06v.38h-3.31Zm-12.82-4.32c0,1.22.27,2.21.82,2.98.58.74,1.63,1.1,3.17,1.1,1.38,0,2.54-.37,3.5-1.1.96-.74,1.7-1.78,2.21-3.12v-6.29l-4.51.67c-1.34.22-2.4.61-3.17,1.15-.74.54-1.26,1.22-1.58,2.02-.29.77-.43,1.63-.43,2.59Zm28.12,3.94v.38h-9.74v-.38h3.36v-22.51h-3.36v-.38h6.19l.14,5.71c.93-2.27,2.14-3.87,3.65-4.8,1.5-.93,3.04-1.39,4.61-1.39s2.8.27,3.7.82c.9.51,1.52,1.36,1.87,2.54.38,1.15.58,2.72.58,4.7v15.31h3.36v.38h-9.74v-.38h3.36v-16.46c0-2.14-.24-3.73-.72-4.75-.48-1.06-1.5-1.58-3.07-1.58-1.31,0-2.67.5-4.08,1.49-1.41.99-2.56,2.67-3.46,5.04v16.27h3.36Zm26.82-23.38c1.7,0,3.04.22,4.03.67,1.02.45,1.74,1.04,2.16,1.78.42.74.62,1.54.62,2.4,0,.7-.16,1.34-.48,1.92-.29.58-.69,1.06-1.2,1.44-.48.35-1.01.58-1.58.67l-.14-.14c.35-.51.58-1.07.67-1.68.13-.61.19-1.23.19-1.87,0-.45-.05-.94-.14-1.49-.1-.54-.29-1.07-.58-1.58-.26-.51-.67-.93-1.25-1.25s-1.34-.48-2.3-.48c-1.66,0-2.94.48-3.84,1.44-.9.93-1.52,2.29-1.87,4.08-.32,1.79-.48,4-.48,6.62,0,2.34.16,4.34.48,6s.96,2.93,1.92,3.79c.99.86,2.45,1.3,4.37,1.3,1.25,0,2.32-.29,3.22-.86.9-.61,1.57-1.34,2.02-2.21.48-.86.72-1.71.72-2.54h.43c0,.9-.27,1.84-.82,2.83-.51.96-1.3,1.78-2.35,2.45-1.06.64-2.37.96-3.94.96-3.17,0-5.52-.91-7.06-2.74-1.54-1.86-2.3-4.85-2.3-8.98s.82-7.36,2.45-9.41c1.63-2.08,3.98-3.12,7.06-3.12Zm10.61,12.1c0-4.22.83-7.3,2.5-9.22s3.98-2.88,6.96-2.88c2.82,0,4.8.69,5.95,2.06,1.15,1.38,1.73,3.18,1.73,5.42,0,.51-.05,1.02-.14,1.54-.1.51-.22.98-.38,1.39h-13.25c-.03.19-.05.46-.05.82v.86c0,2.43.21,4.51.62,6.24.42,1.73,1.14,3.06,2.16,3.98,1.06.9,2.54,1.34,4.46,1.34,1.22,0,2.27-.29,3.17-.86.93-.61,1.63-1.34,2.11-2.21.48-.9.72-1.76.72-2.59h.43c0,.9-.27,1.84-.82,2.83-.54.96-1.34,1.78-2.4,2.45-1.06.64-2.38.96-3.98.96-3.17,0-5.6-.94-7.3-2.83-1.66-1.92-2.5-5.02-2.5-9.31Zm9.46-11.71c-2.24,0-3.79.85-4.66,2.54-.86,1.66-1.34,4.03-1.44,7.1h9.31c.67,0,1.12-.21,1.34-.62.26-.42.38-.99.38-1.73,0-1.38-.1-2.61-.29-3.7-.19-1.12-.64-2-1.34-2.64-.7-.64-1.81-.96-3.31-.96Z"/><path d="m33.53,35.78h.64v9.98H7.1v-.51h5.38V.51h-5.38v-.51h15.04v.51h-5.38v44.74h11.33c1.37,0,2.43-.38,3.2-1.15.81-.81,1.39-1.92,1.73-3.33.34-1.45.51-3.11.51-4.99Zm5.95-5.57c0-5.63,1.11-9.73,3.33-12.29,2.22-2.56,5.31-3.84,9.28-3.84,3.75,0,6.4.92,7.94,2.75,1.54,1.83,2.3,4.25,2.3,7.23,0,.68-.06,1.37-.19,2.05-.13.68-.3,1.3-.51,1.86h-17.66c-.04.26-.06.62-.06,1.09v1.15c0,3.24.28,6.02.83,8.32s1.51,4.07,2.88,5.31c1.41,1.19,3.39,1.79,5.95,1.79,1.62,0,3.03-.38,4.22-1.15,1.24-.81,2.18-1.79,2.82-2.94.64-1.19.96-2.35.96-3.46h.58c0,1.19-.36,2.45-1.09,3.78-.73,1.28-1.79,2.37-3.2,3.26-1.41.85-3.18,1.28-5.31,1.28-4.22,0-7.47-1.26-9.73-3.78-2.22-2.56-3.33-6.7-3.33-12.42Zm12.61-15.62c-2.99,0-5.06,1.13-6.21,3.39-1.15,2.22-1.79,5.38-1.92,9.47h12.42c.9,0,1.49-.28,1.79-.83.34-.55.51-1.32.51-2.3,0-1.83-.13-3.48-.38-4.93-.26-1.49-.85-2.67-1.79-3.52-.94-.85-2.41-1.28-4.42-1.28Zm25.68,31.3c2.3,0,4.07-.53,5.31-1.6,1.24-1.11,1.86-2.67,1.86-4.67,0-1.71-.68-3.18-2.05-4.42-1.32-1.24-3.14-2.39-5.44-3.46-1.54-.73-2.97-1.49-4.29-2.3s-2.39-1.79-3.2-2.94c-.77-1.15-1.15-2.6-1.15-4.35,0-2.22.85-4.12,2.56-5.7,1.75-1.58,4.35-2.37,7.81-2.37,3.07,0,5.31.6,6.72,1.79,1.41,1.15,2.11,2.45,2.11,3.9,0,.94-.23,1.73-.7,2.37-.43.64-.94,1.11-1.54,1.41-.55.3-1.07.45-1.54.45l-.19-.19c.43-.47.73-1,.9-1.6.17-.64.26-1.3.26-1.98,0-.85-.15-1.71-.45-2.56-.3-.85-.9-1.58-1.79-2.18-.85-.6-2.11-.9-3.78-.9s-3.07.3-4.1.9c-1.02.55-1.77,1.3-2.24,2.24-.43.9-.64,1.88-.64,2.94,0,1.45.32,2.65.96,3.58.68.94,1.58,1.75,2.69,2.43,1.11.64,2.35,1.3,3.71,1.98,2.65,1.19,4.76,2.5,6.34,3.9,1.58,1.41,2.37,3.2,2.37,5.38,0,2.6-.96,4.67-2.88,6.21-1.92,1.49-4.46,2.24-7.62,2.24-2.3,0-4.18-.32-5.63-.96s-2.54-1.45-3.26-2.43c-.68-.98-1.02-2.03-1.02-3.14,0-1.24.38-2.22,1.15-2.94.81-.77,1.69-1.15,2.62-1.15l.19.19c-.34.51-.58,1.09-.7,1.73-.13.6-.19,1.19-.19,1.79,0,1.62.53,3.09,1.6,4.42,1.07,1.32,2.82,1.98,5.25,1.98Zm42.37-.64v.51h-13.63v-.51h4.48V15.23h-4.48v-.51h7.42l.51,9.28h.13c.38-2.65.96-4.67,1.73-6.08.81-1.45,1.68-2.45,2.62-3.01.98-.55,1.92-.83,2.82-.83,1.41,0,2.41.38,3.01,1.15.64.73.96,1.6.96,2.62s-.24,1.96-.7,2.69c-.47.73-1.07,1.3-1.79,1.73-.73.38-1.43.64-2.11.77l-.19-.13c.34-.55.62-1.17.83-1.86.21-.73.32-1.58.32-2.56,0-.9-.13-1.64-.38-2.24-.26-.64-.62-1.05-1.09-1.22-.51,0-1.15.3-1.92.9-.73.55-1.43,1.56-2.11,3.01-.68,1.41-1.19,3.43-1.54,6.08v20.22h5.12Zm8.77-15.04c0-5.63,1.11-9.73,3.33-12.29,2.22-2.56,5.31-3.84,9.28-3.84,3.75,0,6.4.92,7.94,2.75,1.54,1.83,2.3,4.25,2.3,7.23,0,.68-.06,1.37-.19,2.05-.13.68-.3,1.3-.51,1.86h-17.66c-.04.26-.06.62-.06,1.09v1.15c0,3.24.28,6.02.83,8.32.56,2.3,1.51,4.07,2.88,5.31,1.41,1.19,3.39,1.79,5.95,1.79,1.62,0,3.03-.38,4.22-1.15,1.24-.81,2.18-1.79,2.82-2.94.64-1.19.96-2.35.96-3.46h.58c0,1.19-.36,2.45-1.09,3.78-.73,1.28-1.79,2.37-3.2,3.26-1.41.85-3.18,1.28-5.31,1.28-4.22,0-7.47-1.26-9.73-3.78-2.22-2.56-3.33-6.7-3.33-12.42Zm12.61-15.62c-2.99,0-5.06,1.13-6.21,3.39-1.15,2.22-1.79,5.38-1.92,9.47h12.42c.9,0,1.49-.28,1.79-.83.34-.55.51-1.32.51-2.3,0-1.83-.13-3.48-.38-4.93-.26-1.49-.85-2.67-1.79-3.52-.94-.85-2.41-1.28-4.42-1.28Zm25.68,31.3c2.3,0,4.07-.53,5.31-1.6,1.24-1.11,1.86-2.67,1.86-4.67,0-1.71-.68-3.18-2.05-4.42-1.32-1.24-3.14-2.39-5.44-3.46-1.54-.73-2.97-1.49-4.29-2.3-1.32-.81-2.39-1.79-3.2-2.94-.77-1.15-1.15-2.6-1.15-4.35,0-2.22.85-4.12,2.56-5.7,1.75-1.58,4.35-2.37,7.81-2.37,3.07,0,5.31.6,6.72,1.79,1.41,1.15,2.11,2.45,2.11,3.9,0,.94-.24,1.73-.7,2.37-.43.64-.94,1.11-1.54,1.41-.55.3-1.07.45-1.54.45l-.19-.19c.43-.47.73-1,.9-1.6.17-.64.26-1.3.26-1.98,0-.85-.15-1.71-.45-2.56-.3-.85-.9-1.58-1.79-2.18-.85-.6-2.11-.9-3.78-.9s-3.07.3-4.1.9c-1.02.55-1.77,1.3-2.24,2.24-.43.9-.64,1.88-.64,2.94,0,1.45.32,2.65.96,3.58.68.94,1.58,1.75,2.69,2.43,1.11.64,2.35,1.3,3.71,1.98,2.65,1.19,4.76,2.5,6.34,3.9,1.58,1.41,2.37,3.2,2.37,5.38,0,2.6-.96,4.67-2.88,6.21-1.92,1.49-4.46,2.24-7.62,2.24-2.3,0-4.18-.32-5.63-.96-1.45-.64-2.54-1.45-3.26-2.43-.68-.98-1.02-2.03-1.02-3.14,0-1.24.38-2.22,1.15-2.94.81-.77,1.68-1.15,2.62-1.15l.19.19c-.34.51-.58,1.09-.7,1.73-.13.6-.19,1.19-.19,1.79,0,1.62.53,3.09,1.6,4.42,1.07,1.32,2.82,1.98,5.25,1.98Zm25.75,0c2.3,0,4.07-.53,5.31-1.6,1.24-1.11,1.86-2.67,1.86-4.67,0-1.71-.68-3.18-2.05-4.42-1.32-1.24-3.14-2.39-5.44-3.46-1.54-.73-2.97-1.49-4.29-2.3-1.32-.81-2.39-1.79-3.2-2.94-.77-1.15-1.15-2.6-1.15-4.35,0-2.22.85-4.12,2.56-5.7,1.75-1.58,4.35-2.37,7.81-2.37,3.07,0,5.31.6,6.72,1.79,1.41,1.15,2.11,2.45,2.11,3.9,0,.94-.24,1.73-.7,2.37-.43.64-.94,1.11-1.54,1.41-.55.3-1.07.45-1.54.45l-.19-.19c.43-.47.73-1,.9-1.6.17-.64.26-1.3.26-1.98,0-.85-.15-1.71-.45-2.56-.3-.85-.9-1.58-1.79-2.18-.85-.6-2.11-.9-3.78-.9s-3.07.3-4.1.9c-1.02.55-1.77,1.3-2.24,2.24-.43.9-.64,1.88-.64,2.94,0,1.45.32,2.65.96,3.58.68.94,1.58,1.75,2.69,2.43,1.11.64,2.35,1.3,3.71,1.98,2.65,1.19,4.76,2.5,6.34,3.9,1.58,1.41,2.37,3.2,2.37,5.38,0,2.6-.96,4.67-2.88,6.21-1.92,1.49-4.46,2.24-7.62,2.24-2.3,0-4.18-.32-5.63-.96-1.45-.64-2.54-1.45-3.26-2.43-.68-.98-1.02-2.03-1.02-3.14,0-1.24.38-2.22,1.15-2.94.81-.77,1.68-1.15,2.62-1.15l.19.19c-.34.51-.58,1.09-.7,1.73-.13.6-.19,1.19-.19,1.79,0,1.62.53,3.09,1.6,4.42,1.07,1.32,2.82,1.98,5.25,1.98Zm41.3-15.74c0,10.84-4.22,16.26-12.67,16.26s-12.67-5.42-12.67-16.26,4.22-16.06,12.67-16.06,12.67,5.35,12.67,16.06Zm-4.42,0c0-3.63-.28-6.57-.83-8.83-.51-2.3-1.37-3.99-2.56-5.06-1.19-1.11-2.82-1.66-4.86-1.66s-3.54.55-4.74,1.66c-1.2,1.07-2.09,2.75-2.69,5.06-.55,2.26-.83,5.21-.83,8.83s.28,6.66.83,8.96c.6,2.3,1.49,4.01,2.69,5.12,1.19,1.11,2.77,1.66,4.74,1.66s3.67-.55,4.86-1.66c1.19-1.11,2.05-2.82,2.56-5.12.55-2.3.83-5.29.83-8.96Zm27.23-15.42h8.51v28.22c0,.64.11,1.19.32,1.66.21.43.73.64,1.54.64h2.69v.51h-4.35c-1.66,0-2.77-.51-3.33-1.54-.56-1.02-.83-2.54-.83-4.54v-1.47c-1.24,2.99-2.82,5.1-4.74,6.34-1.88,1.24-3.86,1.86-5.95,1.86s-3.73-.34-4.93-1.02c-1.19-.73-2.05-1.86-2.56-3.39-.47-1.58-.7-3.69-.7-6.34V15.23h-4.48v-.51h8.51v22.46c0,2.86.32,4.99.96,6.4.64,1.37,2,2.05,4.1,2.05,1.75,0,3.5-.66,5.25-1.98,1.79-1.37,3.29-3.61,4.48-6.72V15.23h-4.48v-.51Zm29.76,30.53v.51h-13.63v-.51h4.48V15.23h-4.48v-.51h7.42l.51,9.28h.13c.38-2.65.96-4.67,1.73-6.08.81-1.45,1.68-2.45,2.62-3.01.98-.55,1.92-.83,2.82-.83,1.41,0,2.41.38,3.01,1.15.64.73.96,1.6.96,2.62s-.23,1.96-.7,2.69c-.47.73-1.07,1.3-1.79,1.73-.73.38-1.43.64-2.11.77l-.19-.13c.34-.55.62-1.17.83-1.86.21-.73.32-1.58.32-2.56,0-.9-.13-1.64-.38-2.24-.26-.64-.62-1.05-1.09-1.22-.51,0-1.15.3-1.92.9-.72.55-1.43,1.56-2.11,3.01-.68,1.41-1.19,3.43-1.54,6.08v20.22h5.12Zm21.45-31.17c2.26,0,4.05.3,5.38.9,1.37.6,2.33,1.39,2.88,2.37s.83,2.05.83,3.2c0,.94-.21,1.79-.64,2.56-.38.77-.92,1.41-1.6,1.92-.64.47-1.34.77-2.11.9l-.19-.19c.47-.68.77-1.43.9-2.24.17-.81.26-1.64.26-2.5,0-.6-.06-1.26-.19-1.98-.13-.73-.38-1.43-.77-2.11-.34-.68-.9-1.24-1.66-1.66s-1.79-.64-3.07-.64c-2.22,0-3.93.64-5.12,1.92-1.19,1.24-2.03,3.05-2.5,5.44-.43,2.39-.64,5.33-.64,8.83,0,3.11.21,5.78.64,8,.43,2.22,1.28,3.9,2.56,5.06,1.32,1.15,3.26,1.73,5.82,1.73,1.66,0,3.09-.38,4.29-1.15,1.19-.81,2.09-1.79,2.69-2.94.64-1.15.96-2.28.96-3.39h.58c0,1.19-.36,2.45-1.09,3.78-.68,1.28-1.73,2.37-3.14,3.26-1.41.85-3.16,1.28-5.25,1.28-4.22,0-7.36-1.22-9.41-3.65-2.05-2.47-3.07-6.46-3.07-11.97s1.09-9.81,3.26-12.54c2.18-2.77,5.31-4.16,9.41-4.16Zm14.14,16.13c0-5.63,1.11-9.73,3.33-12.29,2.22-2.56,5.31-3.84,9.28-3.84,3.75,0,6.4.92,7.94,2.75,1.54,1.83,2.3,4.25,2.3,7.23,0,.68-.06,1.37-.19,2.05-.13.68-.3,1.3-.51,1.86h-17.66c-.04.26-.06.62-.06,1.09v1.15c0,3.24.28,6.02.83,8.32.55,2.3,1.51,4.07,2.88,5.31,1.41,1.19,3.39,1.79,5.95,1.79,1.62,0,3.03-.38,4.22-1.15,1.24-.81,2.18-1.79,2.82-2.94.64-1.19.96-2.35.96-3.46h.58c0,1.19-.36,2.45-1.09,3.78-.73,1.28-1.79,2.37-3.2,3.26-1.41.85-3.18,1.28-5.31,1.28-4.22,0-7.47-1.26-9.73-3.78-2.22-2.56-3.33-6.7-3.33-12.42Zm12.61-15.62c-2.99,0-5.06,1.13-6.21,3.39-1.15,2.22-1.79,5.38-1.92,9.47h12.42c.9,0,1.49-.28,1.79-.83.34-.55.51-1.32.51-2.3,0-1.83-.13-3.48-.38-4.93-.26-1.49-.85-2.67-1.79-3.52-.94-.85-2.41-1.28-4.42-1.28Zm25.68,31.3c2.3,0,4.07-.53,5.31-1.6,1.24-1.11,1.86-2.67,1.86-4.67,0-1.71-.68-3.18-2.05-4.42-1.32-1.24-3.14-2.39-5.44-3.46-1.54-.73-2.97-1.49-4.29-2.3-1.32-.81-2.39-1.79-3.2-2.94-.77-1.15-1.15-2.6-1.15-4.35,0-2.22.85-4.12,2.56-5.7,1.75-1.58,4.35-2.37,7.81-2.37,3.07,0,5.31.6,6.72,1.79,1.41,1.15,2.11,2.45,2.11,3.9,0,.94-.23,1.73-.7,2.37-.43.64-.94,1.11-1.54,1.41-.55.3-1.07.45-1.54.45l-.19-.19c.43-.47.73-1,.9-1.6.17-.64.26-1.3.26-1.98,0-.85-.15-1.71-.45-2.56-.3-.85-.9-1.58-1.79-2.18-.85-.6-2.11-.9-3.78-.9s-3.07.3-4.1.9c-1.02.55-1.77,1.3-2.24,2.24-.43.9-.64,1.88-.64,2.94,0,1.45.32,2.65.96,3.58.68.94,1.58,1.75,2.69,2.43,1.11.64,2.35,1.3,3.71,1.98,2.65,1.19,4.76,2.5,6.34,3.9,1.58,1.41,2.37,3.2,2.37,5.38,0,2.6-.96,4.67-2.88,6.21-1.92,1.49-4.46,2.24-7.62,2.24-2.3,0-4.18-.32-5.63-.96-1.45-.64-2.54-1.45-3.26-2.43-.68-.98-1.02-2.03-1.02-3.14,0-1.24.38-2.22,1.15-2.94.81-.77,1.68-1.15,2.62-1.15l.19.19c-.34.51-.58,1.09-.7,1.73-.13.6-.19,1.19-.19,1.79,0,1.62.53,3.09,1.6,4.42,1.07,1.32,2.82,1.98,5.25,1.98Zm30.02-15.68c0-5.63,1.11-9.73,3.33-12.29,2.22-2.56,5.31-3.84,9.28-3.84,3.76,0,6.4.92,7.94,2.75,1.54,1.83,2.3,4.25,2.3,7.23,0,.68-.06,1.37-.19,2.05-.13.68-.3,1.3-.51,1.86h-17.66c-.04.26-.06.62-.06,1.09v1.15c0,3.24.28,6.02.83,8.32s1.52,4.07,2.88,5.31c1.41,1.19,3.39,1.79,5.95,1.79,1.62,0,3.03-.38,4.22-1.15,1.24-.81,2.18-1.79,2.82-2.94.64-1.19.96-2.35.96-3.46h.58c0,1.19-.36,2.45-1.09,3.78-.73,1.28-1.79,2.37-3.2,3.26-1.41.85-3.18,1.28-5.31,1.28-4.22,0-7.47-1.26-9.73-3.78-2.22-2.56-3.33-6.7-3.33-12.42Zm12.61-15.62c-2.99,0-5.06,1.13-6.21,3.39-1.15,2.22-1.79,5.38-1.92,9.47h12.42c.9,0,1.49-.28,1.79-.83.34-.55.51-1.32.51-2.3,0-1.83-.13-3.48-.38-4.93-.26-1.49-.85-2.67-1.79-3.52s-2.41-1.28-4.42-1.28Zm27.99,30.66v.51h-12.99v-.51h4.48V15.23h-4.48v-.51h8.26l.19,7.62c1.24-3.03,2.86-5.16,4.86-6.4,2.01-1.24,4.05-1.86,6.14-1.86s3.73.36,4.93,1.09c1.2.68,2.03,1.81,2.5,3.39.51,1.54.77,3.63.77,6.27v20.42h4.48v.51h-12.99v-.51h4.48v-21.95c0-2.86-.32-4.97-.96-6.34-.64-1.41-2.01-2.11-4.1-2.11-1.75,0-3.56.66-5.44,1.98-1.88,1.32-3.41,3.56-4.61,6.72v21.7h4.48Zm37.15-15.04c0-5.63,1.11-9.73,3.33-12.29,2.22-2.56,5.31-3.84,9.28-3.84,3.76,0,6.4.92,7.94,2.75,1.54,1.83,2.3,4.25,2.3,7.23,0,.68-.06,1.37-.19,2.05-.13.68-.3,1.3-.51,1.86h-17.66c-.04.26-.06.62-.06,1.09v1.15c0,3.24.28,6.02.83,8.32s1.52,4.07,2.88,5.31c1.41,1.19,3.39,1.79,5.95,1.79,1.62,0,3.03-.38,4.22-1.15,1.24-.81,2.18-1.79,2.82-2.94.64-1.19.96-2.35.96-3.46h.58c0,1.19-.36,2.45-1.09,3.78-.73,1.28-1.79,2.37-3.2,3.26-1.41.85-3.18,1.28-5.31,1.28-4.22,0-7.47-1.26-9.73-3.78-2.22-2.56-3.33-6.7-3.33-12.42Zm12.61-15.62c-2.99,0-5.06,1.13-6.21,3.39-1.15,2.22-1.79,5.38-1.92,9.47h12.42c.9,0,1.49-.28,1.79-.83.34-.55.51-1.32.51-2.3,0-1.83-.13-3.48-.38-4.93-.26-1.49-.85-2.67-1.79-3.52s-2.41-1.28-4.42-1.28Zm37.33,31.17c-1.54,0-2.6-.43-3.2-1.28-.55-.85-.85-2.09-.9-3.71-.64,1.58-1.73,2.92-3.26,4.03-1.54,1.07-3.5,1.6-5.89,1.6-2.64,0-4.67-.53-6.08-1.6-1.41-1.07-2.11-2.56-2.11-4.48,0-2.22.96-4.07,2.88-5.57,1.92-1.49,4.67-2.47,8.26-2.94l6.14-.9v-5.5c0-2.22-.11-4.14-.32-5.76-.21-1.62-.77-2.88-1.66-3.78-.9-.9-2.39-1.34-4.48-1.34-1.79,0-3.16.36-4.1,1.09-.94.68-1.58,1.58-1.92,2.69-.3,1.07-.45,2.18-.45,3.33,0,.81.08,1.6.26,2.37.17.73.56,1.39,1.15,1.98l-.19.19c-1.45-.21-2.6-.75-3.46-1.6-.81-.9-1.22-2.03-1.22-3.39,0-1.07.34-2.13,1.02-3.2.68-1.11,1.75-2.03,3.2-2.75,1.45-.77,3.35-1.15,5.7-1.15,2.65,0,4.74.45,6.27,1.34,1.54.9,2.62,2.24,3.26,4.03s.96,4.05.96,6.78v16.7c0,.64.11,1.19.32,1.66.21.43.7.64,1.47.64h2.75v.51h-4.42Zm-17.09-5.76c0,1.62.36,2.94,1.09,3.97.77.98,2.18,1.47,4.22,1.47,1.84,0,3.39-.49,4.67-1.47,1.28-.98,2.26-2.37,2.94-4.16v-8.38l-6.02.9c-1.79.3-3.2.81-4.22,1.54-.98.73-1.68,1.62-2.11,2.69-.38,1.02-.58,2.18-.58,3.46Zm42.68-25.28h8.51v28.22c0,.64.11,1.19.32,1.66.21.43.72.64,1.54.64h2.69v.51h-4.35c-1.66,0-2.77-.51-3.33-1.54-.55-1.02-.83-2.54-.83-4.54v-1.47c-1.24,2.99-2.82,5.1-4.74,6.34-1.88,1.24-3.86,1.86-5.95,1.86s-3.73-.34-4.93-1.02c-1.2-.73-2.05-1.86-2.56-3.39-.47-1.58-.7-3.69-.7-6.34V15.23h-4.48v-.51h8.51v22.46c0,2.86.32,4.99.96,6.4.64,1.37,2.01,2.05,4.1,2.05,1.75,0,3.5-.66,5.25-1.98,1.79-1.37,3.29-3.61,4.48-6.72V15.23h-4.48v-.51Zm31.47,15.49c0-5.63,1.11-9.73,3.33-12.29,2.22-2.56,5.31-3.84,9.28-3.84,3.76,0,6.4.92,7.94,2.75,1.54,1.83,2.3,4.25,2.3,7.23,0,.68-.06,1.37-.19,2.05s-.3,1.3-.51,1.86h-17.66c-.04.26-.06.62-.06,1.09v1.15c0,3.24.28,6.02.83,8.32s1.52,4.07,2.88,5.31c1.41,1.19,3.39,1.79,5.95,1.79,1.62,0,3.03-.38,4.22-1.15,1.24-.81,2.18-1.79,2.82-2.94.64-1.19.96-2.35.96-3.46h.58c0,1.19-.36,2.45-1.09,3.78-.73,1.28-1.79,2.37-3.2,3.26-1.41.85-3.18,1.28-5.31,1.28-4.22,0-7.47-1.26-9.73-3.78-2.22-2.56-3.33-6.7-3.33-12.42Zm12.61-15.62c-2.99,0-5.06,1.13-6.21,3.39-1.15,2.22-1.79,5.38-1.92,9.47h12.42c.9,0,1.49-.28,1.79-.83.34-.55.51-1.32.51-2.3,0-1.83-.13-3.48-.38-4.93-.26-1.49-.85-2.67-1.79-3.52s-2.41-1.28-4.42-1.28Zm27.99,30.66v.51h-12.99v-.51h4.48V15.23h-4.48v-.51h8.26l.19,7.62c1.24-3.03,2.86-5.16,4.86-6.4,2-1.24,4.05-1.86,6.14-1.86s3.73.36,4.93,1.09c1.2.68,2.03,1.81,2.5,3.39.51,1.54.77,3.63.77,6.27v20.42h4.48v.51h-12.99v-.51h4.48v-21.95c0-2.86-.32-4.97-.96-6.34-.64-1.41-2.01-2.11-4.1-2.11-1.75,0-3.56.66-5.44,1.98s-3.41,3.56-4.61,6.72v21.7h4.48ZM652.85,0h25.66v9.98h-.64c0-1.58-.15-3.09-.45-4.54-.3-1.45-.83-2.62-1.6-3.52-.72-.94-1.75-1.41-3.07-1.41h-10.24v23.04h3.9c1.71,0,3.07-.19,4.1-.58,1.02-.43,2.03-1.02,3.01-1.79v5.25c-1.07-.85-2.09-1.45-3.07-1.79-.98-.38-2.33-.58-4.03-.58h-3.9v21.18h6.14v.51h-15.81v-.51h5.38V.51h-5.38v-.51Zm41.17,45.25v.51h-13.63v-.51h4.48V15.23h-4.48v-.51h7.42l.51,9.28h.13c.38-2.65.96-4.67,1.73-6.08.81-1.45,1.68-2.45,2.62-3.01.98-.55,1.92-.83,2.82-.83,1.41,0,2.41.38,3.01,1.15.64.73.96,1.6.96,2.62s-.23,1.96-.7,2.69c-.47.73-1.07,1.3-1.79,1.73-.73.38-1.43.64-2.11.77l-.19-.13c.34-.55.62-1.17.83-1.86.21-.73.32-1.58.32-2.56,0-.9-.13-1.64-.38-2.24-.26-.64-.62-1.05-1.09-1.22-.51,0-1.15.3-1.92.9-.73.55-1.43,1.56-2.11,3.01-.68,1.41-1.2,3.43-1.54,6.08v20.22h5.12Zm30.28.51c-1.54,0-2.6-.43-3.2-1.28-.55-.85-.85-2.09-.9-3.71-.64,1.58-1.73,2.92-3.26,4.03-1.54,1.07-3.5,1.6-5.89,1.6-2.64,0-4.67-.53-6.08-1.6-1.41-1.07-2.11-2.56-2.11-4.48,0-2.22.96-4.07,2.88-5.57,1.92-1.49,4.67-2.47,8.26-2.94l6.14-.9v-5.5c0-2.22-.11-4.14-.32-5.76-.21-1.62-.77-2.88-1.66-3.78-.9-.9-2.39-1.34-4.48-1.34-1.79,0-3.16.36-4.1,1.09-.94.68-1.58,1.58-1.92,2.69-.3,1.07-.45,2.18-.45,3.33,0,.81.09,1.6.26,2.37.17.73.55,1.39,1.15,1.98l-.19.19c-1.45-.21-2.6-.75-3.46-1.6-.81-.9-1.22-2.03-1.22-3.39,0-1.07.34-2.13,1.02-3.2.68-1.11,1.75-2.03,3.2-2.75,1.45-.77,3.35-1.15,5.7-1.15,2.65,0,4.74.45,6.27,1.34,1.54.9,2.62,2.24,3.26,4.03s.96,4.05.96,6.78v16.7c0,.64.11,1.19.32,1.66.21.43.7.64,1.47.64h2.75v.51h-4.42Zm-17.09-5.76c0,1.62.36,2.94,1.09,3.97.77.98,2.18,1.47,4.22,1.47,1.83,0,3.39-.49,4.67-1.47,1.28-.98,2.26-2.37,2.94-4.16v-8.38l-6.02.9c-1.79.3-3.2.81-4.22,1.54-.98.73-1.68,1.62-2.11,2.69-.38,1.02-.58,2.18-.58,3.46Zm37.49,5.25v.51h-12.99v-.51h4.48V15.23h-4.48v-.51h8.26l.19,7.62c1.24-3.03,2.86-5.16,4.86-6.4,2-1.24,4.05-1.86,6.14-1.86s3.73.36,4.93,1.09c1.2.68,2.03,1.81,2.5,3.39.51,1.54.77,3.63.77,6.27v20.42h4.48v.51h-12.99v-.51h4.48v-21.95c0-2.86-.32-4.97-.96-6.34-.64-1.41-2.01-2.11-4.1-2.11-1.75,0-3.56.66-5.44,1.98s-3.41,3.56-4.61,6.72v21.7h4.48Zm35.76-31.17c2.26,0,4.05.3,5.38.9,1.37.6,2.33,1.39,2.88,2.37.55.98.83,2.05.83,3.2,0,.94-.21,1.79-.64,2.56-.38.77-.92,1.41-1.6,1.92-.64.47-1.34.77-2.11.9l-.19-.19c.47-.68.77-1.43.9-2.24.17-.81.26-1.64.26-2.5,0-.6-.06-1.26-.19-1.98-.13-.73-.38-1.43-.77-2.11-.34-.68-.9-1.24-1.66-1.66s-1.79-.64-3.07-.64c-2.22,0-3.93.64-5.12,1.92-1.2,1.24-2.03,3.05-2.5,5.44-.43,2.39-.64,5.33-.64,8.83,0,3.11.21,5.78.64,8,.43,2.22,1.28,3.9,2.56,5.06,1.32,1.15,3.26,1.73,5.82,1.73,1.66,0,3.09-.38,4.29-1.15,1.19-.81,2.09-1.79,2.69-2.94.64-1.15.96-2.28.96-3.39h.58c0,1.19-.36,2.45-1.09,3.78-.68,1.28-1.73,2.37-3.14,3.26-1.41.85-3.16,1.28-5.25,1.28-4.22,0-7.36-1.22-9.41-3.65-2.05-2.47-3.07-6.46-3.07-11.97s1.09-9.81,3.26-12.54c2.18-2.77,5.31-4.16,9.41-4.16Zm14.14,16.13c0-5.63,1.11-9.73,3.33-12.29,2.22-2.56,5.31-3.84,9.28-3.84,3.76,0,6.4.92,7.94,2.75,1.54,1.83,2.3,4.25,2.3,7.23,0,.68-.06,1.37-.19,2.05s-.3,1.3-.51,1.86h-17.66c-.04.26-.06.62-.06,1.09v1.15c0,3.24.28,6.02.83,8.32s1.52,4.07,2.88,5.31c1.41,1.19,3.39,1.79,5.95,1.79,1.62,0,3.03-.38,4.22-1.15,1.24-.81,2.18-1.79,2.82-2.94.64-1.19.96-2.35.96-3.46h.58c0,1.19-.36,2.45-1.09,3.78-.73,1.28-1.79,2.37-3.2,3.26-1.41.85-3.18,1.28-5.31,1.28-4.22,0-7.47-1.26-9.73-3.78-2.22-2.56-3.33-6.7-3.33-12.42Zm12.61-15.62c-2.99,0-5.06,1.13-6.21,3.39-1.15,2.22-1.79,5.38-1.92,9.47h12.42c.9,0,1.49-.28,1.79-.83.34-.55.51-1.32.51-2.3,0-1.83-.13-3.48-.38-4.93-.26-1.49-.85-2.67-1.79-3.52s-2.41-1.28-4.42-1.28Zm47.79,31.81c-.73,0-1.36-.28-1.92-.83-.51-.55-.77-1.17-.77-1.86,0-.77.26-1.39.77-1.86.56-.51,1.2-.77,1.92-.77s1.34.26,1.86.77c.51.47.77,1.09.77,1.86,0,.68-.26,1.3-.77,1.86-.51.55-1.13.83-1.86.83Zm0-24.19c-.73,0-1.36-.28-1.92-.83-.51-.55-.77-1.17-.77-1.86,0-.77.26-1.39.77-1.86.56-.51,1.2-.77,1.92-.77s1.34.26,1.86.77c.51.47.77,1.09.77,1.86,0,.68-.26,1.3-.77,1.86-.51.55-1.13.83-1.86.83ZM216.91,226.12h13.63v8.16h-.48v-3.22h-13.3l-.82,6.05c3.07.67,5.74,1.58,8.02,2.74,2.3,1.15,4.1,2.62,5.38,4.42,1.28,1.79,1.92,4,1.92,6.62,0,1.98-.48,3.73-1.44,5.23-.93,1.5-2.21,2.67-3.84,3.5-1.6.86-3.41,1.3-5.42,1.3-1.7,0-3.1-.29-4.22-.86-1.12-.58-1.97-1.38-2.54-2.4-.54-1.02-.82-2.18-.82-3.46h.48c0,1.15.26,2.18.77,3.07.51.9,1.22,1.58,2.11,2.06.9.51,1.92.77,3.07.77,1.86,0,3.31-.64,4.37-1.92,1.09-1.28,1.63-2.88,1.63-4.8,0-1.79-.46-3.36-1.39-4.7-.9-1.38-2.16-2.53-3.79-3.46-1.6-.96-3.42-1.7-5.47-2.21l2.16-16.9Zm29.3,26.26v.38h-11.66v-.38h2.69v-23.38h-2.4v-.38c.64,0,1.38-.06,2.21-.19s1.66-.3,2.5-.53,1.57-.48,2.21-.77c.67-.32,1.15-.66,1.44-1.01h.38v26.26h2.64Zm6-26.26h13.63v8.16h-.48v-3.22h-13.3l-.82,6.05c3.07.67,5.74,1.58,8.02,2.74,2.3,1.15,4.1,2.62,5.38,4.42,1.28,1.79,1.92,4,1.92,6.62,0,1.98-.48,3.73-1.44,5.23-.93,1.5-2.21,2.67-3.84,3.5-1.6.86-3.41,1.3-5.42,1.3-1.7,0-3.1-.29-4.22-.86-1.12-.58-1.97-1.38-2.54-2.4-.54-1.02-.82-2.18-.82-3.46h.48c0,1.15.26,2.18.77,3.07.51.9,1.22,1.58,2.11,2.06.9.51,1.92.77,3.07.77,1.86,0,3.31-.64,4.37-1.92,1.09-1.28,1.63-2.88,1.63-4.8,0-1.79-.46-3.36-1.39-4.7-.9-1.38-2.16-2.53-3.79-3.46-1.6-.96-3.42-1.7-5.47-2.21l2.16-16.9Zm50.99,13.25c0,4.48-.94,7.92-2.83,10.32-1.89,2.37-4.8,3.55-8.74,3.55-3.58,0-6.42-1.18-8.5-3.55-2.05-2.4-3.07-5.84-3.07-10.32s1.02-7.84,3.07-10.18c2.08-2.37,4.91-3.55,8.5-3.55,3.94,0,6.85,1.18,8.74,3.55,1.89,2.34,2.83,5.73,2.83,10.18Zm-6.48,0c0-3.14-.14-5.68-.43-7.63-.29-1.98-.8-3.42-1.54-4.32-.7-.93-1.74-1.39-3.12-1.39-1.28,0-2.29.46-3.02,1.39-.74.9-1.26,2.34-1.58,4.32-.29,1.95-.43,4.5-.43,7.63s.14,5.74.43,7.73c.32,1.98.85,3.44,1.58,4.37.74.93,1.74,1.39,3.02,1.39,1.38,0,2.42-.46,3.12-1.39.74-.93,1.25-2.38,1.54-4.37.29-1.98.43-4.56.43-7.73Zm-5.09,2.16l-2.02-2.06,2.02-2.06,2.06,2.06-2.06,2.06Zm37.3-2.16c0,4.48-.94,7.92-2.83,10.32-1.89,2.37-4.8,3.55-8.74,3.55-3.58,0-6.42-1.18-8.5-3.55-2.05-2.4-3.07-5.84-3.07-10.32s1.02-7.84,3.07-10.18c2.08-2.37,4.91-3.55,8.5-3.55,3.94,0,6.85,1.18,8.74,3.55,1.89,2.34,2.83,5.73,2.83,10.18Zm-6.48,0c0-3.14-.14-5.68-.43-7.63-.29-1.98-.8-3.42-1.54-4.32-.7-.93-1.74-1.39-3.12-1.39-1.28,0-2.29.46-3.02,1.39-.74.9-1.26,2.34-1.58,4.32-.29,1.95-.43,4.5-.43,7.63s.14,5.74.43,7.73c.32,1.98.85,3.44,1.58,4.37.74.93,1.74,1.39,3.02,1.39,1.38,0,2.42-.46,3.12-1.39.74-.93,1.25-2.38,1.54-4.37.29-1.98.43-4.56.43-7.73Zm-5.09,2.16l-2.02-2.06,2.02-2.06,2.06,2.06-2.06,2.06Zm37.3-2.16c0,4.48-.94,7.92-2.83,10.32-1.89,2.37-4.8,3.55-8.74,3.55-3.58,0-6.42-1.18-8.5-3.55-2.05-2.4-3.07-5.84-3.07-10.32s1.02-7.84,3.07-10.18c2.08-2.37,4.91-3.55,8.5-3.55,3.94,0,6.85,1.18,8.74,3.55,1.89,2.34,2.83,5.73,2.83,10.18Zm-6.48,0c0-3.14-.14-5.68-.43-7.63-.29-1.98-.8-3.42-1.54-4.32-.7-.93-1.74-1.39-3.12-1.39-1.28,0-2.29.46-3.02,1.39-.74.9-1.26,2.34-1.58,4.32-.29,1.95-.43,4.5-.43,7.63s.14,5.74.43,7.73c.32,1.98.85,3.44,1.58,4.37.74.93,1.74,1.39,3.02,1.39,1.38,0,2.42-.46,3.12-1.39.74-.93,1.25-2.38,1.54-4.37.29-1.98.43-4.56.43-7.73Zm-5.09,2.16l-2.02-2.06,2.02-2.06,2.06,2.06-2.06,2.06Zm47.85-2.16c0,4.48-.94,7.92-2.83,10.32-1.89,2.37-4.8,3.55-8.74,3.55-3.58,0-6.42-1.18-8.5-3.55-2.05-2.4-3.07-5.84-3.07-10.32s1.02-7.84,3.07-10.18c2.08-2.37,4.91-3.55,8.5-3.55,3.94,0,6.85,1.18,8.74,3.55,1.89,2.34,2.83,5.73,2.83,10.18Zm-6.48,0c0-3.14-.14-5.68-.43-7.63-.29-1.98-.8-3.42-1.54-4.32-.7-.93-1.74-1.39-3.12-1.39-1.28,0-2.29.46-3.02,1.39-.74.9-1.26,2.34-1.58,4.32-.29,1.95-.43,4.5-.43,7.63s.14,5.74.43,7.73c.32,1.98.85,3.44,1.58,4.37.74.93,1.74,1.39,3.02,1.39,1.38,0,2.42-.46,3.12-1.39.74-.93,1.25-2.38,1.54-4.37.29-1.98.43-4.56.43-7.73Zm-5.09,2.16l-2.02-2.06,2.02-2.06,2.06,2.06-2.06,2.06Zm37.3-2.16c0,4.48-.94,7.92-2.83,10.32-1.89,2.37-4.8,3.55-8.74,3.55-3.58,0-6.42-1.18-8.5-3.55-2.05-2.4-3.07-5.84-3.07-10.32s1.02-7.84,3.07-10.18c2.08-2.37,4.91-3.55,8.5-3.55,3.94,0,6.85,1.18,8.74,3.55,1.89,2.34,2.83,5.73,2.83,10.18Zm-6.48,0c0-3.14-.14-5.68-.43-7.63-.29-1.98-.8-3.42-1.54-4.32-.7-.93-1.74-1.39-3.12-1.39-1.28,0-2.29.46-3.02,1.39-.74.9-1.26,2.34-1.58,4.32-.29,1.95-.43,4.5-.43,7.63s.14,5.74.43,7.73c.32,1.98.85,3.44,1.58,4.37.74.93,1.74,1.39,3.02,1.39,1.38,0,2.42-.46,3.12-1.39.74-.93,1.25-2.38,1.54-4.37.29-1.98.43-4.56.43-7.73Zm-5.09,2.16l-2.02-2.06,2.02-2.06,2.06,2.06-2.06,2.06Zm37.3-2.16c0,4.48-.94,7.92-2.83,10.32-1.89,2.37-4.8,3.55-8.74,3.55-3.58,0-6.42-1.18-8.5-3.55-2.05-2.4-3.07-5.84-3.07-10.32s1.02-7.84,3.07-10.18c2.08-2.37,4.91-3.55,8.5-3.55,3.94,0,6.85,1.18,8.74,3.55,1.89,2.34,2.83,5.73,2.83,10.18Zm-6.48,0c0-3.14-.14-5.68-.43-7.63-.29-1.98-.8-3.42-1.54-4.32-.7-.93-1.74-1.39-3.12-1.39-1.28,0-2.29.46-3.02,1.39-.74.9-1.26,2.34-1.58,4.32-.29,1.95-.43,4.5-.43,7.63s.14,5.74.43,7.73c.32,1.98.85,3.44,1.58,4.37.74.93,1.74,1.39,3.02,1.39,1.38,0,2.42-.46,3.12-1.39.74-.93,1.25-2.38,1.54-4.37.29-1.98.43-4.56.43-7.73Zm-5.09,2.16l-2.02-2.06,2.02-2.06,2.06,2.06-2.06,2.06Zm47.85-2.16c0,4.48-.94,7.92-2.83,10.32-1.89,2.37-4.8,3.55-8.74,3.55-3.58,0-6.42-1.18-8.5-3.55-2.05-2.4-3.07-5.84-3.07-10.32s1.02-7.84,3.07-10.18c2.08-2.37,4.91-3.55,8.5-3.55,3.94,0,6.85,1.18,8.74,3.55,1.89,2.34,2.83,5.73,2.83,10.18Zm-6.48,0c0-3.14-.14-5.68-.43-7.63-.29-1.98-.8-3.42-1.54-4.32-.7-.93-1.74-1.39-3.12-1.39-1.28,0-2.29.46-3.02,1.39-.74.9-1.26,2.34-1.58,4.32-.29,1.95-.43,4.5-.43,7.63s.14,5.74.43,7.73c.32,1.98.85,3.44,1.58,4.37.74.93,1.74,1.39,3.02,1.39,1.38,0,2.42-.46,3.12-1.39.74-.93,1.25-2.38,1.54-4.37.29-1.98.43-4.56.43-7.73Zm-5.09,2.16l-2.02-2.06,2.02-2.06,2.06,2.06-2.06,2.06Zm37.3-2.16c0,4.48-.94,7.92-2.83,10.32-1.89,2.37-4.8,3.55-8.74,3.55-3.58,0-6.42-1.18-8.5-3.55-2.05-2.4-3.07-5.84-3.07-10.32s1.02-7.84,3.07-10.18c2.08-2.37,4.91-3.55,8.5-3.55,3.94,0,6.85,1.18,8.74,3.55,1.89,2.34,2.83,5.73,2.83,10.18Zm-6.48,0c0-3.14-.14-5.68-.43-7.63-.29-1.98-.8-3.42-1.54-4.32-.7-.93-1.74-1.39-3.12-1.39-1.28,0-2.29.46-3.02,1.39-.74.9-1.26,2.34-1.58,4.32-.29,1.95-.43,4.5-.43,7.63s.14,5.74.43,7.73c.32,1.98.85,3.44,1.58,4.37.74.93,1.74,1.39,3.02,1.39,1.38,0,2.42-.46,3.12-1.39.74-.93,1.25-2.38,1.54-4.37.29-1.98.43-4.56.43-7.73Zm-5.09,2.16l-2.02-2.06,2.02-2.06,2.06,2.06-2.06,2.06Zm37.3-2.16c0,4.48-.94,7.92-2.83,10.32-1.89,2.37-4.8,3.55-8.74,3.55-3.58,0-6.42-1.18-8.5-3.55-2.05-2.4-3.07-5.84-3.07-10.32s1.02-7.84,3.07-10.18c2.08-2.37,4.91-3.55,8.5-3.55,3.94,0,6.85,1.18,8.74,3.55,1.89,2.34,2.83,5.73,2.83,10.18Zm-6.48,0c0-3.14-.14-5.68-.43-7.63-.29-1.98-.8-3.42-1.54-4.32-.7-.93-1.74-1.39-3.12-1.39-1.28,0-2.29.46-3.02,1.39-.74.9-1.26,2.34-1.58,4.32-.29,1.95-.43,4.5-.43,7.63s.14,5.74.43,7.73c.32,1.98.85,3.44,1.58,4.37.74.93,1.74,1.39,3.02,1.39,1.38,0,2.42-.46,3.12-1.39.74-.93,1.25-2.38,1.54-4.37.29-1.98.43-4.56.43-7.73Zm-5.09,2.16l-2.02-2.06,2.02-2.06,2.06,2.06-2.06,2.06Zm47.85-2.16c0,4.48-.94,7.92-2.83,10.32-1.89,2.37-4.8,3.55-8.74,3.55-3.58,0-6.42-1.18-8.5-3.55-2.05-2.4-3.07-5.84-3.07-10.32s1.02-7.84,3.07-10.18c2.08-2.37,4.91-3.55,8.5-3.55,3.94,0,6.85,1.18,8.74,3.55,1.89,2.34,2.83,5.73,2.83,10.18Zm-6.48,0c0-3.14-.14-5.68-.43-7.63-.29-1.98-.8-3.42-1.54-4.32-.7-.93-1.74-1.39-3.12-1.39-1.28,0-2.29.46-3.02,1.39-.74.9-1.26,2.34-1.58,4.32-.29,1.95-.43,4.5-.43,7.63s.14,5.74.43,7.73c.32,1.98.85,3.44,1.58,4.37.74.93,1.74,1.39,3.02,1.39,1.38,0,2.42-.46,3.12-1.39.74-.93,1.25-2.38,1.54-4.37.29-1.98.43-4.56.43-7.73Zm-5.09,2.16l-2.02-2.06,2.02-2.06,2.06,2.06-2.06,2.06Zm37.3-2.16c0,4.48-.94,7.92-2.83,10.32-1.89,2.37-4.8,3.55-8.74,3.55-3.58,0-6.42-1.18-8.5-3.55-2.05-2.4-3.07-5.84-3.07-10.32s1.02-7.84,3.07-10.18c2.08-2.37,4.91-3.55,8.5-3.55,3.94,0,6.85,1.18,8.74,3.55,1.89,2.34,2.83,5.73,2.83,10.18Zm-6.48,0c0-3.14-.14-5.68-.43-7.63-.29-1.98-.8-3.42-1.54-4.32-.7-.93-1.74-1.39-3.12-1.39-1.28,0-2.29.46-3.02,1.39-.74.9-1.26,2.34-1.58,4.32-.29,1.95-.43,4.5-.43,7.63s.14,5.74.43,7.73c.32,1.98.85,3.44,1.58,4.37.74.93,1.74,1.39,3.02,1.39,1.38,0,2.42-.46,3.12-1.39.74-.93,1.25-2.38,1.54-4.37.29-1.98.43-4.56.43-7.73Zm-5.09,2.16l-2.02-2.06,2.02-2.06,2.06,2.06-2.06,2.06Zm37.3-2.16c0,4.48-.94,7.92-2.83,10.32-1.89,2.37-4.8,3.55-8.74,3.55-3.58,0-6.42-1.18-8.5-3.55-2.05-2.4-3.07-5.84-3.07-10.32s1.02-7.84,3.07-10.18c2.08-2.37,4.91-3.55,8.5-3.55,3.94,0,6.85,1.18,8.74,3.55,1.89,2.34,2.83,5.73,2.83,10.18Zm-6.48,0c0-3.14-.14-5.68-.43-7.63-.29-1.98-.8-3.42-1.54-4.32-.7-.93-1.74-1.39-3.12-1.39-1.28,0-2.29.46-3.02,1.39-.74.9-1.26,2.34-1.58,4.32-.29,1.95-.43,4.5-.43,7.63s.14,5.74.43,7.73c.32,1.98.85,3.44,1.58,4.37.74.93,1.74,1.39,3.02,1.39,1.38,0,2.42-.46,3.12-1.39.74-.93,1.25-2.38,1.54-4.37.29-1.98.43-4.56.43-7.73Zm-5.09,2.16l-2.02-2.06,2.02-2.06,2.06,2.06-2.06,2.06Zm45.98,3.02h.48v8.21h-21.74v-.38h3.07v-33.55h-3.07v-.38h12.72v.38h-3.07v33.55h5.14c1.28,0,2.4-.37,3.36-1.1.99-.74,1.76-1.7,2.3-2.88.54-1.22.82-2.5.82-3.84Zm-520.42,34.59v-.38h6.38v33.89c0,.48.08.9.24,1.25.16.32.54.48,1.15.48h2.02v.38h-3.31c-1.18,0-1.98-.35-2.4-1.06s-.64-1.78-.67-3.22c-.7,1.5-1.65,2.67-2.83,3.5-1.15.83-2.58,1.25-4.27,1.25-2.72,0-4.75-.86-6.1-2.59-1.34-1.76-2.02-4.58-2.02-8.45,0-4.67.85-8.03,2.54-10.08,1.73-2.08,4.02-3.12,6.86-3.12,1.41,0,2.58.34,3.5,1.01.93.64,1.68,1.5,2.26,2.59v-15.46h-3.36Zm-8.54,25.06c0,2.43.19,4.43.58,6,.42,1.54,1.02,2.67,1.82,3.41.8.74,1.79,1.1,2.98,1.1,1.47,0,2.74-.42,3.79-1.25s1.97-2.1,2.74-3.79v-14.3c-.58-1.25-1.31-2.21-2.21-2.88-.86-.67-1.95-1.01-3.26-1.01-1.44,0-2.64.46-3.6,1.39-.96.93-1.68,2.34-2.16,4.22-.45,1.86-.67,4.22-.67,7.1Zm21.25-1.1c0-4.22.83-7.3,2.5-9.22s3.98-2.88,6.96-2.88c2.82,0,4.8.69,5.95,2.06,1.15,1.38,1.73,3.18,1.73,5.42,0,.51-.05,1.02-.14,1.54-.1.51-.22.98-.38,1.39h-13.25c-.03.19-.05.46-.05.82v.86c0,2.43.21,4.51.62,6.24.42,1.73,1.14,3.06,2.16,3.98,1.06.9,2.54,1.34,4.46,1.34,1.22,0,2.27-.29,3.17-.86.93-.61,1.63-1.34,2.11-2.21.48-.9.72-1.76.72-2.59h.43c0,.9-.27,1.84-.82,2.83-.54.96-1.34,1.78-2.4,2.45-1.06.64-2.38.96-3.98.96-3.17,0-5.6-.94-7.3-2.83-1.66-1.92-2.5-5.02-2.5-9.31Zm9.46-11.71c-2.24,0-3.79.85-4.66,2.54-.86,1.66-1.34,4.03-1.44,7.1h9.31c.67,0,1.12-.21,1.34-.62.26-.42.38-.99.38-1.73,0-1.38-.1-2.61-.29-3.7-.19-1.12-.64-2-1.34-2.64-.7-.64-1.81-.96-3.31-.96Zm30.63,33.07v.38h-9.6v-.38h3.31v-32.59h-3.36v-.38h6.19l.14,5.28c.48-1.09,1.06-2.06,1.73-2.93.7-.86,1.54-1.55,2.5-2.06.99-.51,2.13-.77,3.41-.77,2.66,0,4.58.88,5.76,2.64,1.22,1.73,1.82,4.53,1.82,8.4,0,4.64-.86,8-2.59,10.08-1.7,2.08-3.97,3.12-6.82,3.12-1.41,0-2.58-.27-3.5-.82-.93-.54-1.7-1.34-2.3-2.4v12.43h3.31Zm-3.31-26.64v13.39c.58,1.25,1.31,2.16,2.21,2.74.9.54,2,.82,3.31.82,1.44,0,2.62-.46,3.55-1.39.96-.93,1.66-2.32,2.11-4.18.48-1.89.72-4.27.72-7.15,0-2.43-.18-4.42-.53-5.95-.32-1.54-.85-2.67-1.58-3.41-.7-.74-1.63-1.1-2.78-1.1-1.66,0-3.06.58-4.18,1.73-1.12,1.15-2.06,2.66-2.83,4.51Zm28.74,16.56v.38h-10.22v-.38h3.36v-22.51h-3.36v-.38h5.57l.38,6.96h.1c.29-1.98.72-3.5,1.3-4.56.61-1.09,1.26-1.84,1.97-2.26.74-.42,1.44-.62,2.11-.62,1.06,0,1.81.29,2.26.86.48.54.72,1.2.72,1.97s-.18,1.47-.53,2.02c-.35.54-.8.98-1.34,1.3-.54.29-1.07.48-1.58.58l-.14-.1c.26-.42.46-.88.62-1.39.16-.54.24-1.18.24-1.92,0-.67-.1-1.23-.29-1.68-.19-.48-.46-.78-.82-.91-.38,0-.86.22-1.44.67-.54.42-1.07,1.17-1.58,2.26-.51,1.06-.9,2.58-1.15,4.56v15.17h3.84Zm6.58-11.28c0-4.22.83-7.3,2.5-9.22s3.98-2.88,6.96-2.88c2.82,0,4.8.69,5.95,2.06,1.15,1.38,1.73,3.18,1.73,5.42,0,.51-.05,1.02-.14,1.54-.1.51-.22.98-.38,1.39h-13.25c-.03.19-.05.46-.05.82v.86c0,2.43.21,4.51.62,6.24s1.14,3.06,2.16,3.98c1.06.9,2.54,1.34,4.46,1.34,1.22,0,2.27-.29,3.17-.86.93-.61,1.63-1.34,2.11-2.21.48-.9.72-1.76.72-2.59h.43c0,.9-.27,1.84-.82,2.83-.54.96-1.34,1.78-2.4,2.45-1.06.64-2.38.96-3.98.96-3.17,0-5.6-.94-7.3-2.83-1.66-1.92-2.5-5.02-2.5-9.31Zm9.46-11.71c-2.24,0-3.79.85-4.66,2.54-.86,1.66-1.34,4.03-1.44,7.1h9.31c.67,0,1.12-.21,1.34-.62.26-.42.38-.99.38-1.73,0-1.38-.1-2.61-.29-3.7-.19-1.12-.64-2-1.34-2.64s-1.81-.96-3.31-.96Zm-.24-3.65l-.29-.24c1.18-1.25,2.24-2.61,3.17-4.08.96-1.5,1.57-2.94,1.82-4.32l2.45,1.01c-.8,1.41-1.82,2.75-3.07,4.03-1.22,1.28-2.58,2.48-4.08,3.6Zm21.66,3.26c1.7,0,3.04.22,4.03.67,1.02.45,1.74,1.04,2.16,1.78.42.74.62,1.54.62,2.4,0,.7-.16,1.34-.48,1.92-.29.58-.69,1.06-1.2,1.44-.48.35-1.01.58-1.58.67l-.14-.14c.35-.51.58-1.07.67-1.68.13-.61.19-1.23.19-1.87,0-.45-.05-.94-.14-1.49-.1-.54-.29-1.07-.58-1.58-.26-.51-.67-.93-1.25-1.25-.58-.32-1.34-.48-2.3-.48-1.66,0-2.94.48-3.84,1.44-.9.93-1.52,2.29-1.87,4.08-.32,1.79-.48,4-.48,6.62,0,2.34.16,4.34.48,6,.32,1.66.96,2.93,1.92,3.79.99.86,2.45,1.3,4.37,1.3,1.25,0,2.32-.29,3.22-.86.9-.61,1.57-1.34,2.02-2.21.48-.86.72-1.71.72-2.54h.43c0,.9-.27,1.84-.82,2.83-.51.96-1.3,1.78-2.35,2.45-1.06.64-2.37.96-3.94.96-3.17,0-5.52-.91-7.06-2.74-1.54-1.86-2.3-4.85-2.3-8.98s.82-7.36,2.45-9.41c1.63-2.08,3.98-3.12,7.06-3.12Zm15.25-5.62c-.54,0-1.01-.19-1.39-.58-.35-.42-.53-.88-.53-1.39s.18-.96.53-1.34c.38-.38.85-.58,1.39-.58s.99.19,1.34.58c.38.38.58.83.58,1.34s-.19.98-.58,1.39c-.35.38-.8.58-1.34.58Zm4.9,28.99v.38h-9.74v-.38h3.36v-22.51h-3.36v-.38h6.38v22.9h3.36Zm11.6,10.08v.38h-9.6v-.38h3.31v-32.59h-3.36v-.38h6.19l.14,5.28c.48-1.09,1.06-2.06,1.73-2.93.7-.86,1.54-1.55,2.5-2.06.99-.51,2.13-.77,3.41-.77,2.66,0,4.58.88,5.76,2.64,1.22,1.73,1.82,4.53,1.82,8.4,0,4.64-.86,8-2.59,10.08-1.7,2.08-3.97,3.12-6.82,3.12-1.41,0-2.58-.27-3.5-.82-.93-.54-1.7-1.34-2.3-2.4v12.43h3.31Zm-3.31-26.64v13.39c.58,1.25,1.31,2.16,2.21,2.74.9.54,2,.82,3.31.82,1.44,0,2.62-.46,3.55-1.39.96-.93,1.66-2.32,2.11-4.18.48-1.89.72-4.27.72-7.15,0-2.43-.18-4.42-.53-5.95-.32-1.54-.85-2.67-1.58-3.41-.7-.74-1.63-1.1-2.78-1.1-1.66,0-3.06.58-4.18,1.73-1.12,1.15-2.06,2.66-2.83,4.51Zm23.66-12.43c-.54,0-1.01-.19-1.39-.58-.35-.42-.53-.88-.53-1.39s.18-.96.53-1.34c.38-.38.85-.58,1.39-.58s.99.19,1.34.58c.38.38.58.83.58,1.34s-.19.98-.58,1.39c-.35.38-.8.58-1.34.58Zm4.9,28.99v.38h-9.74v-.38h3.36v-22.51h-3.36v-.38h6.38v22.9h3.36Zm2.72-22.51v-.38h1.1c1.34,0,2.4-.42,3.17-1.25.77-.83,1.34-2.35,1.73-4.56h.48v5.81h4.7v.38h-4.7v18.62c0,1.25.19,2.26.58,3.02.38.74,1.09,1.1,2.11,1.1.51,0,.94-.1,1.3-.29.35-.22.62-.54.82-.96l.29.14c-.29.58-.74,1.01-1.34,1.3-.58.29-1.33.43-2.26.43-.86,0-1.65-.16-2.35-.48-.67-.29-1.2-.77-1.58-1.44-.35-.67-.53-1.57-.53-2.69v-18.77h-3.5Zm30.81,22.9c-1.15,0-1.95-.32-2.4-.96-.42-.64-.64-1.57-.67-2.78-.48,1.18-1.3,2.19-2.45,3.02-1.15.8-2.62,1.2-4.42,1.2-1.98,0-3.5-.4-4.56-1.2s-1.58-1.92-1.58-3.36c0-1.66.72-3.06,2.16-4.18,1.44-1.12,3.5-1.86,6.19-2.21l4.61-.67v-4.13c0-1.66-.08-3.1-.24-4.32s-.58-2.16-1.25-2.83c-.67-.67-1.79-1.01-3.36-1.01-1.34,0-2.37.27-3.07.82-.7.51-1.18,1.18-1.44,2.02-.22.8-.34,1.63-.34,2.5,0,.61.06,1.2.19,1.78.13.54.42,1.04.86,1.49l-.14.14c-1.09-.16-1.95-.56-2.59-1.2-.61-.67-.91-1.52-.91-2.54,0-.8.26-1.6.77-2.4.51-.83,1.31-1.52,2.4-2.06,1.09-.58,2.51-.86,4.27-.86,1.98,0,3.55.34,4.7,1.01,1.15.67,1.97,1.68,2.45,3.02.48,1.34.72,3.04.72,5.09v12.53c0,.48.08.9.24,1.25.16.32.53.48,1.1.48h2.06v.38h-3.31Zm-12.82-4.32c0,1.22.27,2.21.82,2.98.58.74,1.63,1.1,3.17,1.1,1.38,0,2.54-.37,3.5-1.1.96-.74,1.7-1.78,2.21-3.12v-6.29l-4.51.67c-1.34.22-2.4.61-3.17,1.15-.74.54-1.26,1.22-1.58,2.02-.29.77-.43,1.63-.43,2.59Zm17.77-18.58v-.38h1.1c1.34,0,2.4-.42,3.17-1.25s1.34-2.35,1.73-4.56h.48v5.81h4.7v.38h-4.7v18.62c0,1.25.19,2.26.58,3.02.38.74,1.09,1.1,2.11,1.1.51,0,.94-.1,1.3-.29.35-.22.62-.54.82-.96l.29.14c-.29.58-.74,1.01-1.34,1.3-.58.29-1.33.43-2.26.43-.86,0-1.65-.16-2.35-.48-.67-.29-1.2-.77-1.58-1.44-.35-.67-.53-1.57-.53-2.69v-18.77h-3.5Zm19.61-6.48c-.54,0-1.01-.19-1.39-.58-.35-.42-.53-.88-.53-1.39s.18-.96.53-1.34c.38-.38.85-.58,1.39-.58s.99.19,1.34.58c.38.38.58.83.58,1.34s-.19.98-.58,1.39c-.35.38-.8.58-1.34.58Zm4.9,28.99v.38h-9.74v-.38h3.36v-22.51h-3.36v-.38h6.38v22.9h3.36Zm22.45-11.33c0,8.13-3.17,12.19-9.5,12.19s-9.5-4.06-9.5-12.19,3.17-12.05,9.5-12.05,9.5,4.02,9.5,12.05Zm-3.31,0c0-2.72-.21-4.93-.62-6.62-.38-1.73-1.02-2.99-1.92-3.79-.9-.83-2.11-1.25-3.65-1.25s-2.66.42-3.55,1.25c-.9.8-1.57,2.06-2.02,3.79-.42,1.7-.62,3.9-.62,6.62s.21,4.99.62,6.72c.45,1.73,1.12,3.01,2.02,3.84.9.83,2.08,1.25,3.55,1.25s2.75-.42,3.65-1.25c.9-.83,1.54-2.11,1.92-3.84.42-1.73.62-3.97.62-6.72Zm16.53,11.33v.38h-9.74v-.38h3.36v-22.51h-3.36v-.38h6.19l.14,5.71c.93-2.27,2.14-3.87,3.65-4.8,1.5-.93,3.04-1.39,4.61-1.39s2.8.27,3.7.82c.9.51,1.52,1.36,1.87,2.54.38,1.15.58,2.72.58,4.7v15.31h3.36v.38h-9.74v-.38h3.36v-16.46c0-2.14-.24-3.73-.72-4.75-.48-1.06-1.5-1.58-3.07-1.58-1.31,0-2.67.5-4.08,1.49-1.41.99-2.56,2.67-3.46,5.04v16.27h3.36Zm36.02,10.08v.38h-9.6v-.38h3.31v-32.59h-3.36v-.38h6.19l.14,5.28c.48-1.09,1.06-2.06,1.73-2.93.7-.86,1.54-1.55,2.5-2.06.99-.51,2.13-.77,3.41-.77,2.66,0,4.58.88,5.76,2.64,1.22,1.73,1.82,4.53,1.82,8.4,0,4.64-.86,8-2.59,10.08-1.7,2.08-3.97,3.12-6.82,3.12-1.41,0-2.58-.27-3.5-.82-.93-.54-1.7-1.34-2.3-2.4v12.43h3.31Zm-3.31-26.64v13.39c.58,1.25,1.31,2.16,2.21,2.74.9.54,2,.82,3.31.82,1.44,0,2.62-.46,3.55-1.39.96-.93,1.66-2.32,2.11-4.18.48-1.89.72-4.27.72-7.15,0-2.43-.18-4.42-.53-5.95-.32-1.54-.85-2.67-1.58-3.41-.7-.74-1.63-1.1-2.78-1.1-1.66,0-3.06.58-4.18,1.73-1.12,1.15-2.06,2.66-2.83,4.51Zm35.56,16.94c-1.15,0-1.95-.32-2.4-.96-.42-.64-.64-1.57-.67-2.78-.48,1.18-1.3,2.19-2.45,3.02-1.15.8-2.62,1.2-4.42,1.2-1.98,0-3.5-.4-4.56-1.2s-1.58-1.92-1.58-3.36c0-1.66.72-3.06,2.16-4.18,1.44-1.12,3.5-1.86,6.19-2.21l4.61-.67v-4.13c0-1.66-.08-3.1-.24-4.32s-.58-2.16-1.25-2.83-1.79-1.01-3.36-1.01c-1.34,0-2.37.27-3.07.82-.7.51-1.18,1.18-1.44,2.02-.22.8-.34,1.63-.34,2.5,0,.61.06,1.2.19,1.78.13.54.42,1.04.86,1.49l-.14.14c-1.09-.16-1.95-.56-2.59-1.2-.61-.67-.91-1.52-.91-2.54,0-.8.26-1.6.77-2.4.51-.83,1.31-1.52,2.4-2.06,1.09-.58,2.51-.86,4.27-.86,1.98,0,3.55.34,4.7,1.01,1.15.67,1.97,1.68,2.45,3.02.48,1.34.72,3.04.72,5.09v12.53c0,.48.08.9.24,1.25.16.32.53.48,1.1.48h2.06v.38h-3.31Zm-12.82-4.32c0,1.22.27,2.21.82,2.98.58.74,1.63,1.1,3.17,1.1,1.38,0,2.54-.37,3.5-1.1.96-.74,1.7-1.78,2.21-3.12v-6.29l-4.51.67c-1.34.22-2.4.61-3.17,1.15-.74.54-1.26,1.22-1.58,2.02-.29.77-.43,1.63-.43,2.59Zm28.31,3.94v.38h-10.22v-.38h3.36v-22.51h-3.36v-.38h5.57l.38,6.96h.1c.29-1.98.72-3.5,1.3-4.56.61-1.09,1.26-1.84,1.97-2.26.74-.42,1.44-.62,2.11-.62,1.06,0,1.81.29,2.26.86.48.54.72,1.2.72,1.97s-.18,1.47-.53,2.02c-.35.54-.8.98-1.34,1.3-.54.29-1.07.48-1.58.58l-.14-.1c.26-.42.46-.88.62-1.39.16-.54.24-1.18.24-1.92,0-.67-.1-1.23-.29-1.68-.19-.48-.46-.78-.82-.91-.38,0-.86.22-1.44.67-.54.42-1.07,1.17-1.58,2.26-.51,1.06-.9,2.58-1.15,4.56v15.17h3.84Zm34.47.38c-1.15,0-1.95-.32-2.4-.96-.42-.64-.64-1.57-.67-2.78-.48,1.18-1.3,2.19-2.45,3.02-1.15.8-2.62,1.2-4.42,1.2-1.98,0-3.5-.4-4.56-1.2s-1.58-1.92-1.58-3.36c0-1.66.72-3.06,2.16-4.18,1.44-1.12,3.5-1.86,6.19-2.21l4.61-.67v-4.13c0-1.66-.08-3.1-.24-4.32s-.58-2.16-1.25-2.83-1.79-1.01-3.36-1.01c-1.34,0-2.37.27-3.07.82-.7.51-1.18,1.18-1.44,2.02-.22.8-.34,1.63-.34,2.5,0,.61.06,1.2.19,1.78.13.54.42,1.04.86,1.49l-.14.14c-1.09-.16-1.95-.56-2.59-1.2-.61-.67-.91-1.52-.91-2.54,0-.8.26-1.6.77-2.4.51-.83,1.31-1.52,2.4-2.06,1.09-.58,2.51-.86,4.27-.86,1.98,0,3.55.34,4.7,1.01,1.15.67,1.97,1.68,2.45,3.02.48,1.34.72,3.04.72,5.09v12.53c0,.48.08.9.24,1.25.16.32.53.48,1.1.48h2.06v.38h-3.31Zm-12.82-4.32c0,1.22.27,2.21.82,2.98.58.74,1.63,1.1,3.17,1.1,1.38,0,2.54-.37,3.5-1.1.96-.74,1.7-1.78,2.21-3.12v-6.29l-4.51.67c-1.34.22-2.4.61-3.17,1.15-.74.54-1.26,1.22-1.58,2.02-.29.77-.43,1.63-.43,2.59Zm28.12,3.94v.38h-9.74v-.38h3.36v-22.51h-3.36v-.38h6.19l.14,5.71c.93-2.27,2.14-3.87,3.65-4.8,1.5-.93,3.04-1.39,4.61-1.39s2.8.27,3.7.82c.9.51,1.52,1.36,1.87,2.54.38,1.15.58,2.72.58,4.7v15.31h3.36v.38h-9.74v-.38h3.36v-16.46c0-2.14-.24-3.73-.72-4.75-.48-1.06-1.5-1.58-3.07-1.58-1.31,0-2.67.5-4.08,1.49-1.41.99-2.56,2.67-3.46,5.04v16.27h3.36Zm27.87-11.28c0-4.22.83-7.3,2.5-9.22s3.98-2.88,6.96-2.88c2.82,0,4.8.69,5.95,2.06,1.15,1.38,1.73,3.18,1.73,5.42,0,.51-.05,1.02-.14,1.54-.1.51-.22.98-.38,1.39h-13.25c-.03.19-.05.46-.05.82v.86c0,2.43.21,4.51.62,6.24s1.14,3.06,2.16,3.98c1.06.9,2.54,1.34,4.46,1.34,1.22,0,2.27-.29,3.17-.86.93-.61,1.63-1.34,2.11-2.21.48-.9.72-1.76.72-2.59h.43c0,.9-.27,1.84-.82,2.83-.54.96-1.34,1.78-2.4,2.45-1.06.64-2.38.96-3.98.96-3.17,0-5.6-.94-7.3-2.83-1.66-1.92-2.5-5.02-2.5-9.31Zm9.46-11.71c-2.24,0-3.79.85-4.66,2.54-.86,1.66-1.34,4.03-1.44,7.1h9.31c.67,0,1.12-.21,1.34-.62.26-.42.38-.99.38-1.73,0-1.38-.1-2.61-.29-3.7-.19-1.12-.64-2-1.34-2.64-.7-.64-1.81-.96-3.31-.96Zm20.99,22.99v.38h-9.74v-.38h3.36v-22.51h-3.36v-.38h6.19l.14,5.71c.93-2.27,2.14-3.87,3.65-4.8,1.5-.93,3.04-1.39,4.61-1.39s2.8.27,3.7.82c.9.51,1.52,1.36,1.87,2.54.38,1.15.58,2.72.58,4.7v15.31h3.36v.38h-9.74v-.38h3.36v-16.46c0-2.14-.24-3.73-.72-4.75-.48-1.06-1.5-1.58-3.07-1.58-1.31,0-2.67.5-4.08,1.49s-2.56,2.67-3.46,5.04v16.27h3.36Zm27.58-33.94h19.25v7.49h-.48c0-1.18-.11-2.32-.34-3.41-.22-1.09-.62-1.97-1.2-2.64-.54-.7-1.31-1.06-2.3-1.06h-7.68v17.28h2.93c1.28,0,2.3-.14,3.07-.43.77-.32,1.52-.77,2.26-1.34v3.94c-.8-.64-1.57-1.09-2.3-1.34-.74-.29-1.74-.43-3.02-.43h-2.93v15.89h4.61v.38h-11.86v-.38h4.03v-33.55h-4.03v-.38Zm30.88,33.94v.38h-10.22v-.38h3.36v-22.51h-3.36v-.38h5.57l.38,6.96h.1c.29-1.98.72-3.5,1.3-4.56.61-1.09,1.26-1.84,1.97-2.26.74-.42,1.44-.62,2.11-.62,1.06,0,1.81.29,2.26.86.48.54.72,1.2.72,1.97s-.18,1.47-.53,2.02c-.35.54-.8.98-1.34,1.3-.54.29-1.07.48-1.58.58l-.14-.1c.26-.42.46-.88.62-1.39.16-.54.24-1.18.24-1.92,0-.67-.1-1.23-.29-1.68-.19-.48-.46-.78-.82-.91-.38,0-.86.22-1.44.67-.54.42-1.07,1.17-1.58,2.26-.51,1.06-.9,2.58-1.15,4.56v15.17h3.84Zm22.71.38c-1.15,0-1.95-.32-2.4-.96-.42-.64-.64-1.57-.67-2.78-.48,1.18-1.3,2.19-2.45,3.02-1.15.8-2.62,1.2-4.42,1.2-1.98,0-3.5-.4-4.56-1.2-1.06-.8-1.58-1.92-1.58-3.36,0-1.66.72-3.06,2.16-4.18,1.44-1.12,3.5-1.86,6.19-2.21l4.61-.67v-4.13c0-1.66-.08-3.1-.24-4.32-.16-1.22-.58-2.16-1.25-2.83s-1.79-1.01-3.36-1.01c-1.34,0-2.37.27-3.07.82-.7.51-1.18,1.18-1.44,2.02-.22.8-.34,1.63-.34,2.5,0,.61.06,1.2.19,1.78.13.54.42,1.04.86,1.49l-.14.14c-1.09-.16-1.95-.56-2.59-1.2-.61-.67-.91-1.52-.91-2.54,0-.8.26-1.6.77-2.4.51-.83,1.31-1.52,2.4-2.06,1.09-.58,2.51-.86,4.27-.86,1.98,0,3.55.34,4.7,1.01,1.15.67,1.97,1.68,2.45,3.02.48,1.34.72,3.04.72,5.09v12.53c0,.48.08.9.24,1.25.16.32.53.48,1.1.48h2.06v.38h-3.31Zm-12.82-4.32c0,1.22.27,2.21.82,2.98.58.74,1.63,1.1,3.17,1.1,1.38,0,2.54-.37,3.5-1.1.96-.74,1.7-1.78,2.21-3.12v-6.29l-4.51.67c-1.34.22-2.4.61-3.17,1.15-.74.54-1.26,1.22-1.58,2.02-.29.77-.43,1.63-.43,2.59Zm28.12,3.94v.38h-9.74v-.38h3.36v-22.51h-3.36v-.38h6.19l.14,5.71c.93-2.27,2.14-3.87,3.65-4.8,1.5-.93,3.04-1.39,4.61-1.39s2.8.27,3.7.82c.9.51,1.52,1.36,1.87,2.54.38,1.15.58,2.72.58,4.7v15.31h3.36v.38h-9.74v-.38h3.36v-16.46c0-2.14-.24-3.73-.72-4.75-.48-1.06-1.5-1.58-3.07-1.58-1.31,0-2.67.5-4.08,1.49s-2.56,2.67-3.46,5.04v16.27h3.36Zm26.82-23.38c1.7,0,3.04.22,4.03.67,1.02.45,1.74,1.04,2.16,1.78.42.74.62,1.54.62,2.4,0,.7-.16,1.34-.48,1.92-.29.58-.69,1.06-1.2,1.44-.48.35-1.01.58-1.58.67l-.14-.14c.35-.51.58-1.07.67-1.68.13-.61.19-1.23.19-1.87,0-.45-.05-.94-.14-1.49-.1-.54-.29-1.07-.58-1.58-.26-.51-.67-.93-1.25-1.25-.58-.32-1.34-.48-2.3-.48-1.66,0-2.94.48-3.84,1.44-.9.93-1.52,2.29-1.87,4.08-.32,1.79-.48,4-.48,6.62,0,2.34.16,4.34.48,6s.96,2.93,1.92,3.79c.99.86,2.45,1.3,4.37,1.3,1.25,0,2.32-.29,3.22-.86.9-.61,1.57-1.34,2.02-2.21.48-.86.72-1.71.72-2.54h.43c0,.9-.27,1.84-.82,2.83-.51.96-1.3,1.78-2.35,2.45-1.06.64-2.37.96-3.94.96-3.17,0-5.52-.91-7.06-2.74-1.54-1.86-2.3-4.85-2.3-8.98s.82-7.36,2.45-9.41c1.63-2.08,3.98-3.12,7.06-3.12Zm10.61,12.1c0-4.22.83-7.3,2.5-9.22s3.98-2.88,6.96-2.88c2.82,0,4.8.69,5.95,2.06,1.15,1.38,1.73,3.18,1.73,5.42,0,.51-.05,1.02-.14,1.54-.1.51-.22.98-.38,1.39h-13.25c-.03.19-.05.46-.05.82v.86c0,2.43.21,4.51.62,6.24s1.14,3.06,2.16,3.98c1.06.9,2.54,1.34,4.46,1.34,1.22,0,2.27-.29,3.17-.86.93-.61,1.63-1.34,2.11-2.21.48-.9.72-1.76.72-2.59h.43c0,.9-.27,1.84-.82,2.83-.54.96-1.34,1.78-2.4,2.45-1.06.64-2.38.96-3.98.96-3.17,0-5.6-.94-7.3-2.83-1.66-1.92-2.5-5.02-2.5-9.31Zm9.46-11.71c-2.24,0-3.79.85-4.66,2.54-.86,1.66-1.34,4.03-1.44,7.1h9.31c.67,0,1.12-.21,1.34-.62.26-.42.38-.99.38-1.73,0-1.38-.1-2.61-.29-3.7-.19-1.12-.64-2-1.34-2.64-.7-.64-1.81-.96-3.31-.96Z"/><path d="m202.7,390.31c0,2.21-.51,4.1-1.54,5.66-.99,1.6-2.4,2.82-4.22,3.65-1.82.86-3.98,1.3-6.48,1.3-1.7,0-3.14-.27-4.32-.82s-2.06-1.3-2.64-2.26c-.58-.93-.86-1.98-.86-3.17h.48c0,1.09.27,2.05.82,2.88.54.86,1.25,1.54,2.11,2.02.86.48,1.82.72,2.88.72,1.66,0,3.01-.37,4.03-1.1,1.02-.7,1.78-1.7,2.26-2.98.48-1.25.72-2.72.72-4.42,0-2.43-.56-4.38-1.68-5.86-1.12-1.5-2.61-2.26-4.46-2.26-.35,0-.69.02-1.01.05-.29.03-.58.1-.86.19l-.67.19-.14-.38,1.2-.43c1.34-.38,2.48-.99,3.41-1.82.93-.83,1.63-1.9,2.11-3.22.51-1.34.77-2.98.77-4.9,0-2.69-.24-4.58-.72-5.66-.45-1.09-1.36-1.63-2.74-1.63-.93,0-1.65.27-2.16.82-.51.54-.88,1.26-1.1,2.16-.22.86-.34,1.81-.34,2.83,0,1.22.1,2.29.29,3.22.22.9.62,1.57,1.2,2.02l-.05.19c-1.47-.38-2.62-.86-3.46-1.44-.8-.61-1.38-1.26-1.73-1.97-.32-.74-.48-1.46-.48-2.16,0-1.82.77-3.3,2.3-4.42,1.57-1.12,3.6-1.68,6.1-1.68,2.91,0,5.18.59,6.82,1.78,1.63,1.18,2.45,3.01,2.45,5.47,0,1.47-.34,2.77-1.01,3.89-.67,1.09-1.5,1.98-2.5,2.69-.96.67-1.95,1.14-2.98,1.39,1.73.16,3.2.7,4.42,1.63s2.14,2.08,2.78,3.46c.67,1.38,1.01,2.83,1.01,4.37Zm14.28,2.06v.38h-11.66v-.38h2.69v-23.38h-2.4v-.38c.64,0,1.38-.06,2.21-.19s1.66-.3,2.5-.53c.83-.22,1.57-.48,2.21-.77.67-.32,1.15-.66,1.44-1.01h.38v26.26h2.64Zm22.95-1.39h-2.83v9.46h-6v-9.46h-12.14v-.77l17.28-24.48h.86v22.56h2.83v2.69Zm-8.83-2.69v-14.59l-10.08,14.59h10.08Zm45.03-8.93c0,4.48-.94,7.92-2.83,10.32-1.89,2.37-4.8,3.55-8.74,3.55-3.58,0-6.42-1.18-8.5-3.55-2.05-2.4-3.07-5.84-3.07-10.32s1.02-7.84,3.07-10.18c2.08-2.37,4.91-3.55,8.5-3.55,3.94,0,6.85,1.18,8.74,3.55,1.89,2.34,2.83,5.73,2.83,10.18Zm-6.48,0c0-3.14-.14-5.68-.43-7.63-.29-1.98-.8-3.42-1.54-4.32-.7-.93-1.74-1.39-3.12-1.39-1.28,0-2.29.46-3.02,1.39-.74.9-1.26,2.34-1.58,4.32-.29,1.95-.43,4.5-.43,7.63s.14,5.74.43,7.73c.32,1.98.85,3.44,1.58,4.37.74.93,1.74,1.39,3.02,1.39,1.38,0,2.42-.46,3.12-1.39.74-.93,1.25-2.38,1.54-4.37.29-1.98.43-4.56.43-7.73Zm-5.09,2.16l-2.02-2.06,2.02-2.06,2.06,2.06-2.06,2.06Zm37.3-2.16c0,4.48-.94,7.92-2.83,10.32-1.89,2.37-4.8,3.55-8.74,3.55-3.58,0-6.42-1.18-8.5-3.55-2.05-2.4-3.07-5.84-3.07-10.32s1.02-7.84,3.07-10.18c2.08-2.37,4.91-3.55,8.5-3.55,3.94,0,6.85,1.18,8.74,3.55,1.89,2.34,2.83,5.73,2.83,10.18Zm-6.48,0c0-3.14-.14-5.68-.43-7.63-.29-1.98-.8-3.42-1.54-4.32-.7-.93-1.74-1.39-3.12-1.39-1.28,0-2.29.46-3.02,1.39-.74.9-1.26,2.34-1.58,4.32-.29,1.95-.43,4.5-.43,7.63s.14,5.74.43,7.73c.32,1.98.85,3.44,1.58,4.37.74.93,1.74,1.39,3.02,1.39,1.38,0,2.42-.46,3.12-1.39.74-.93,1.25-2.38,1.54-4.37s.43-4.56.43-7.73Zm-5.09,2.16l-2.02-2.06,2.02-2.06,2.06,2.06-2.06,2.06Zm37.3-2.16c0,4.48-.94,7.92-2.83,10.32-1.89,2.37-4.8,3.55-8.74,3.55-3.58,0-6.42-1.18-8.5-3.55-2.05-2.4-3.07-5.84-3.07-10.32s1.02-7.84,3.07-10.18c2.08-2.37,4.91-3.55,8.5-3.55,3.94,0,6.85,1.18,8.74,3.55,1.89,2.34,2.83,5.73,2.83,10.18Zm-6.48,0c0-3.14-.14-5.68-.43-7.63-.29-1.98-.8-3.42-1.54-4.32-.7-.93-1.74-1.39-3.12-1.39-1.28,0-2.29.46-3.02,1.39-.74.9-1.26,2.34-1.58,4.32-.29,1.95-.43,4.5-.43,7.63s.14,5.74.43,7.73c.32,1.98.85,3.44,1.58,4.37.74.93,1.74,1.39,3.02,1.39,1.38,0,2.42-.46,3.12-1.39.74-.93,1.25-2.38,1.54-4.37.29-1.98.43-4.56.43-7.73Zm-5.09,2.16l-2.02-2.06,2.02-2.06,2.06,2.06-2.06,2.06Zm47.85-2.16c0,4.48-.94,7.92-2.83,10.32-1.89,2.37-4.8,3.55-8.74,3.55-3.58,0-6.42-1.18-8.5-3.55-2.05-2.4-3.07-5.84-3.07-10.32s1.02-7.84,3.07-10.18c2.08-2.37,4.91-3.55,8.5-3.55,3.94,0,6.85,1.18,8.74,3.55,1.89,2.34,2.83,5.73,2.83,10.18Zm-6.48,0c0-3.14-.14-5.68-.43-7.63-.29-1.98-.8-3.42-1.54-4.32-.7-.93-1.74-1.39-3.12-1.39-1.28,0-2.29.46-3.02,1.39-.74.9-1.26,2.34-1.58,4.32-.29,1.95-.43,4.5-.43,7.63s.14,5.74.43,7.73c.32,1.98.85,3.44,1.58,4.37.74.93,1.74,1.39,3.02,1.39,1.38,0,2.42-.46,3.12-1.39.74-.93,1.25-2.38,1.54-4.37.29-1.98.43-4.56.43-7.73Zm-5.09,2.16l-2.02-2.06,2.02-2.06,2.06,2.06-2.06,2.06Zm37.3-2.16c0,4.48-.94,7.92-2.83,10.32-1.89,2.37-4.8,3.55-8.74,3.55-3.58,0-6.42-1.18-8.5-3.55-2.05-2.4-3.07-5.84-3.07-10.32s1.02-7.84,3.07-10.18c2.08-2.37,4.91-3.55,8.5-3.55,3.94,0,6.85,1.18,8.74,3.55,1.89,2.34,2.83,5.73,2.83,10.18Zm-6.48,0c0-3.14-.14-5.68-.43-7.63-.29-1.98-.8-3.42-1.54-4.32-.7-.93-1.74-1.39-3.12-1.39-1.28,0-2.29.46-3.02,1.39-.74.9-1.26,2.34-1.58,4.32-.29,1.95-.43,4.5-.43,7.63s.14,5.74.43,7.73c.32,1.98.85,3.44,1.58,4.37.74.93,1.74,1.39,3.02,1.39,1.38,0,2.42-.46,3.12-1.39.74-.93,1.25-2.38,1.54-4.37s.43-4.56.43-7.73Zm-5.09,2.16l-2.02-2.06,2.02-2.06,2.06,2.06-2.06,2.06Zm37.3-2.16c0,4.48-.94,7.92-2.83,10.32-1.89,2.37-4.8,3.55-8.74,3.55-3.58,0-6.42-1.18-8.5-3.55-2.05-2.4-3.07-5.84-3.07-10.32s1.02-7.84,3.07-10.18c2.08-2.37,4.91-3.55,8.5-3.55,3.94,0,6.85,1.18,8.74,3.55,1.89,2.34,2.83,5.73,2.83,10.18Zm-6.48,0c0-3.14-.14-5.68-.43-7.63-.29-1.98-.8-3.42-1.54-4.32-.7-.93-1.74-1.39-3.12-1.39-1.28,0-2.29.46-3.02,1.39-.74.9-1.26,2.34-1.58,4.32-.29,1.95-.43,4.5-.43,7.63s.14,5.74.43,7.73c.32,1.98.85,3.44,1.58,4.37.74.93,1.74,1.39,3.02,1.39,1.38,0,2.42-.46,3.12-1.39.74-.93,1.25-2.38,1.54-4.37.29-1.98.43-4.56.43-7.73Zm-5.09,2.16l-2.02-2.06,2.02-2.06,2.06,2.06-2.06,2.06Zm47.85-2.16c0,4.48-.94,7.92-2.83,10.32-1.89,2.37-4.8,3.55-8.74,3.55-3.58,0-6.42-1.18-8.5-3.55-2.05-2.4-3.07-5.84-3.07-10.32s1.02-7.84,3.07-10.18c2.08-2.37,4.91-3.55,8.5-3.55,3.94,0,6.85,1.18,8.74,3.55,1.89,2.34,2.83,5.73,2.83,10.18Zm-6.48,0c0-3.14-.14-5.68-.43-7.63-.29-1.98-.8-3.42-1.54-4.32-.7-.93-1.74-1.39-3.12-1.39-1.28,0-2.29.46-3.02,1.39-.74.9-1.26,2.34-1.58,4.32-.29,1.95-.43,4.5-.43,7.63s.14,5.74.43,7.73c.32,1.98.85,3.44,1.58,4.37.74.93,1.74,1.39,3.02,1.39,1.38,0,2.42-.46,3.12-1.39.74-.93,1.25-2.38,1.54-4.37.29-1.98.43-4.56.43-7.73Zm-5.09,2.16l-2.02-2.06,2.02-2.06,2.06,2.06-2.06,2.06Zm37.3-2.16c0,4.48-.94,7.92-2.83,10.32-1.89,2.37-4.8,3.55-8.74,3.55-3.58,0-6.42-1.18-8.5-3.55-2.05-2.4-3.07-5.84-3.07-10.32s1.02-7.84,3.07-10.18c2.08-2.37,4.91-3.55,8.5-3.55,3.94,0,6.85,1.18,8.74,3.55,1.89,2.34,2.83,5.73,2.83,10.18Zm-6.48,0c0-3.14-.14-5.68-.43-7.63-.29-1.98-.8-3.42-1.54-4.32-.7-.93-1.74-1.39-3.12-1.39-1.28,0-2.29.46-3.02,1.39-.74.9-1.26,2.34-1.58,4.32-.29,1.95-.43,4.5-.43,7.63s.14,5.74.43,7.73c.32,1.98.85,3.44,1.58,4.37.74.93,1.74,1.39,3.02,1.39,1.38,0,2.42-.46,3.12-1.39.74-.93,1.25-2.38,1.54-4.37s.43-4.56.43-7.73Zm-5.09,2.16l-2.02-2.06,2.02-2.06,2.06,2.06-2.06,2.06Zm37.3-2.16c0,4.48-.94,7.92-2.83,10.32-1.89,2.37-4.8,3.55-8.74,3.55-3.58,0-6.42-1.18-8.5-3.55-2.05-2.4-3.07-5.84-3.07-10.32s1.02-7.84,3.07-10.18c2.08-2.37,4.91-3.55,8.5-3.55,3.94,0,6.85,1.18,8.74,3.55,1.89,2.34,2.83,5.73,2.83,10.18Zm-6.48,0c0-3.14-.14-5.68-.43-7.63-.29-1.98-.8-3.42-1.54-4.32-.7-.93-1.74-1.39-3.12-1.39-1.28,0-2.29.46-3.02,1.39-.74.9-1.26,2.34-1.58,4.32-.29,1.95-.43,4.5-.43,7.63s.14,5.74.43,7.73c.32,1.98.85,3.44,1.58,4.37.74.93,1.74,1.39,3.02,1.39,1.38,0,2.42-.46,3.12-1.39.74-.93,1.25-2.38,1.54-4.37.29-1.98.43-4.56.43-7.73Zm-5.09,2.16l-2.02-2.06,2.02-2.06,2.06,2.06-2.06,2.06Zm47.85-2.16c0,4.48-.94,7.92-2.83,10.32-1.89,2.37-4.8,3.55-8.74,3.55-3.58,0-6.42-1.18-8.5-3.55-2.05-2.4-3.07-5.84-3.07-10.32s1.02-7.84,3.07-10.18c2.08-2.37,4.91-3.55,8.5-3.55,3.94,0,6.85,1.18,8.74,3.55,1.89,2.34,2.83,5.73,2.83,10.18Zm-6.48,0c0-3.14-.14-5.68-.43-7.63-.29-1.98-.8-3.42-1.54-4.32-.7-.93-1.74-1.39-3.12-1.39-1.28,0-2.29.46-3.02,1.39-.74.9-1.26,2.34-1.58,4.32-.29,1.95-.43,4.5-.43,7.63s.14,5.74.43,7.73c.32,1.98.85,3.44,1.58,4.37.74.93,1.74,1.39,3.02,1.39,1.38,0,2.42-.46,3.12-1.39.74-.93,1.25-2.38,1.54-4.37.29-1.98.43-4.56.43-7.73Zm-5.09,2.16l-2.02-2.06,2.02-2.06,2.06,2.06-2.06,2.06Zm37.3-2.16c0,4.48-.94,7.92-2.83,10.32-1.89,2.37-4.8,3.55-8.74,3.55-3.58,0-6.42-1.18-8.5-3.55-2.05-2.4-3.07-5.84-3.07-10.32s1.02-7.84,3.07-10.18c2.08-2.37,4.91-3.55,8.5-3.55,3.94,0,6.85,1.18,8.74,3.55,1.89,2.34,2.83,5.73,2.83,10.18Zm-6.48,0c0-3.14-.14-5.68-.43-7.63-.29-1.98-.8-3.42-1.54-4.32-.7-.93-1.74-1.39-3.12-1.39-1.28,0-2.29.46-3.02,1.39-.74.9-1.26,2.34-1.58,4.32-.29,1.95-.43,4.5-.43,7.63s.14,5.74.43,7.73c.32,1.98.85,3.44,1.58,4.37.74.93,1.74,1.39,3.02,1.39,1.38,0,2.42-.46,3.12-1.39.74-.93,1.25-2.38,1.54-4.37.29-1.98.43-4.56.43-7.73Zm-5.09,2.16l-2.02-2.06,2.02-2.06,2.06,2.06-2.06,2.06Zm37.3-2.16c0,4.48-.94,7.92-2.83,10.32-1.89,2.37-4.8,3.55-8.74,3.55-3.58,0-6.42-1.18-8.5-3.55-2.05-2.4-3.07-5.84-3.07-10.32s1.02-7.84,3.07-10.18c2.08-2.37,4.91-3.55,8.5-3.55,3.94,0,6.85,1.18,8.74,3.55,1.89,2.34,2.83,5.73,2.83,10.18Zm-6.48,0c0-3.14-.14-5.68-.43-7.63-.29-1.98-.8-3.42-1.54-4.32-.7-.93-1.74-1.39-3.12-1.39-1.28,0-2.29.46-3.02,1.39-.74.9-1.26,2.34-1.58,4.32-.29,1.95-.43,4.5-.43,7.63s.14,5.74.43,7.73c.32,1.98.85,3.44,1.58,4.37.74.93,1.74,1.39,3.02,1.39,1.38,0,2.42-.46,3.12-1.39.74-.93,1.25-2.38,1.54-4.37.29-1.98.43-4.56.43-7.73Zm-5.09,2.16l-2.02-2.06,2.02-2.06,2.06,2.06-2.06,2.06Zm45.98,3.02h.48v8.21h-21.74v-.38h3.07v-33.55h-3.07v-.38h12.72v.38h-3.07v33.55h5.14c1.28,0,2.4-.37,3.36-1.1.99-.74,1.76-1.7,2.3-2.88.54-1.22.82-2.5.82-3.84Zm-512.85,34.59v-.38h6.38v33.89c0,.48.08.9.24,1.25.16.32.54.48,1.15.48h2.02v.38h-3.31c-1.18,0-1.98-.35-2.4-1.06s-.64-1.78-.67-3.22c-.7,1.5-1.65,2.67-2.83,3.5-1.15.83-2.58,1.25-4.27,1.25-2.72,0-4.75-.86-6.1-2.59-1.34-1.76-2.02-4.58-2.02-8.45,0-4.67.85-8.03,2.54-10.08,1.73-2.08,4.02-3.12,6.86-3.12,1.41,0,2.58.34,3.5,1.01.93.64,1.68,1.5,2.26,2.59v-15.46h-3.36Zm-8.54,25.06c0,2.43.19,4.43.58,6,.42,1.54,1.02,2.67,1.82,3.41.8.74,1.79,1.1,2.98,1.1,1.47,0,2.74-.42,3.79-1.25s1.97-2.1,2.74-3.79v-14.3c-.58-1.25-1.31-2.21-2.21-2.88-.86-.67-1.95-1.01-3.26-1.01-1.44,0-2.64.46-3.6,1.39s-1.68,2.34-2.16,4.22c-.45,1.86-.67,4.22-.67,7.1Zm25.57-23.62c0,.83-.16,1.79-.48,2.88-.32,1.09-.8,2.16-1.44,3.22-.64,1.02-1.44,1.92-2.4,2.69l-.19-.34c.74-.64,1.34-1.34,1.82-2.11.51-.77.91-1.52,1.2-2.26.29-.74.46-1.33.53-1.78-.32-.64-.75-1.12-1.3-1.44-.54-.32-1.15-.56-1.82-.72,0-.74.19-1.33.58-1.78.42-.45.91-.67,1.49-.67.48,0,.93.18,1.34.53.45.32.67.91.67,1.78Zm1.91,22.51c0-4.22.83-7.3,2.5-9.22,1.66-1.92,3.98-2.88,6.96-2.88,2.82,0,4.8.69,5.95,2.06,1.15,1.38,1.73,3.18,1.73,5.42,0,.51-.05,1.02-.14,1.54-.1.51-.22.98-.38,1.39h-13.25c-.03.19-.05.46-.05.82v.86c0,2.43.21,4.51.62,6.24s1.14,3.06,2.16,3.98c1.06.9,2.54,1.34,4.46,1.34,1.22,0,2.27-.29,3.17-.86.93-.61,1.63-1.34,2.11-2.21.48-.9.72-1.76.72-2.59h.43c0,.9-.27,1.84-.82,2.83-.54.96-1.34,1.78-2.4,2.45-1.06.64-2.38.96-3.98.96-3.17,0-5.6-.94-7.3-2.83-1.66-1.92-2.5-5.02-2.5-9.31Zm9.46-11.71c-2.24,0-3.79.85-4.66,2.54-.86,1.66-1.34,4.03-1.44,7.1h9.31c.67,0,1.12-.21,1.34-.62.26-.42.38-.99.38-1.73,0-1.38-.1-2.61-.29-3.7-.19-1.12-.64-2-1.34-2.64-.7-.64-1.81-.96-3.31-.96Zm28,23.38c-1.15,0-1.95-.32-2.4-.96-.42-.64-.64-1.57-.67-2.78-.48,1.18-1.3,2.19-2.45,3.02-1.15.8-2.62,1.2-4.42,1.2-1.98,0-3.5-.4-4.56-1.2s-1.58-1.92-1.58-3.36c0-1.66.72-3.06,2.16-4.18,1.44-1.12,3.5-1.86,6.19-2.21l4.61-.67v-4.13c0-1.66-.08-3.1-.24-4.32-.16-1.22-.58-2.16-1.25-2.83-.67-.67-1.79-1.01-3.36-1.01-1.34,0-2.37.27-3.07.82-.7.51-1.18,1.18-1.44,2.02-.22.8-.34,1.63-.34,2.5,0,.61.06,1.2.19,1.78.13.54.42,1.04.86,1.49l-.14.14c-1.09-.16-1.95-.56-2.59-1.2-.61-.67-.91-1.52-.91-2.54,0-.8.26-1.6.77-2.4.51-.83,1.31-1.52,2.4-2.06,1.09-.58,2.51-.86,4.27-.86,1.98,0,3.55.34,4.7,1.01,1.15.67,1.97,1.68,2.45,3.02s.72,3.04.72,5.09v12.53c0,.48.08.9.24,1.25.16.32.53.48,1.1.48h2.06v.38h-3.31Zm-12.82-4.32c0,1.22.27,2.21.82,2.98.58.74,1.63,1.1,3.17,1.1,1.38,0,2.54-.37,3.5-1.1.96-.74,1.7-1.78,2.21-3.12v-6.29l-4.51.67c-1.34.22-2.4.61-3.17,1.15-.74.54-1.26,1.22-1.58,2.02-.29.77-.43,1.63-.43,2.59Zm32.01-18.96h6.38v21.17c0,.48.08.9.24,1.25.16.32.54.48,1.15.48h2.02v.38h-3.26c-1.25,0-2.08-.38-2.5-1.15s-.62-1.9-.62-3.41v-1.1c-.93,2.24-2.11,3.82-3.55,4.75-1.41.93-2.9,1.39-4.46,1.39s-2.8-.26-3.7-.77c-.9-.54-1.54-1.39-1.92-2.54-.35-1.18-.53-2.77-.53-4.75v-15.31h-3.36v-.38h6.38v16.85c0,2.14.24,3.74.72,4.8.48,1.02,1.5,1.54,3.07,1.54,1.31,0,2.62-.5,3.94-1.49,1.34-1.02,2.46-2.7,3.36-5.04v-16.27h-3.36v-.38Zm23.6,11.62c0-4.22.83-7.3,2.5-9.22,1.66-1.92,3.98-2.88,6.96-2.88,2.82,0,4.8.69,5.95,2.06,1.15,1.38,1.73,3.18,1.73,5.42,0,.51-.05,1.02-.14,1.54-.1.51-.22.98-.38,1.39h-13.25c-.03.19-.05.46-.05.82v.86c0,2.43.21,4.51.62,6.24s1.14,3.06,2.16,3.98c1.06.9,2.54,1.34,4.46,1.34,1.22,0,2.27-.29,3.17-.86.93-.61,1.63-1.34,2.11-2.21.48-.9.72-1.76.72-2.59h.43c0,.9-.27,1.84-.82,2.83-.54.96-1.34,1.78-2.4,2.45-1.06.64-2.38.96-3.98.96-3.17,0-5.6-.94-7.3-2.83-1.66-1.92-2.5-5.02-2.5-9.31Zm9.46-11.71c-2.24,0-3.79.85-4.66,2.54-.86,1.66-1.34,4.03-1.44,7.1h9.31c.67,0,1.12-.21,1.34-.62.26-.42.38-.99.38-1.73,0-1.38-.1-2.61-.29-3.7-.19-1.12-.64-2-1.34-2.64-.7-.64-1.81-.96-3.31-.96Zm-.24-3.65l-.29-.24c1.18-1.25,2.24-2.61,3.17-4.08.96-1.5,1.57-2.94,1.82-4.32l2.45,1.01c-.8,1.41-1.82,2.75-3.07,4.03-1.22,1.28-2.58,2.48-4.08,3.6Zm28.64,5.33c0-.35-.14-.64-.43-.86s-.77-.34-1.44-.34h-1.63v-.38h6.82v.38h-.67c-.61,0-1.1.21-1.49.62-.38.38-.72.98-1.01,1.78l-7.15,20.5h-.62l-8.3-21.26c-.26-.64-.51-1.07-.77-1.3-.22-.22-.59-.34-1.1-.34h-1.15v-.38h9.6v.38h-3.6c0,.35.02.72.05,1.1.06.35.19.78.38,1.3l6.53,16.7,5.76-16.85c.06-.19.11-.37.14-.53.06-.19.1-.37.1-.53Zm20.32,21.7c-1.15,0-1.95-.32-2.4-.96-.42-.64-.64-1.57-.67-2.78-.48,1.18-1.3,2.19-2.45,3.02-1.15.8-2.62,1.2-4.42,1.2-1.98,0-3.5-.4-4.56-1.2s-1.58-1.92-1.58-3.36c0-1.66.72-3.06,2.16-4.18,1.44-1.12,3.5-1.86,6.19-2.21l4.61-.67v-4.13c0-1.66-.08-3.1-.24-4.32-.16-1.22-.58-2.16-1.25-2.83-.67-.67-1.79-1.01-3.36-1.01-1.34,0-2.37.27-3.07.82-.7.51-1.18,1.18-1.44,2.02-.22.8-.34,1.63-.34,2.5,0,.61.06,1.2.19,1.78.13.54.42,1.04.86,1.49l-.14.14c-1.09-.16-1.95-.56-2.59-1.2-.61-.67-.91-1.52-.91-2.54,0-.8.26-1.6.77-2.4.51-.83,1.31-1.52,2.4-2.06,1.09-.58,2.51-.86,4.27-.86,1.98,0,3.55.34,4.7,1.01,1.15.67,1.97,1.68,2.45,3.02.48,1.34.72,3.04.72,5.09v12.53c0,.48.08.9.24,1.25.16.32.53.48,1.1.48h2.06v.38h-3.31Zm-12.82-4.32c0,1.22.27,2.21.82,2.98.58.74,1.63,1.1,3.17,1.1,1.38,0,2.54-.37,3.5-1.1s1.7-1.78,2.21-3.12v-6.29l-4.51.67c-1.34.22-2.4.61-3.17,1.15-.74.54-1.26,1.22-1.58,2.02-.29.77-.43,1.63-.43,2.59Zm27.21,14.02v.38h-9.6v-.38h3.31v-32.59h-3.36v-.38h6.19l.14,5.28c.48-1.09,1.06-2.06,1.73-2.93.7-.86,1.54-1.55,2.5-2.06.99-.51,2.13-.77,3.41-.77,2.66,0,4.58.88,5.76,2.64,1.22,1.73,1.82,4.53,1.82,8.4,0,4.64-.86,8-2.59,10.08-1.7,2.08-3.97,3.12-6.82,3.12-1.41,0-2.58-.27-3.5-.82-.93-.54-1.7-1.34-2.3-2.4v12.43h3.31Zm-3.31-26.64v13.39c.58,1.25,1.31,2.16,2.21,2.74.9.54,2,.82,3.31.82,1.44,0,2.62-.46,3.55-1.39.96-.93,1.66-2.32,2.11-4.18.48-1.89.72-4.27.72-7.15,0-2.43-.18-4.42-.53-5.95-.32-1.54-.85-2.67-1.58-3.41-.7-.74-1.63-1.1-2.78-1.1-1.66,0-3.06.58-4.18,1.73s-2.06,2.66-2.83,4.51Zm38.49,5.23c0,8.13-3.17,12.19-9.5,12.19s-9.5-4.06-9.5-12.19,3.17-12.05,9.5-12.05,9.5,4.02,9.5,12.05Zm-3.31,0c0-2.72-.21-4.93-.62-6.62-.38-1.73-1.02-2.99-1.92-3.79-.9-.83-2.11-1.25-3.65-1.25s-2.66.42-3.55,1.25c-.9.8-1.57,2.06-2.02,3.79-.42,1.7-.62,3.9-.62,6.62s.21,4.99.62,6.72c.45,1.73,1.12,3.01,2.02,3.84s2.08,1.25,3.55,1.25,2.75-.42,3.65-1.25,1.54-2.11,1.92-3.84c.42-1.73.62-3.97.62-6.72Zm16.73,11.33v.38h-10.22v-.38h3.36v-22.51h-3.36v-.38h5.57l.38,6.96h.1c.29-1.98.72-3.5,1.3-4.56.61-1.09,1.26-1.84,1.97-2.26.74-.42,1.44-.62,2.11-.62,1.06,0,1.81.29,2.26.86.48.54.72,1.2.72,1.97s-.18,1.47-.53,2.02c-.35.54-.8.98-1.34,1.3-.54.29-1.07.48-1.58.58l-.14-.1c.26-.42.46-.88.62-1.39.16-.54.24-1.18.24-1.92,0-.67-.1-1.23-.29-1.68-.19-.48-.46-.78-.82-.91-.38,0-.86.22-1.44.67-.54.42-1.07,1.17-1.58,2.26-.51,1.06-.9,2.58-1.15,4.56v15.17h3.84Zm6.58-11.28c0-4.22.83-7.3,2.5-9.22,1.66-1.92,3.98-2.88,6.96-2.88,2.82,0,4.8.69,5.95,2.06,1.15,1.38,1.73,3.18,1.73,5.42,0,.51-.05,1.02-.14,1.54s-.22.98-.38,1.39h-13.25c-.03.19-.05.46-.05.82v.86c0,2.43.21,4.51.62,6.24.42,1.73,1.14,3.06,2.16,3.98,1.06.9,2.54,1.34,4.46,1.34,1.22,0,2.27-.29,3.17-.86.93-.61,1.63-1.34,2.11-2.21.48-.9.72-1.76.72-2.59h.43c0,.9-.27,1.84-.82,2.83-.54.96-1.34,1.78-2.4,2.45-1.06.64-2.38.96-3.98.96-3.17,0-5.6-.94-7.3-2.83-1.66-1.92-2.5-5.02-2.5-9.31Zm9.46-11.71c-2.24,0-3.79.85-4.66,2.54-.86,1.66-1.34,4.03-1.44,7.1h9.31c.67,0,1.12-.21,1.34-.62.26-.42.38-.99.38-1.73,0-1.38-.1-2.61-.29-3.7-.19-1.12-.64-2-1.34-2.64-.7-.64-1.81-.96-3.31-.96Zm-.24-3.65l-.29-.24c1.18-1.25,2.24-2.61,3.17-4.08.96-1.5,1.57-2.94,1.82-4.32l2.45,1.01c-.8,1.41-1.82,2.75-3.07,4.03-1.22,1.28-2.58,2.48-4.08,3.6Zm12.16,15.36c0-4.22.83-7.3,2.5-9.22,1.66-1.92,3.98-2.88,6.96-2.88,2.82,0,4.8.69,5.95,2.06,1.15,1.38,1.73,3.18,1.73,5.42,0,.51-.05,1.02-.14,1.54s-.22.98-.38,1.39h-13.25c-.03.19-.05.46-.05.82v.86c0,2.43.21,4.51.62,6.24.42,1.73,1.14,3.06,2.16,3.98,1.06.9,2.54,1.34,4.46,1.34,1.22,0,2.27-.29,3.17-.86.93-.61,1.63-1.34,2.11-2.21.48-.9.72-1.76.72-2.59h.43c0,.9-.27,1.84-.82,2.83-.54.96-1.34,1.78-2.4,2.45-1.06.64-2.38.96-3.98.96-3.17,0-5.6-.94-7.3-2.83-1.66-1.92-2.5-5.02-2.5-9.31Zm9.46-11.71c-2.24,0-3.79.85-4.66,2.54-.86,1.66-1.34,4.03-1.44,7.1h9.31c.67,0,1.12-.21,1.34-.62.26-.42.38-.99.38-1.73,0-1.38-.1-2.61-.29-3.7-.19-1.12-.64-2-1.34-2.64-.7-.64-1.81-.96-3.31-.96Zm30.63,33.07v.38h-9.6v-.38h3.31v-32.59h-3.36v-.38h6.19l.14,5.28c.48-1.09,1.06-2.06,1.73-2.93.7-.86,1.54-1.55,2.5-2.06.99-.51,2.13-.77,3.41-.77,2.66,0,4.58.88,5.76,2.64,1.22,1.73,1.82,4.53,1.82,8.4,0,4.64-.86,8-2.59,10.08-1.7,2.08-3.97,3.12-6.82,3.12-1.41,0-2.58-.27-3.5-.82-.93-.54-1.7-1.34-2.3-2.4v12.43h3.31Zm-3.31-26.64v13.39c.58,1.25,1.31,2.16,2.21,2.74.9.54,2,.82,3.31.82,1.44,0,2.62-.46,3.55-1.39.96-.93,1.66-2.32,2.11-4.18.48-1.89.72-4.27.72-7.15,0-2.43-.18-4.42-.53-5.95-.32-1.54-.85-2.67-1.58-3.41-.7-.74-1.63-1.1-2.78-1.1-1.66,0-3.06.58-4.18,1.73s-2.06,2.66-2.83,4.51Zm35.56,16.94c-1.15,0-1.95-.32-2.4-.96-.42-.64-.64-1.57-.67-2.78-.48,1.18-1.3,2.19-2.45,3.02-1.15.8-2.62,1.2-4.42,1.2-1.98,0-3.5-.4-4.56-1.2s-1.58-1.92-1.58-3.36c0-1.66.72-3.06,2.16-4.18,1.44-1.12,3.5-1.86,6.19-2.21l4.61-.67v-4.13c0-1.66-.08-3.1-.24-4.32-.16-1.22-.58-2.16-1.25-2.83-.67-.67-1.79-1.01-3.36-1.01-1.34,0-2.37.27-3.07.82-.7.51-1.18,1.18-1.44,2.02-.22.8-.34,1.63-.34,2.5,0,.61.06,1.2.19,1.78.13.54.42,1.04.86,1.49l-.14.14c-1.09-.16-1.95-.56-2.59-1.2-.61-.67-.91-1.52-.91-2.54,0-.8.26-1.6.77-2.4.51-.83,1.31-1.52,2.4-2.06,1.09-.58,2.51-.86,4.27-.86,1.98,0,3.55.34,4.7,1.01,1.15.67,1.97,1.68,2.45,3.02.48,1.34.72,3.04.72,5.09v12.53c0,.48.08.9.24,1.25.16.32.53.48,1.1.48h2.06v.38h-3.31Zm-12.82-4.32c0,1.22.27,2.21.82,2.98.58.74,1.63,1.1,3.17,1.1,1.38,0,2.54-.37,3.5-1.1.96-.74,1.7-1.78,2.21-3.12v-6.29l-4.51.67c-1.34.22-2.4.61-3.17,1.15-.74.54-1.26,1.22-1.58,2.02-.29.77-.43,1.63-.43,2.59Zm28.31,3.94v.38h-10.22v-.38h3.36v-22.51h-3.36v-.38h5.57l.38,6.96h.1c.29-1.98.72-3.5,1.3-4.56.61-1.09,1.26-1.84,1.97-2.26.74-.42,1.44-.62,2.11-.62,1.06,0,1.81.29,2.26.86.48.54.72,1.2.72,1.97s-.18,1.47-.53,2.02c-.35.54-.8.98-1.34,1.3-.54.29-1.07.48-1.58.58l-.14-.1c.26-.42.46-.88.62-1.39.16-.54.24-1.18.24-1.92,0-.67-.1-1.23-.29-1.68-.19-.48-.46-.78-.82-.91-.38,0-.86.22-1.44.67-.54.42-1.07,1.17-1.58,2.26-.51,1.06-.9,2.58-1.15,4.56v15.17h3.84Zm34.47.38c-1.15,0-1.95-.32-2.4-.96-.42-.64-.64-1.57-.67-2.78-.48,1.18-1.3,2.19-2.45,3.02-1.15.8-2.62,1.2-4.42,1.2-1.98,0-3.5-.4-4.56-1.2s-1.58-1.92-1.58-3.36c0-1.66.72-3.06,2.16-4.18,1.44-1.12,3.5-1.86,6.19-2.21l4.61-.67v-4.13c0-1.66-.08-3.1-.24-4.32-.16-1.22-.58-2.16-1.25-2.83-.67-.67-1.79-1.01-3.36-1.01-1.34,0-2.37.27-3.07.82-.7.51-1.18,1.18-1.44,2.02-.22.8-.34,1.63-.34,2.5,0,.61.06,1.2.19,1.78.13.54.42,1.04.86,1.49l-.14.14c-1.09-.16-1.95-.56-2.59-1.2-.61-.67-.91-1.52-.91-2.54,0-.8.26-1.6.77-2.4.51-.83,1.31-1.52,2.4-2.06,1.09-.58,2.51-.86,4.27-.86,1.98,0,3.55.34,4.7,1.01,1.15.67,1.97,1.68,2.45,3.02s.72,3.04.72,5.09v12.53c0,.48.08.9.24,1.25.16.32.53.48,1.1.48h2.06v.38h-3.31Zm-12.82-4.32c0,1.22.27,2.21.82,2.98.58.74,1.63,1.1,3.17,1.1,1.38,0,2.54-.37,3.5-1.1.96-.74,1.7-1.78,2.21-3.12v-6.29l-4.51.67c-1.34.22-2.4.61-3.17,1.15-.74.54-1.26,1.22-1.58,2.02-.29.77-.43,1.63-.43,2.59Zm28.12,3.94v.38h-9.74v-.38h3.36v-22.51h-3.36v-.38h6.19l.14,5.71c.93-2.27,2.14-3.87,3.65-4.8,1.5-.93,3.04-1.39,4.61-1.39s2.8.27,3.7.82c.9.51,1.52,1.36,1.87,2.54.38,1.15.58,2.72.58,4.7v15.31h3.36v.38h-9.74v-.38h3.36v-16.46c0-2.14-.24-3.73-.72-4.75-.48-1.06-1.5-1.58-3.07-1.58-1.31,0-2.67.5-4.08,1.49-1.41.99-2.56,2.67-3.46,5.04v16.27h3.36Zm27.87-11.28c0-4.22.83-7.3,2.5-9.22,1.66-1.92,3.98-2.88,6.96-2.88,2.82,0,4.8.69,5.95,2.06,1.15,1.38,1.73,3.18,1.73,5.42,0,.51-.05,1.02-.14,1.54-.1.51-.22.98-.38,1.39h-13.25c-.03.19-.05.46-.05.82v.86c0,2.43.21,4.51.62,6.24s1.14,3.06,2.16,3.98c1.06.9,2.54,1.34,4.46,1.34,1.22,0,2.27-.29,3.17-.86.93-.61,1.63-1.34,2.11-2.21.48-.9.72-1.76.72-2.59h.43c0,.9-.27,1.84-.82,2.83-.54.96-1.34,1.78-2.4,2.45-1.06.64-2.38.96-3.98.96-3.17,0-5.6-.94-7.3-2.83-1.66-1.92-2.5-5.02-2.5-9.31Zm9.46-11.71c-2.24,0-3.79.85-4.66,2.54-.86,1.66-1.34,4.03-1.44,7.1h9.31c.67,0,1.12-.21,1.34-.62.26-.42.38-.99.38-1.73,0-1.38-.1-2.61-.29-3.7-.19-1.12-.64-2-1.34-2.64-.7-.64-1.81-.96-3.31-.96Zm20.99,22.99v.38h-9.74v-.38h3.36v-22.51h-3.36v-.38h6.19l.14,5.71c.93-2.27,2.14-3.87,3.65-4.8,1.5-.93,3.04-1.39,4.61-1.39s2.8.27,3.7.82c.9.51,1.52,1.36,1.87,2.54.38,1.15.58,2.72.58,4.7v15.31h3.36v.38h-9.74v-.38h3.36v-16.46c0-2.14-.24-3.73-.72-4.75-.48-1.06-1.5-1.58-3.07-1.58-1.31,0-2.67.5-4.08,1.49-1.41.99-2.56,2.67-3.46,5.04v16.27h3.36Zm27.58-33.94h19.25v7.49h-.48c0-1.18-.11-2.32-.34-3.41-.22-1.09-.62-1.97-1.2-2.64-.54-.7-1.31-1.06-2.3-1.06h-7.68v17.28h2.93c1.28,0,2.3-.14,3.07-.43.77-.32,1.52-.77,2.26-1.34v3.94c-.8-.64-1.57-1.09-2.3-1.34-.74-.29-1.74-.43-3.02-.43h-2.93v15.89h4.61v.38h-11.86v-.38h4.03v-33.55h-4.03v-.38Zm30.88,33.94v.38h-10.22v-.38h3.36v-22.51h-3.36v-.38h5.57l.38,6.96h.1c.29-1.98.72-3.5,1.3-4.56.61-1.09,1.26-1.84,1.97-2.26.74-.42,1.44-.62,2.11-.62,1.06,0,1.81.29,2.26.86.48.54.72,1.2.72,1.97s-.18,1.47-.53,2.02c-.35.54-.8.98-1.34,1.3-.54.29-1.07.48-1.58.58l-.14-.1c.26-.42.46-.88.62-1.39.16-.54.24-1.18.24-1.92,0-.67-.1-1.23-.29-1.68-.19-.48-.46-.78-.82-.91-.38,0-.86.22-1.44.67-.54.42-1.07,1.17-1.58,2.26-.51,1.06-.9,2.58-1.15,4.56v15.17h3.84Zm22.71.38c-1.15,0-1.95-.32-2.4-.96-.42-.64-.64-1.57-.67-2.78-.48,1.18-1.3,2.19-2.45,3.02-1.15.8-2.62,1.2-4.42,1.2-1.98,0-3.5-.4-4.56-1.2-1.06-.8-1.58-1.92-1.58-3.36,0-1.66.72-3.06,2.16-4.18,1.44-1.12,3.5-1.86,6.19-2.21l4.61-.67v-4.13c0-1.66-.08-3.1-.24-4.32-.16-1.22-.58-2.16-1.25-2.83-.67-.67-1.79-1.01-3.36-1.01-1.34,0-2.37.27-3.07.82-.7.51-1.18,1.18-1.44,2.02-.22.8-.34,1.63-.34,2.5,0,.61.06,1.2.19,1.78.13.54.42,1.04.86,1.49l-.14.14c-1.09-.16-1.95-.56-2.59-1.2-.61-.67-.91-1.52-.91-2.54,0-.8.26-1.6.77-2.4.51-.83,1.31-1.52,2.4-2.06,1.09-.58,2.51-.86,4.27-.86,1.98,0,3.55.34,4.7,1.01,1.15.67,1.97,1.68,2.45,3.02s.72,3.04.72,5.09v12.53c0,.48.08.9.24,1.25.16.32.53.48,1.1.48h2.06v.38h-3.31Zm-12.82-4.32c0,1.22.27,2.21.82,2.98.58.74,1.63,1.1,3.17,1.1,1.38,0,2.54-.37,3.5-1.1.96-.74,1.7-1.78,2.21-3.12v-6.29l-4.51.67c-1.34.22-2.4.61-3.17,1.15-.74.54-1.26,1.22-1.58,2.02-.29.77-.43,1.63-.43,2.59Zm28.12,3.94v.38h-9.74v-.38h3.36v-22.51h-3.36v-.38h6.19l.14,5.71c.93-2.27,2.14-3.87,3.65-4.8,1.5-.93,3.04-1.39,4.61-1.39s2.8.27,3.7.82c.9.51,1.52,1.36,1.87,2.54.38,1.15.58,2.72.58,4.7v15.31h3.36v.38h-9.74v-.38h3.36v-16.46c0-2.14-.24-3.73-.72-4.75-.48-1.06-1.5-1.58-3.07-1.58-1.31,0-2.67.5-4.08,1.49-1.41.99-2.56,2.67-3.46,5.04v16.27h3.36Zm26.82-23.38c1.7,0,3.04.22,4.03.67,1.02.45,1.74,1.04,2.16,1.78.42.74.62,1.54.62,2.4,0,.7-.16,1.34-.48,1.92-.29.58-.69,1.06-1.2,1.44-.48.35-1.01.58-1.58.67l-.14-.14c.35-.51.58-1.07.67-1.68.13-.61.19-1.23.19-1.87,0-.45-.05-.94-.14-1.49s-.29-1.07-.58-1.58c-.26-.51-.67-.93-1.25-1.25s-1.34-.48-2.3-.48c-1.66,0-2.94.48-3.84,1.44-.9.93-1.52,2.29-1.87,4.08-.32,1.79-.48,4-.48,6.62,0,2.34.16,4.34.48,6,.32,1.66.96,2.93,1.92,3.79.99.86,2.45,1.3,4.37,1.3,1.25,0,2.32-.29,3.22-.86.9-.61,1.57-1.34,2.02-2.21.48-.86.72-1.71.72-2.54h.43c0,.9-.27,1.84-.82,2.83-.51.96-1.3,1.78-2.35,2.45-1.06.64-2.37.96-3.94.96-3.17,0-5.52-.91-7.06-2.74-1.54-1.86-2.3-4.85-2.3-8.98s.82-7.36,2.45-9.41c1.63-2.08,3.98-3.12,7.06-3.12Zm10.61,12.1c0-4.22.83-7.3,2.5-9.22,1.66-1.92,3.98-2.88,6.96-2.88,2.82,0,4.8.69,5.95,2.06,1.15,1.38,1.73,3.18,1.73,5.42,0,.51-.05,1.02-.14,1.54-.1.51-.22.98-.38,1.39h-13.25c-.03.19-.05.46-.05.82v.86c0,2.43.21,4.51.62,6.24s1.14,3.06,2.16,3.98c1.06.9,2.54,1.34,4.46,1.34,1.22,0,2.27-.29,3.17-.86.93-.61,1.63-1.34,2.11-2.21.48-.9.72-1.76.72-2.59h.43c0,.9-.27,1.84-.82,2.83-.54.96-1.34,1.78-2.4,2.45-1.06.64-2.38.96-3.98.96-3.17,0-5.6-.94-7.3-2.83-1.66-1.92-2.5-5.02-2.5-9.31Zm9.46-11.71c-2.24,0-3.79.85-4.66,2.54-.86,1.66-1.34,4.03-1.44,7.1h9.31c.67,0,1.12-.21,1.34-.62.26-.42.38-.99.38-1.73,0-1.38-.1-2.61-.29-3.7-.19-1.12-.64-2-1.34-2.64-.7-.64-1.81-.96-3.31-.96Z"/></svg>