<?xml version="1.0" encoding="UTF-8"?><svg id="Calque_1" xmlns="http://www.w3.org/2000/svg" viewBox="0 0 892 511"><defs><style>.cls-1{fill:#343434;}.cls-2{fill:#fff;}.cls-3{fill:#f4f1db;}.cls-4{fill:#f6f6f6;}.cls-5{fill:#bababa;}.cls-6{fill:#313131;}.cls-7{fill:#d4d4d4;}.cls-8{fill:#d5d5d5;}.cls-9{fill:#999;}.cls-10{fill:#f7f7f7;}.cls-11{fill:#595959;}</style></defs><rect class="cls-1" x="603.09" y="122.5" width="98.99" height="4" transform="translate(103.1 497.91) rotate(-45)"/><rect class="cls-1" x="686" y="89" width="206" height="4"/><rect class="cls-6" x="710" y="331" width="182" height="4"/><rect class="cls-9" x="671" y="428" width="221" height="4"/><rect class="cls-11" x="720" y="217" width="172" height="4"/><path class="cls-1" d="m650.52,186.75h-394.04L453.5,0l197.02,186.75Zm-384.01-4h373.97L453.5,5.51l-186.99,177.24Z"/><path class="cls-3" d="m500,511h-93v-142h93v142Zm-89-4h85v-134h-85v134Z"/><path class="cls-5" d="m500,511h-93v-142h93v142Zm-89-4h85v-134h-85v134Z"/><rect class="cls-6" x="598.05" y="377.75" width="133.41" height="4" transform="translate(-73.82 581.28) rotate(-45)"/><rect class="cls-11" x="595.88" y="268.99" width="148.23" height="4" transform="translate(4.61 553.13) rotate(-45)"/><rect class="cls-9" x="605.99" y="453.75" width="79.2" height="4" transform="translate(-133.17 589.98) rotate(-45)"/><rect class="cls-5" x="244.3" y="273.95" width="4" height="121.62" transform="translate(-164.57 272.21) rotate(-45)"/><rect class="cls-5" y="290" width="205" height="4"/><rect class="cls-4" x="254.38" y="150.56" width="4" height="94.75" transform="translate(-64.87 239.26) rotate(-45)"/><rect class="cls-4" y="163" width="223" height="4"/><rect x="263.8" y="451.83" width="4" height="66.47" transform="translate(-265.14 330.02) rotate(-45)"/><rect y="462" width="244" height="4"/><rect class="cls-7" x="245.3" y="354.39" width="4" height="121.62" transform="translate(-221.16 296.48) rotate(-45)"/><rect class="cls-7" y="371" width="204" height="4"/><rect x="288" y="507" width="123" height="4"/><rect class="cls-9" x="288" y="477" width="4" height="30.24"/><rect class="cls-8" x="288" y="447" width="4" height="30.24"/><rect class="cls-6" x="288" y="417" width="4" height="30.24"/><rect class="cls-5" x="288" y="367" width="4" height="50.4"/><rect class="cls-9" x="407" y="477" width="4" height="30.24"/><rect class="cls-8" x="407" y="447" width="4" height="30.24"/><rect class="cls-6" x="407" y="417" width="4" height="30.24"/><rect class="cls-5" x="407" y="369" width="4" height="48"/><rect class="cls-9" x="496" y="477" width="4" height="30.24"/><rect class="cls-8" x="496" y="447" width="4" height="30.24"/><rect class="cls-6" x="496" y="417" width="4" height="30.24"/><rect class="cls-5" x="496" y="369" width="4" height="48"/><rect class="cls-11" x="288" y="307" width="4" height="60.48"/><rect class="cls-10" x="288" y="206" width="4" height="100.8"/><rect class="cls-1" x="288" y="185" width="4" height="22"/><rect x="496" y="507" width="123" height="4"/><rect class="cls-9" x="615" y="477" width="4" height="30.24"/><rect class="cls-8" x="615" y="447" width="4" height="30.24"/><rect class="cls-6" x="615" y="417" width="4" height="30.24"/><rect class="cls-5" x="615" y="367" width="4" height="50.4"/><rect class="cls-11" x="615" y="307" width="4" height="60.48"/><rect class="cls-10" x="615" y="206" width="4" height="100.8"/><rect class="cls-1" x="615" y="183" width="4" height="24"/><path class="cls-2" d="m73.81,451v-11.64h1.34v4.29h.11c.1-.15.23-.35.41-.58.18-.24.43-.45.76-.64.33-.19.78-.28,1.35-.28.73,0,1.38.18,1.94.55.56.37,1,.89,1.31,1.56.31.67.47,1.47.47,2.39s-.16,1.73-.47,2.4c-.31.67-.75,1.2-1.31,1.57-.56.37-1.2.55-1.93.55-.56,0-1.01-.09-1.35-.28-.34-.19-.6-.4-.78-.64-.18-.24-.32-.44-.42-.6h-.16v1.34h-1.3Zm1.32-4.36c0,.66.1,1.24.29,1.75.19.5.48.89.85,1.18.37.28.83.42,1.36.42s1.03-.15,1.4-.44c.38-.3.66-.7.85-1.2.19-.51.29-1.07.29-1.69s-.09-1.17-.28-1.66c-.19-.5-.47-.89-.85-1.18-.38-.29-.85-.44-1.41-.44s-1,.14-1.38.41c-.37.27-.65.66-.84,1.15-.19.49-.28,1.06-.28,1.71Zm11.98,4.55c-.79,0-1.48-.19-2.07-.56-.59-.38-1.05-.9-1.39-1.57-.33-.67-.49-1.46-.49-2.36s.16-1.7.49-2.38c.33-.68.8-1.2,1.39-1.58.59-.38,1.29-.56,2.07-.56s1.48.19,2.07.56c.59.38,1.06.9,1.39,1.58.33.68.5,1.47.5,2.38s-.17,1.69-.5,2.36c-.33.67-.79,1.2-1.39,1.57-.59.38-1.28.56-2.07.56Zm0-1.21c.6,0,1.09-.15,1.48-.46.39-.31.67-.71.86-1.21s.28-1.04.28-1.62-.09-1.13-.28-1.63-.47-.91-.86-1.22c-.39-.31-.88-.47-1.48-.47s-1.09.15-1.48.47c-.39.31-.67.72-.86,1.22s-.28,1.05-.28,1.63.09,1.12.28,1.62.47.9.86,1.21.88.46,1.48.46Zm6,1.02v-8.73h1.34v8.73h-1.34Zm.68-10.18c-.26,0-.49-.09-.68-.27-.19-.18-.28-.39-.28-.64s.09-.46.28-.64c.19-.18.41-.27.68-.27s.48.09.67.27c.19.18.28.39.28.64s-.09.46-.28.64c-.19.18-.41.27-.67.27Zm9.3,3.41l-1.2.34c-.08-.2-.19-.4-.33-.58-.14-.19-.34-.35-.59-.48s-.57-.19-.96-.19c-.53,0-.98.12-1.34.37-.35.24-.53.55-.53.93,0,.33.12.6.36.79.24.19.62.35,1.14.48l1.3.32c.78.19,1.36.48,1.74.87.38.39.57.88.57,1.49,0,.5-.14.95-.43,1.34-.28.39-.68.71-1.19.93s-1.11.34-1.78.34c-.89,0-1.63-.19-2.21-.58-.58-.39-.95-.95-1.11-1.69l1.27-.32c.12.47.35.82.69,1.06.34.23.79.35,1.34.35.62,0,1.12-.13,1.49-.4.37-.27.56-.59.56-.97,0-.3-.11-.56-.32-.76-.21-.21-.54-.36-.98-.47l-1.45-.34c-.8-.19-1.39-.48-1.76-.88-.37-.4-.56-.9-.56-1.51,0-.49.14-.93.41-1.31.28-.38.66-.68,1.14-.89.48-.22,1.03-.32,1.65-.32.86,0,1.54.19,2.03.57.5.38.85.88,1.06,1.5Zm8.36,0l-1.2.34c-.08-.2-.19-.4-.34-.58-.14-.19-.34-.35-.59-.48s-.57-.19-.96-.19c-.53,0-.98.12-1.33.37-.35.24-.53.55-.53.93,0,.33.12.6.36.79.24.19.62.35,1.14.48l1.29.32c.78.19,1.36.48,1.74.87.38.39.57.88.57,1.49,0,.5-.14.95-.43,1.34-.28.39-.68.71-1.19.93-.51.23-1.11.34-1.78.34-.89,0-1.63-.19-2.21-.58-.58-.39-.95-.95-1.11-1.69l1.27-.32c.12.47.35.82.69,1.06.34.23.79.35,1.34.35.62,0,1.12-.13,1.49-.4.37-.27.56-.59.56-.97,0-.3-.11-.56-.32-.76-.21-.21-.54-.36-.98-.47l-1.45-.34c-.8-.19-1.39-.48-1.76-.88-.37-.4-.56-.9-.56-1.51,0-.49.14-.93.41-1.31.28-.38.66-.68,1.14-.89.48-.22,1.03-.32,1.65-.32.86,0,1.54.19,2.03.57.5.38.85.88,1.06,1.5Zm5.72,6.96c-.79,0-1.48-.19-2.07-.56-.59-.38-1.05-.9-1.39-1.57-.33-.67-.49-1.46-.49-2.36s.16-1.7.49-2.38c.33-.68.79-1.2,1.39-1.58.6-.38,1.29-.56,2.07-.56s1.48.19,2.07.56c.6.38,1.06.9,1.39,1.58.33.68.5,1.47.5,2.38s-.17,1.69-.5,2.36c-.33.67-.79,1.2-1.39,1.57-.59.38-1.28.56-2.07.56Zm0-1.21c.6,0,1.09-.15,1.48-.46.39-.31.67-.71.86-1.21.19-.5.28-1.04.28-1.62s-.09-1.13-.28-1.63c-.18-.5-.47-.91-.86-1.22-.39-.31-.88-.47-1.48-.47s-1.09.15-1.48.47c-.39.31-.67.72-.86,1.22-.19.5-.28,1.05-.28,1.63s.09,1.12.28,1.62c.19.5.47.9.86,1.21s.88.46,1.48.46Zm7.34-4.23v5.25h-1.34v-8.73h1.3v1.36h.11c.2-.44.51-.8.93-1.07.42-.27.96-.41,1.61-.41.59,0,1.11.12,1.55.36.44.24.79.6,1.03,1.09.25.48.37,1.1.37,1.84v5.55h-1.34v-5.45c0-.69-.18-1.22-.53-1.6-.36-.39-.85-.58-1.47-.58-.43,0-.81.09-1.15.28-.33.19-.6.46-.79.81-.19.36-.29.79-.29,1.3Zm14.2-1.52l-1.21.34c-.08-.2-.19-.4-.34-.58-.14-.19-.34-.35-.59-.48s-.57-.19-.96-.19c-.53,0-.98.12-1.34.37-.35.24-.53.55-.53.93,0,.33.12.6.36.79.24.19.62.35,1.14.48l1.3.32c.78.19,1.36.48,1.74.87.38.39.57.88.57,1.49,0,.5-.14.95-.43,1.34-.28.39-.68.71-1.19.93s-1.11.34-1.78.34c-.89,0-1.63-.19-2.21-.58-.58-.39-.95-.95-1.11-1.69l1.27-.32c.12.47.35.82.69,1.06.34.23.79.35,1.33.35.62,0,1.12-.13,1.49-.4.37-.27.56-.59.56-.97,0-.3-.11-.56-.32-.76-.21-.21-.54-.36-.98-.47l-1.45-.34c-.8-.19-1.39-.48-1.76-.88-.37-.4-.56-.9-.56-1.51,0-.49.14-.93.41-1.31.28-.38.66-.68,1.14-.89.49-.22,1.03-.32,1.65-.32.86,0,1.54.19,2.03.57.5.38.85.88,1.06,1.5Zm10.75-4.86v11.64h-1.41v-10.16h-.07l-2.84,1.89v-1.43l2.91-1.93h1.41Zm9.28,9.45v-.61c0-.42.09-.81.26-1.16.18-.36.44-.64.77-.85.34-.22.75-.32,1.24-.32s.9.11,1.24.32c.33.21.59.5.76.85.17.35.26.74.26,1.16v.61c0,.42-.09.82-.26,1.17-.17.35-.42.64-.76.85-.33.21-.74.32-1.23.32s-.91-.11-1.24-.32c-.34-.22-.59-.5-.77-.85-.17-.36-.26-.75-.26-1.17Zm1.16-.61v.61c0,.35.08.67.25.95.17.28.46.42.86.42s.68-.14.84-.42c.17-.28.25-.6.25-.95v-.61c0-.35-.08-.67-.24-.94-.16-.28-.44-.42-.85-.42s-.68.14-.86.42c-.17.28-.26.59-.26.94Zm-6.96-6.05v-.61c0-.42.09-.81.26-1.16.18-.36.44-.64.77-.85.34-.22.75-.32,1.24-.32s.91.11,1.24.32c.33.21.59.5.76.85.17.35.25.74.25,1.16v.61c0,.42-.09.81-.26,1.17-.17.35-.42.64-.76.85-.33.21-.74.32-1.23.32s-.91-.11-1.24-.32c-.34-.22-.59-.5-.77-.85-.17-.36-.26-.75-.26-1.17Zm1.16-.61v.61c0,.35.08.67.25.95.17.28.45.42.86.42s.68-.14.84-.42c.17-.28.25-.6.25-.95v-.61c0-.35-.08-.67-.24-.94-.16-.28-.44-.42-.85-.42s-.68.14-.86.42c-.17.28-.25.59-.25.94Zm-.73,9.45l8-11.64h1.3l-8,11.64h-1.3Z"/><path class="cls-2" d="m735,420h-3.59v-11.64h3.75c1.13,0,2.1.23,2.9.7.8.46,1.42,1.13,1.85,1.99.43.86.64,1.9.64,3.1s-.21,2.26-.65,3.13c-.43.87-1.06,1.54-1.89,2.01-.83.47-1.83.7-3.01.7Zm-2.18-1.25h2.09c.96,0,1.76-.19,2.39-.56.63-.37,1.1-.9,1.41-1.58s.47-1.5.47-2.45-.15-1.75-.46-2.43c-.31-.68-.77-1.2-1.38-1.57-.61-.37-1.37-.55-2.28-.55h-2.25v9.14Zm9.91,1.25v-8.73h1.34v8.73h-1.34Zm.68-10.18c-.26,0-.49-.09-.68-.27-.19-.18-.28-.39-.28-.64s.09-.46.28-.64c.19-.18.42-.27.68-.27s.48.09.67.27c.19.18.28.39.28.64s-.1.46-.28.64c-.19.18-.41.27-.67.27Zm10.25,1.46l-3.23,8.73h-1.36l-3.23-8.73h1.46l2.41,6.95h.09l2.41-6.95h1.46Zm5.12,8.91c-.84,0-1.57-.19-2.18-.56-.61-.38-1.07-.9-1.4-1.57-.33-.67-.49-1.46-.49-2.35s.16-1.68.49-2.36c.33-.69.79-1.22,1.38-1.6.59-.39,1.28-.58,2.07-.58.45,0,.9.08,1.35.23.44.15.85.4,1.21.74.36.34.65.78.87,1.34s.32,1.24.32,2.06v.57h-6.73v-1.16h5.36c0-.49-.1-.93-.29-1.32-.19-.39-.47-.69-.83-.92-.36-.22-.78-.33-1.26-.33-.53,0-1,.13-1.39.4-.39.26-.68.6-.89,1.02-.21.42-.31.87-.31,1.35v.77c0,.66.11,1.22.34,1.68.23.46.55.8.96,1.04.41.23.88.35,1.43.35.35,0,.67-.05.96-.15.29-.1.54-.25.74-.45.21-.2.37-.46.48-.76l1.3.36c-.14.44-.37.83-.69,1.16-.32.33-.72.59-1.19.77-.47.18-1.01.27-1.6.27Zm5.65-.18v-8.73h1.3v1.32h.09c.16-.43.45-.78.86-1.05.42-.27.89-.4,1.41-.4.1,0,.22,0,.37,0s.26.01.34.02v1.36s-.15-.03-.31-.05c-.16-.03-.33-.04-.51-.04-.42,0-.8.09-1.14.27-.33.17-.59.42-.78.73-.19.31-.28.66-.28,1.05v5.52h-1.34Zm12.14-6.77l-1.2.34c-.08-.2-.19-.4-.34-.58-.14-.19-.34-.35-.59-.48s-.57-.19-.96-.19c-.53,0-.98.12-1.34.37-.35.24-.53.55-.53.93,0,.33.12.6.36.79.24.19.62.35,1.14.48l1.29.32c.78.19,1.36.48,1.74.87.38.39.57.88.57,1.49,0,.5-.14.95-.43,1.34-.28.39-.68.71-1.19.93-.51.23-1.11.34-1.78.34-.89,0-1.63-.19-2.21-.58-.58-.39-.95-.95-1.11-1.69l1.27-.32c.12.47.35.82.69,1.06.34.23.79.35,1.34.35.62,0,1.12-.13,1.49-.4.37-.27.56-.59.56-.97,0-.3-.11-.56-.32-.76-.21-.21-.54-.36-.98-.47l-1.46-.34c-.8-.19-1.39-.48-1.76-.88-.37-.4-.56-.9-.56-1.51,0-.49.14-.93.41-1.31.28-.38.66-.68,1.14-.89.48-.22,1.03-.32,1.65-.32.86,0,1.54.19,2.03.57.5.38.85.88,1.06,1.5Zm10.52,6.93c-.48,0-.95-.1-1.43-.27-.48-.17-.91-.47-1.31-.88-.39-.42-.71-.98-.95-1.69-.24-.71-.36-1.61-.36-2.68s.1-1.94.29-2.74c.19-.8.47-1.47.84-2.02.37-.55.81-.97,1.33-1.25.52-.28,1.11-.43,1.77-.43s1.23.13,1.74.39c.51.26.93.62,1.25,1.08.32.46.53.99.62,1.6h-1.39c-.13-.52-.38-.96-.75-1.3-.37-.34-.86-.52-1.48-.52-.9,0-1.61.39-2.13,1.18-.52.78-.78,1.88-.78,3.3h.09c.21-.32.46-.6.76-.82.3-.23.62-.41.98-.53s.73-.19,1.13-.19c.67,0,1.28.17,1.83.5.55.33,1,.79,1.33,1.37.33.58.5,1.24.5,1.99s-.16,1.38-.48,1.98c-.32.6-.77,1.07-1.36,1.42-.58.35-1.26.52-2.05.51Zm0-1.25c.48,0,.91-.12,1.28-.36.38-.24.68-.56.9-.96.22-.4.34-.85.34-1.34s-.11-.92-.32-1.31c-.21-.4-.51-.71-.88-.95-.37-.24-.79-.35-1.27-.35-.36,0-.7.07-1.01.22-.31.14-.58.33-.82.58-.23.25-.41.53-.54.85-.13.31-.2.65-.2.99,0,.46.11.89.32,1.29.22.4.52.73.9.97.38.25.82.37,1.3.37Zm12.05-1.09v-.61c0-.42.09-.81.26-1.16.18-.36.43-.64.77-.85.34-.22.75-.32,1.24-.32s.91.11,1.24.32c.33.21.58.5.76.85.17.35.26.74.26,1.16v.61c0,.42-.09.82-.26,1.17-.17.35-.42.64-.76.85-.33.21-.74.32-1.23.32s-.91-.11-1.24-.32c-.34-.22-.59-.5-.77-.85-.17-.36-.26-.75-.26-1.17Zm1.16-.61v.61c0,.35.08.67.25.95.17.28.46.42.86.42s.68-.14.84-.42c.17-.28.25-.6.25-.95v-.61c0-.35-.08-.67-.24-.94-.16-.28-.44-.42-.85-.42s-.68.14-.86.42c-.17.28-.26.59-.26.94Zm-6.95-6.05v-.61c0-.42.09-.81.26-1.16.18-.36.44-.64.77-.85.34-.22.75-.32,1.24-.32s.9.11,1.24.32c.33.21.59.5.76.85.17.35.26.74.26,1.16v.61c0,.42-.09.81-.26,1.17-.17.35-.42.64-.76.85-.33.21-.74.32-1.23.32s-.91-.11-1.24-.32c-.34-.22-.59-.5-.77-.85-.17-.36-.26-.75-.26-1.17Zm1.16-.61v.61c0,.35.08.67.25.95.17.28.46.42.86.42s.68-.14.84-.42c.17-.28.25-.6.25-.95v-.61c0-.35-.08-.67-.24-.94-.16-.28-.44-.42-.85-.42s-.68.14-.86.42c-.17.28-.26.59-.26.94Zm-.73,9.45l8-11.64h1.29l-8,11.64h-1.29Z"/><path class="cls-2" d="m80.8,352h-1.41c-.08-.4-.23-.76-.44-1.07-.2-.31-.45-.57-.75-.77-.29-.21-.62-.37-.97-.48-.36-.11-.73-.16-1.11-.16-.7,0-1.34.18-1.91.53-.57.36-1.02.88-1.36,1.57-.33.69-.5,1.54-.5,2.55s.17,1.86.5,2.55c.34.69.79,1.22,1.36,1.57.57.36,1.21.53,1.91.53.39,0,.76-.05,1.11-.16.36-.11.68-.26.97-.47.3-.21.55-.47.75-.78.21-.31.35-.67.44-1.07h1.41c-.11.59-.3,1.13-.58,1.6-.28.47-.63.87-1.05,1.2-.42.33-.88.57-1.4.74-.52.17-1.07.26-1.65.26-.99,0-1.88-.24-2.65-.73-.77-.49-1.38-1.17-1.82-2.07-.44-.89-.66-1.96-.66-3.18s.22-2.29.66-3.18c.44-.89,1.05-1.58,1.82-2.07.77-.49,1.66-.73,2.65-.73.59,0,1.14.09,1.65.26.52.17.99.42,1.4.75.42.33.77.72,1.05,1.19.28.47.47,1,.58,1.6Zm7.6,4.43v-5.16h1.34v8.73h-1.34v-1.48h-.09c-.2.44-.52.82-.95,1.13-.43.31-.98.46-1.64.46-.55,0-1.03-.12-1.45-.36-.42-.24-.76-.61-1-1.09-.24-.49-.36-1.1-.36-1.85v-5.54h1.34v5.45c0,.64.18,1.14.53,1.52.36.38.82.57,1.38.57.33,0,.67-.08,1.02-.26.35-.17.64-.43.88-.78.24-.35.36-.8.36-1.35Zm3.8,3.57v-8.73h1.34v8.73h-1.34Zm.68-10.18c-.26,0-.49-.09-.68-.27-.19-.18-.28-.39-.28-.64s.09-.46.28-.64c.19-.18.41-.27.68-.27s.48.09.67.27c.19.18.28.39.28.64s-.09.46-.28.64c-.19.18-.41.27-.67.27Zm9.3,3.41l-1.21.34c-.07-.2-.19-.4-.33-.58-.14-.19-.34-.35-.59-.48-.25-.12-.57-.19-.96-.19-.53,0-.98.12-1.34.37-.35.24-.53.55-.53.93,0,.33.12.6.36.79.24.19.62.35,1.14.48l1.3.32c.78.19,1.36.48,1.74.87.38.39.57.88.57,1.49,0,.5-.14.95-.43,1.34-.28.39-.68.71-1.19.93-.51.23-1.11.34-1.78.34-.89,0-1.63-.19-2.21-.58-.58-.39-.95-.95-1.11-1.69l1.27-.32c.12.47.35.82.69,1.06.34.23.79.35,1.34.35.62,0,1.12-.13,1.49-.4.37-.27.56-.59.56-.97,0-.3-.11-.56-.32-.76-.21-.21-.54-.36-.98-.47l-1.45-.34c-.8-.19-1.39-.48-1.76-.88-.37-.4-.56-.9-.56-1.51,0-.49.14-.93.41-1.31.28-.38.66-.68,1.14-.89.48-.22,1.03-.32,1.65-.32.86,0,1.54.19,2.03.57.5.38.85.88,1.06,1.5Zm2.18,6.77v-8.73h1.34v8.73h-1.34Zm.68-10.18c-.26,0-.49-.09-.68-.27-.18-.18-.28-.39-.28-.64s.09-.46.28-.64c.19-.18.42-.27.68-.27s.49.09.67.27c.19.18.28.39.28.64s-.1.46-.28.64c-.19.18-.41.27-.67.27Zm4.46,4.93v5.25h-1.34v-8.73h1.3v1.36h.11c.2-.44.52-.8.93-1.07.42-.27.95-.41,1.61-.41.59,0,1.11.12,1.55.36.44.24.79.6,1.03,1.09.25.48.37,1.1.37,1.84v5.55h-1.34v-5.45c0-.69-.18-1.22-.53-1.6-.36-.39-.84-.58-1.47-.58-.43,0-.81.09-1.15.28-.33.19-.6.46-.79.81-.19.36-.29.79-.29,1.3Zm11.68,5.43c-.84,0-1.57-.19-2.18-.56-.61-.38-1.07-.9-1.4-1.57-.33-.67-.49-1.46-.49-2.35s.16-1.68.49-2.36c.33-.69.79-1.22,1.38-1.6.59-.39,1.28-.58,2.07-.58.45,0,.9.08,1.35.23.44.15.85.4,1.21.74.36.34.65.78.87,1.34.22.56.32,1.24.32,2.06v.57h-6.73v-1.16h5.36c0-.49-.1-.93-.3-1.32-.19-.39-.47-.69-.83-.92-.36-.22-.78-.33-1.26-.33-.53,0-1,.13-1.39.4-.39.26-.68.6-.89,1.02-.21.42-.31.87-.31,1.35v.77c0,.66.11,1.22.34,1.68.23.46.55.8.96,1.04.41.23.88.35,1.43.35.35,0,.67-.05.95-.15.29-.1.54-.25.75-.45.21-.2.37-.46.48-.76l1.29.36c-.14.44-.36.83-.69,1.16-.32.33-.72.59-1.19.77-.47.18-1,.27-1.6.27Zm11.13-1.67c-.28,0-.52-.1-.72-.3-.2-.2-.3-.44-.3-.72s.1-.52.3-.72.44-.3.72-.3.52.1.72.3c.2.2.3.44.3.72,0,.18-.05.36-.14.51-.09.15-.21.28-.37.38-.15.09-.32.14-.51.14Zm0-5.89c-.28,0-.52-.1-.72-.3-.2-.2-.3-.44-.3-.72s.1-.52.3-.72c.2-.2.44-.3.72-.3s.52.1.72.3c.2.2.3.44.3.72,0,.19-.05.36-.14.51-.09.15-.21.28-.37.38-.15.09-.32.14-.51.14Zm11.77,7.53c-.48,0-.95-.1-1.43-.27-.48-.17-.91-.47-1.31-.88-.39-.42-.71-.98-.95-1.69-.24-.71-.36-1.61-.36-2.68s.1-1.94.29-2.74c.19-.8.47-1.47.84-2.02.37-.55.81-.97,1.33-1.25.52-.28,1.11-.43,1.77-.43s1.23.13,1.74.39c.51.26.93.62,1.25,1.08.32.46.53.99.62,1.6h-1.39c-.13-.52-.38-.96-.75-1.3-.37-.34-.86-.52-1.48-.52-.9,0-1.61.39-2.13,1.18-.52.78-.77,1.88-.78,3.3h.09c.21-.32.46-.6.76-.82.3-.23.62-.41.98-.53s.73-.19,1.13-.19c.67,0,1.28.17,1.83.5.55.33,1,.79,1.33,1.37.33.58.5,1.24.5,1.99s-.16,1.38-.48,1.98c-.32.6-.78,1.07-1.36,1.42-.58.35-1.26.52-2.05.51Zm0-1.25c.48,0,.91-.12,1.28-.36.38-.24.68-.56.9-.96.22-.4.33-.85.33-1.34s-.11-.92-.32-1.31c-.21-.4-.51-.71-.88-.95-.37-.24-.8-.35-1.27-.35-.36,0-.7.07-1.01.22-.31.14-.58.33-.82.58-.23.25-.41.53-.54.85-.13.31-.2.65-.2.99,0,.46.11.89.32,1.29.22.4.52.73.9.97.38.25.82.37,1.3.37Zm12.05-1.09v-.61c0-.42.09-.81.26-1.16.18-.36.44-.64.77-.85.34-.22.75-.32,1.24-.32s.9.11,1.24.32c.33.21.59.5.76.85.17.35.26.74.26,1.16v.61c0,.42-.09.82-.26,1.17-.17.35-.42.64-.76.85-.33.21-.74.32-1.23.32s-.91-.11-1.24-.32c-.34-.22-.59-.5-.77-.85-.17-.36-.26-.75-.26-1.17Zm1.16-.61v.61c0,.35.08.67.25.95.17.28.46.42.86.42s.68-.14.84-.42c.17-.28.25-.6.25-.95v-.61c0-.35-.08-.67-.24-.94-.16-.28-.44-.42-.85-.42s-.68.14-.86.42c-.17.28-.26.59-.26.94Zm-6.96-6.05v-.61c0-.42.09-.81.26-1.16.18-.36.44-.64.77-.85.34-.22.75-.32,1.24-.32s.91.11,1.24.32c.33.21.59.5.76.85.17.35.25.74.25,1.16v.61c0,.42-.09.81-.26,1.17-.17.35-.42.64-.76.85-.33.21-.74.32-1.23.32s-.91-.11-1.24-.32c-.34-.22-.59-.5-.77-.85-.17-.36-.26-.75-.26-1.17Zm1.16-.61v.61c0,.35.08.67.25.95.17.28.45.42.86.42s.68-.14.84-.42c.17-.28.25-.6.25-.95v-.61c0-.35-.08-.67-.24-.94-.16-.28-.44-.42-.85-.42s-.68.14-.86.42c-.17.28-.25.59-.25.94Zm-.73,9.45l8-11.64h1.3l-8,11.64h-1.3Z"/><path class="cls-2" d="m732.37,303.36l3.45,9.79h.14l3.45-9.79h1.48l-4.27,11.64h-1.45l-4.27-11.64h1.48Zm12.89,11.82c-.79,0-1.48-.19-2.07-.56-.59-.38-1.05-.9-1.39-1.57-.33-.67-.49-1.46-.49-2.36s.16-1.7.49-2.38c.33-.68.79-1.2,1.39-1.58.6-.38,1.29-.56,2.07-.56s1.48.19,2.07.56c.59.38,1.06.9,1.39,1.58.33.68.5,1.47.5,2.38s-.17,1.69-.5,2.36c-.33.67-.79,1.2-1.39,1.57-.59.38-1.28.56-2.07.56Zm0-1.21c.6,0,1.09-.15,1.48-.46.39-.31.67-.71.86-1.21.19-.5.28-1.04.28-1.62s-.09-1.13-.28-1.63c-.18-.5-.47-.91-.86-1.22-.39-.31-.88-.47-1.48-.47s-1.09.15-1.48.47c-.39.31-.67.72-.86,1.22-.19.5-.28,1.05-.28,1.63s.09,1.12.28,1.62c.18.5.47.9.86,1.21.39.31.88.46,1.48.46Zm6,1.02v-8.73h1.34v8.73h-1.34Zm.68-10.18c-.26,0-.49-.09-.68-.27-.18-.18-.28-.39-.28-.64s.09-.46.28-.64c.19-.18.42-.27.68-.27s.48.09.67.27c.19.18.28.39.28.64s-.1.46-.28.64c-.19.18-.41.27-.67.27Zm6.91,1.46v1.14h-4.52v-1.14h4.52Zm-3.21-2.09h1.34v8.32c0,.38.05.66.16.85.11.19.26.31.43.38.18.06.36.09.56.09.15,0,.27,0,.36-.02.09-.02.17-.03.23-.05l.27,1.2c-.09.03-.22.07-.38.1-.16.04-.37.06-.62.06-.38,0-.75-.08-1.11-.25-.36-.16-.66-.41-.9-.74-.24-.33-.35-.75-.35-1.26v-8.68Zm10.72,7.25v-5.16h1.34v8.73h-1.34v-1.48h-.09c-.2.44-.52.82-.95,1.13-.43.31-.98.46-1.64.46-.54,0-1.03-.12-1.45-.36-.42-.24-.76-.61-1-1.09-.24-.49-.36-1.1-.36-1.85v-5.54h1.34v5.45c0,.64.18,1.14.53,1.52.36.38.82.57,1.38.57.33,0,.67-.08,1.02-.26.35-.17.64-.43.88-.78.24-.35.36-.8.36-1.35Zm3.8,3.57v-8.73h1.3v1.32h.09c.16-.43.45-.78.86-1.05.42-.27.89-.4,1.41-.4.1,0,.22,0,.37,0s.26.01.34.02v1.36s-.15-.03-.31-.05c-.16-.03-.33-.04-.51-.04-.42,0-.8.09-1.14.27-.33.17-.59.42-.78.73-.19.31-.28.66-.28,1.05v5.52h-1.34Zm9.35.18c-.84,0-1.57-.19-2.18-.56-.61-.38-1.07-.9-1.4-1.57-.33-.67-.49-1.46-.49-2.35s.16-1.68.49-2.36c.33-.69.79-1.22,1.38-1.6.59-.39,1.28-.58,2.07-.58.46,0,.9.08,1.35.23.44.15.85.4,1.21.74.36.34.65.78.87,1.34s.32,1.24.32,2.06v.57h-6.73v-1.16h5.36c0-.49-.1-.93-.29-1.32-.19-.39-.47-.69-.83-.92-.36-.22-.78-.33-1.26-.33-.53,0-1,.13-1.39.4-.39.26-.68.6-.89,1.02-.21.42-.31.87-.31,1.35v.77c0,.66.11,1.22.34,1.68.23.46.55.8.96,1.04.41.23.88.35,1.43.35.35,0,.67-.05.96-.15.29-.1.54-.25.74-.45.21-.2.37-.46.48-.76l1.3.36c-.14.44-.37.83-.69,1.16-.32.33-.72.59-1.19.77-.47.18-1.01.27-1.6.27Zm10.15-8.91h1.34v9.36c0,.54-.09,1-.28,1.4-.18.39-.46.7-.83.92-.37.22-.83.32-1.39.32h-.27v-1.25h.25c.41,0,.71-.12.9-.36.19-.24.28-.58.28-1.02v-9.36Zm.66-1.46c-.26,0-.49-.09-.68-.27-.19-.18-.28-.39-.28-.64s.09-.46.28-.64c.19-.18.41-.27.68-.27s.49.09.67.27c.19.18.28.39.28.64s-.09.46-.28.64c-.18.18-.41.27-.67.27Zm5.71,10.39c-.55,0-1.06-.1-1.51-.31-.45-.21-.81-.52-1.07-.92-.27-.4-.4-.89-.4-1.45,0-.5.1-.91.3-1.22.2-.32.46-.56.79-.74.33-.18.69-.31,1.09-.4.4-.09.8-.16,1.21-.22.53-.07.96-.12,1.29-.15.33-.04.58-.1.73-.19.16-.09.23-.24.23-.46v-.04c0-.56-.15-1-.46-1.31-.3-.31-.76-.47-1.38-.47s-1.14.14-1.51.42c-.36.28-.62.58-.77.9l-1.27-.45c.23-.53.53-.94.91-1.24.38-.3.8-.51,1.25-.62.45-.12.9-.18,1.34-.18.28,0,.6.03.97.1.37.07.72.2,1.06.4.35.2.63.51.86.93.23.41.34.97.34,1.66v5.75h-1.34v-1.18h-.07c-.09.19-.24.39-.45.61-.21.22-.49.4-.85.55-.35.15-.78.23-1.29.23Zm.2-1.2c.53,0,.98-.1,1.34-.31.37-.21.64-.48.83-.81.19-.33.28-.68.28-1.04v-1.23c-.06.07-.18.13-.38.19-.19.05-.41.1-.66.14-.25.04-.49.07-.72.1-.23.03-.42.05-.56.07-.35.04-.67.12-.98.22-.3.1-.54.25-.73.45-.18.2-.27.47-.27.81,0,.47.17.82.52,1.06.35.23.79.35,1.32.35Zm6.24,1v-8.73h1.3v1.32h.09c.16-.43.45-.78.86-1.05.42-.27.89-.4,1.41-.4.1,0,.22,0,.37,0,.15,0,.26.01.34.02v1.36s-.15-.03-.31-.05c-.16-.03-.33-.04-.51-.04-.42,0-.8.09-1.14.27-.33.17-.59.42-.78.73-.19.31-.28.66-.28,1.05v5.52h-1.34Zm8.98.18c-.73,0-1.37-.18-1.93-.55-.56-.37-.99-.89-1.31-1.57-.31-.68-.47-1.48-.47-2.4s.16-1.71.47-2.39c.32-.68.75-1.2,1.31-1.56.56-.37,1.21-.55,1.94-.55.57,0,1.02.1,1.35.28.33.19.59.4.76.64.18.23.32.43.41.58h.11v-4.29h1.34v11.64h-1.3v-1.34h-.16c-.1.16-.24.36-.42.6-.18.24-.44.45-.78.64-.34.19-.79.28-1.35.28Zm.18-1.21c.54,0,.99-.14,1.36-.42.37-.28.65-.68.85-1.18.19-.5.29-1.09.29-1.75s-.1-1.22-.28-1.71c-.19-.49-.47-.88-.84-1.15-.37-.28-.83-.41-1.38-.41s-1.04.14-1.42.44c-.38.29-.66.68-.85,1.18-.19.49-.28,1.05-.28,1.66s.09,1.19.28,1.69c.19.5.48.9.85,1.2.38.3.85.44,1.41.44Zm6.46,1.02v-8.73h1.34v8.73h-1.34Zm.68-10.18c-.26,0-.49-.09-.68-.27-.19-.18-.28-.39-.28-.64s.09-.46.28-.64c.19-.18.42-.27.68-.27s.48.09.67.27c.19.18.28.39.28.64s-.1.46-.28.64c-.19.18-.41.27-.67.27Zm4.46,4.93v5.25h-1.34v-8.73h1.3v1.36h.11c.21-.44.52-.8.93-1.07.42-.27.96-.41,1.61-.41.59,0,1.11.12,1.55.36.44.24.79.6,1.03,1.09.25.48.37,1.1.37,1.84v5.55h-1.34v-5.45c0-.69-.18-1.22-.53-1.6-.36-.39-.84-.58-1.47-.58-.43,0-.81.09-1.15.28-.33.19-.6.46-.79.81-.19.36-.29.79-.29,1.3Zm16.36,5.41c-.48,0-.95-.1-1.43-.27-.48-.17-.91-.47-1.31-.88-.39-.42-.71-.98-.95-1.69-.24-.71-.36-1.61-.36-2.68s.1-1.94.29-2.74c.19-.8.47-1.47.84-2.02.37-.55.81-.97,1.33-1.25.52-.28,1.11-.43,1.77-.43s1.23.13,1.74.39c.51.26.93.62,1.25,1.08.32.46.53.99.62,1.6h-1.39c-.13-.52-.38-.96-.75-1.3-.37-.34-.86-.52-1.48-.52-.9,0-1.61.39-2.13,1.18-.52.78-.78,1.88-.78,3.3h.09c.21-.32.46-.6.76-.82.29-.23.62-.41.98-.53.36-.12.73-.19,1.13-.19.67,0,1.28.17,1.83.5.55.33,1,.79,1.33,1.37.33.58.5,1.24.5,1.99s-.16,1.38-.48,1.98c-.32.6-.77,1.07-1.36,1.42-.58.35-1.26.52-2.05.51Zm0-1.25c.48,0,.91-.12,1.28-.36.38-.24.68-.56.9-.96.22-.4.34-.85.34-1.34s-.11-.92-.32-1.31c-.21-.4-.5-.71-.88-.95-.37-.24-.8-.35-1.27-.35-.36,0-.7.07-1.01.22-.31.14-.58.33-.82.58-.23.25-.41.53-.54.85-.13.31-.2.65-.2.99,0,.46.11.89.32,1.29.22.4.52.73.9.97.38.25.82.37,1.3.37Zm12.05-1.09v-.61c0-.42.09-.81.26-1.16.18-.36.44-.64.77-.85.34-.22.75-.32,1.24-.32s.91.11,1.24.32c.33.21.59.5.76.85.17.35.26.74.26,1.16v.61c0,.42-.09.82-.26,1.17-.17.35-.42.64-.76.85-.33.21-.74.32-1.23.32s-.91-.11-1.24-.32c-.34-.22-.59-.5-.77-.85-.17-.36-.26-.75-.26-1.17Zm1.16-.61v.61c0,.35.08.67.25.95.17.28.46.42.86.42s.68-.14.84-.42c.17-.28.25-.6.25-.95v-.61c0-.35-.08-.67-.24-.94-.16-.28-.44-.42-.85-.42s-.68.14-.86.42c-.17.28-.26.59-.26.94Zm-6.95-6.05v-.61c0-.42.09-.81.26-1.16.18-.36.44-.64.77-.85.34-.22.75-.32,1.24-.32s.91.11,1.24.32c.33.21.59.5.76.85.17.35.26.74.26,1.16v.61c0,.42-.09.81-.26,1.17-.17.35-.42.64-.76.85-.33.21-.74.32-1.23.32s-.91-.11-1.24-.32c-.34-.22-.59-.5-.77-.85-.17-.36-.26-.75-.26-1.17Zm1.16-.61v.61c0,.35.08.67.25.95.17.28.45.42.86.42s.68-.14.84-.42c.17-.28.25-.6.25-.95v-.61c0-.35-.08-.67-.24-.94-.16-.28-.44-.42-.85-.42s-.68.14-.86.42c-.17.28-.26.59-.26.94Zm-.73,9.45l8-11.64h1.3l-8,11.64h-1.3Z"/><path class="cls-2" d="m54.09,266.36l3.45,9.79h.14l3.45-9.79h1.48l-4.27,11.64h-1.45l-4.27-11.64h1.48Zm11.91,11.84c-.55,0-1.05-.1-1.51-.31-.45-.21-.81-.52-1.07-.92-.27-.4-.4-.89-.4-1.45,0-.5.1-.91.3-1.22.2-.32.46-.56.79-.74.33-.18.69-.31,1.09-.4.4-.09.81-.16,1.21-.22.53-.07.96-.12,1.29-.15.33-.04.58-.1.73-.19.16-.09.23-.24.23-.46v-.04c0-.56-.15-1-.46-1.31-.3-.31-.76-.47-1.38-.47s-1.14.14-1.51.42c-.36.28-.62.58-.77.9l-1.27-.45c.23-.53.53-.94.91-1.24.38-.3.8-.51,1.25-.62.45-.12.9-.18,1.34-.18.28,0,.6.03.97.1.37.07.72.2,1.06.4.34.2.63.51.86.93.23.41.34.97.34,1.66v5.75h-1.34v-1.18h-.07c-.09.19-.24.39-.45.61-.21.22-.49.4-.85.55-.35.15-.78.23-1.29.23Zm.2-1.2c.53,0,.98-.1,1.34-.31.37-.21.64-.48.83-.81.19-.33.28-.68.28-1.04v-1.23c-.06.07-.18.13-.38.19-.19.05-.41.1-.66.14-.25.04-.49.07-.72.1-.23.03-.42.05-.56.07-.35.04-.67.12-.98.22-.3.1-.54.25-.73.45-.18.2-.27.47-.27.81,0,.47.17.82.52,1.06.35.23.79.35,1.32.35Zm6.24,1v-8.73h1.34v8.73h-1.34Zm.68-10.18c-.26,0-.49-.09-.68-.27-.19-.18-.28-.39-.28-.64s.09-.46.28-.64c.19-.18.41-.27.68-.27s.48.09.67.27c.19.18.28.39.28.64s-.09.46-.28.64c-.19.18-.41.27-.67.27Zm9.3,3.41l-1.2.34c-.08-.2-.19-.4-.34-.58-.14-.19-.34-.35-.59-.48s-.57-.19-.96-.19c-.53,0-.98.12-1.34.37-.35.24-.53.55-.53.93,0,.33.12.6.36.79.24.19.62.35,1.14.48l1.3.32c.78.19,1.36.48,1.74.87.38.39.57.88.57,1.49,0,.5-.14.95-.43,1.34-.28.39-.68.71-1.19.93s-1.11.34-1.78.34c-.89,0-1.63-.19-2.21-.58-.58-.39-.95-.95-1.11-1.69l1.27-.32c.12.47.35.82.69,1.06.34.23.79.35,1.34.35.62,0,1.12-.13,1.49-.4.37-.27.56-.59.56-.97,0-.3-.11-.56-.32-.76-.21-.21-.54-.36-.98-.47l-1.45-.34c-.8-.19-1.39-.48-1.76-.88-.37-.4-.56-.9-.56-1.51,0-.49.14-.93.41-1.31.28-.38.66-.68,1.14-.89.48-.22,1.03-.32,1.65-.32.86,0,1.54.19,2.03.57.5.38.85.88,1.06,1.5Zm8.36,0l-1.2.34c-.08-.2-.19-.4-.34-.58-.14-.19-.34-.35-.59-.48s-.57-.19-.96-.19c-.53,0-.98.12-1.34.37-.35.24-.53.55-.53.93,0,.33.12.6.36.79.24.19.62.35,1.14.48l1.3.32c.78.19,1.36.48,1.74.87.38.39.57.88.57,1.49,0,.5-.14.95-.43,1.34-.28.39-.68.71-1.19.93-.51.23-1.11.34-1.78.34-.89,0-1.63-.19-2.21-.58-.58-.39-.95-.95-1.11-1.69l1.27-.32c.12.47.35.82.69,1.06.34.23.79.35,1.34.35.62,0,1.12-.13,1.49-.4.37-.27.56-.59.56-.97,0-.3-.11-.56-.32-.76-.21-.21-.54-.36-.98-.47l-1.45-.34c-.8-.19-1.39-.48-1.76-.88-.37-.4-.56-.9-.56-1.51,0-.49.14-.93.41-1.31.28-.38.66-.68,1.14-.89.48-.22,1.03-.32,1.65-.32.86,0,1.54.19,2.03.57.5.38.85.88,1.06,1.5Zm5.84,6.96c-.84,0-1.57-.19-2.18-.56-.61-.38-1.07-.9-1.4-1.57-.33-.67-.49-1.46-.49-2.35s.16-1.68.49-2.36c.33-.69.79-1.22,1.38-1.6.59-.39,1.28-.58,2.07-.58.45,0,.9.08,1.35.23.44.15.85.4,1.21.74.36.34.65.78.87,1.34.22.56.32,1.24.32,2.06v.57h-6.73v-1.16h5.36c0-.49-.1-.93-.3-1.32-.19-.39-.47-.69-.83-.92-.36-.22-.78-.33-1.26-.33-.53,0-1,.13-1.39.4-.39.26-.68.6-.89,1.02-.21.42-.31.87-.31,1.35v.77c0,.66.11,1.22.34,1.68.23.46.55.8.96,1.04.41.23.88.35,1.43.35.35,0,.67-.05.95-.15.29-.1.54-.25.74-.45.21-.2.37-.46.48-.76l1.3.36c-.14.44-.37.83-.69,1.16-.32.33-.72.59-1.19.77-.47.18-1.01.27-1.6.27Zm6.99-11.82v11.64h-1.34v-11.64h1.34Zm3.8,0v11.64h-1.34v-11.64h1.34Zm6.11,11.82c-.84,0-1.57-.19-2.18-.56-.61-.38-1.07-.9-1.4-1.57-.32-.67-.49-1.46-.49-2.35s.16-1.68.49-2.36c.33-.69.79-1.22,1.38-1.6.59-.39,1.28-.58,2.07-.58.45,0,.9.08,1.35.23.44.15.85.4,1.21.74.36.34.65.78.87,1.34.22.56.32,1.24.32,2.06v.57h-6.73v-1.16h5.36c0-.49-.1-.93-.29-1.32-.19-.39-.47-.69-.83-.92-.36-.22-.78-.33-1.26-.33-.53,0-1,.13-1.39.4-.39.26-.68.6-.89,1.02-.21.42-.31.87-.31,1.35v.77c0,.66.11,1.22.34,1.68.23.46.55.8.96,1.04.41.23.88.35,1.43.35.35,0,.67-.05.96-.15.29-.1.54-.25.74-.45.21-.2.37-.46.48-.76l1.29.36c-.14.44-.36.83-.69,1.16-.32.33-.72.59-1.19.77-.47.18-1.01.27-1.6.27Zm11.13-1.67c-.28,0-.52-.1-.72-.3-.2-.2-.3-.44-.3-.72s.1-.52.3-.72c.2-.2.44-.3.72-.3s.52.1.72.3c.2.2.3.44.3.72,0,.18-.05.36-.14.51-.09.15-.21.28-.37.38-.15.09-.32.14-.51.14Zm0-5.89c-.28,0-.52-.1-.72-.3-.2-.2-.3-.44-.3-.72s.1-.52.3-.72c.2-.2.44-.3.72-.3s.52.1.72.3c.2.2.3.44.3.72,0,.19-.05.36-.14.51-.09.15-.21.28-.37.38-.15.09-.32.14-.51.14Zm12-4.26v11.64h-1.41v-10.16h-.07l-2.84,1.89v-1.43l2.91-1.93h1.41Zm7.14,11.79c-.86,0-1.58-.23-2.19-.7-.6-.47-1.06-1.15-1.38-2.04-.32-.89-.48-1.97-.48-3.24s.16-2.33.48-3.22c.32-.89.78-1.58,1.39-2.04.61-.47,1.33-.71,2.18-.71s1.57.24,2.18.71c.61.47,1.07,1.15,1.39,2.04.32.89.48,1.96.48,3.22s-.16,2.35-.48,3.24c-.32.89-.78,1.57-1.38,2.04-.6.47-1.33.7-2.19.7Zm0-1.25c.85,0,1.51-.41,1.98-1.23s.71-1.99.71-3.5c0-1.01-.11-1.87-.32-2.57-.21-.71-.52-1.25-.92-1.62-.4-.37-.88-.56-1.44-.56-.84,0-1.5.41-1.97,1.24-.47.83-.71,1.99-.71,3.51,0,1.01.11,1.86.32,2.57s.52,1.24.92,1.61c.4.37.88.55,1.45.55Zm12.14-1.09v-.61c0-.42.09-.81.26-1.16.18-.36.43-.64.77-.85.34-.22.75-.32,1.24-.32s.9.11,1.24.32c.33.21.58.5.75.85.17.35.26.74.26,1.16v.61c0,.42-.09.82-.26,1.17-.17.35-.43.64-.76.85-.33.21-.74.32-1.23.32s-.91-.11-1.24-.32c-.34-.22-.59-.5-.77-.85-.18-.36-.26-.75-.26-1.17Zm1.16-.61v.61c0,.35.08.67.25.95.17.28.46.42.86.42s.68-.14.84-.42c.17-.28.25-.6.25-.95v-.61c0-.35-.08-.67-.24-.94-.16-.28-.44-.42-.85-.42s-.68.14-.86.42c-.17.28-.26.59-.26.94Zm-6.95-6.05v-.61c0-.42.09-.81.26-1.16.18-.36.44-.64.77-.85.34-.22.75-.32,1.24-.32s.9.11,1.24.32c.33.21.58.5.76.85.17.35.26.74.26,1.16v.61c0,.42-.09.81-.26,1.17-.17.35-.42.64-.76.85-.33.21-.74.32-1.23.32s-.91-.11-1.24-.32c-.34-.22-.59-.5-.77-.85-.17-.36-.26-.75-.26-1.17Zm1.16-.61v.61c0,.35.08.67.25.95.17.28.45.42.86.42s.68-.14.84-.42c.17-.28.25-.6.25-.95v-.61c0-.35-.08-.67-.24-.94-.16-.28-.44-.42-.85-.42s-.68.14-.86.42c-.17.28-.26.59-.26.94Zm-.73,9.45l8-11.64h1.29l-8,11.64h-1.29Z"/><path class="cls-2" d="m731.53,202v-11.64h1.41v10.39h5.41v1.25h-6.82Zm8.82,0v-8.73h1.34v8.73h-1.34Zm.68-10.18c-.26,0-.49-.09-.68-.27-.19-.18-.28-.39-.28-.64s.09-.46.28-.64c.19-.18.42-.27.68-.27s.48.09.67.27c.19.18.28.39.28.64s-.1.46-.28.64c-.19.18-.41.27-.67.27Zm4.46,4.93v5.25h-1.34v-8.73h1.3v1.36h.11c.21-.44.52-.8.93-1.07.42-.27.96-.41,1.61-.41.59,0,1.11.12,1.55.36.44.24.79.6,1.03,1.09.25.48.37,1.1.37,1.84v5.54h-1.34v-5.46c0-.68-.18-1.22-.53-1.6-.36-.39-.84-.58-1.47-.58-.43,0-.81.09-1.15.28-.33.19-.6.46-.79.81-.19.36-.29.79-.29,1.29Zm11.54,8.71c-.65,0-1.2-.08-1.67-.25-.47-.16-.85-.38-1.17-.65-.31-.26-.55-.55-.73-.85l1.07-.75c.12.16.28.34.46.54.19.21.44.39.76.54.33.16.75.23,1.28.23.71,0,1.29-.17,1.74-.51.46-.34.69-.88.69-1.6v-1.77h-.11c-.1.16-.24.36-.42.59-.18.23-.44.44-.77.62-.33.18-.78.27-1.35.27-.71,0-1.34-.17-1.9-.5-.56-.33-1-.82-1.32-1.46-.32-.64-.48-1.41-.48-2.32s.16-1.67.47-2.34c.31-.67.75-1.18,1.31-1.55.56-.37,1.21-.55,1.94-.55.57,0,1.02.1,1.35.28.34.19.59.4.77.64.18.23.32.43.42.58h.14v-1.39h1.3v8.98c0,.75-.17,1.36-.51,1.83-.34.47-.79.82-1.36,1.04-.57.22-1.2.34-1.9.34Zm-.04-4.8c.54,0,.99-.12,1.36-.37.37-.25.65-.6.85-1.06.19-.46.29-1.01.29-1.66s-.1-1.18-.28-1.66c-.19-.48-.47-.86-.84-1.13-.37-.27-.83-.41-1.38-.41s-1.04.14-1.42.43c-.38.29-.66.68-.85,1.16-.19.48-.28,1.02-.28,1.61s.09,1.14.28,1.61c.19.46.48.83.85,1.09.38.26.85.39,1.41.39Zm9.93,1.52c-.84,0-1.57-.19-2.18-.56-.61-.38-1.07-.9-1.4-1.57-.33-.67-.49-1.46-.49-2.35s.16-1.68.49-2.36c.33-.69.79-1.22,1.38-1.6.59-.39,1.28-.58,2.07-.58.46,0,.9.08,1.35.23.44.15.85.4,1.21.74.36.34.65.78.87,1.34.22.56.32,1.24.32,2.06v.57h-6.73v-1.16h5.36c0-.49-.1-.93-.3-1.32-.19-.39-.47-.69-.83-.91-.36-.22-.78-.34-1.26-.34-.53,0-1,.13-1.39.4-.39.26-.68.6-.89,1.02-.21.42-.31.87-.31,1.35v.77c0,.66.11,1.22.34,1.68.23.45.55.8.96,1.04.41.24.88.35,1.43.35.35,0,.67-.05.95-.15.29-.1.54-.25.74-.46.21-.21.37-.46.48-.76l1.3.36c-.14.44-.37.83-.69,1.16-.32.33-.72.59-1.19.77-.47.18-1.01.27-1.6.27Zm11.13-1.67c-.28,0-.52-.1-.72-.3-.2-.2-.3-.44-.3-.72s.1-.52.3-.72c.2-.2.44-.3.72-.3s.52.1.72.3c.2.2.3.44.3.72,0,.18-.05.36-.14.51-.09.15-.21.28-.37.38-.15.09-.32.14-.51.14Zm0-5.89c-.28,0-.52-.1-.72-.3-.2-.2-.3-.44-.3-.72s.1-.52.3-.72c.2-.2.44-.3.72-.3s.52.1.72.3c.2.2.3.44.3.72,0,.19-.05.36-.14.51-.09.15-.21.28-.37.38-.15.09-.32.14-.51.14Zm12-4.26v11.64h-1.41v-10.16h-.07l-2.84,1.89v-1.43l2.91-1.93h1.41Zm3.35,11.64v-1.02l3.84-4.2c.45-.49.82-.92,1.11-1.28.29-.37.51-.71.65-1.03.14-.33.22-.67.22-1.02,0-.41-.1-.76-.3-1.06-.19-.3-.46-.53-.8-.69-.34-.16-.72-.24-1.14-.24-.45,0-.84.09-1.17.28-.33.18-.59.44-.77.77-.18.33-.27.72-.27,1.16h-1.34c0-.68.16-1.28.47-1.79s.74-.92,1.28-1.21c.55-.29,1.16-.43,1.84-.43s1.29.14,1.81.43c.53.29.94.68,1.24,1.16.3.49.45,1.03.45,1.63,0,.43-.08.85-.23,1.26-.15.4-.42.86-.79,1.36-.38.5-.9,1.1-1.56,1.82l-2.61,2.79v.09h5.41v1.25h-7.34Zm15.62-2.18v-.61c0-.43.09-.81.26-1.17.18-.36.43-.64.77-.85.34-.22.75-.32,1.24-.32s.91.11,1.24.32c.33.21.58.5.76.85.17.35.26.74.26,1.17v.61c0,.42-.09.82-.26,1.17-.17.35-.42.64-.76.85-.33.21-.74.32-1.23.32s-.91-.11-1.24-.32c-.34-.22-.59-.5-.77-.85-.17-.36-.26-.75-.26-1.17Zm1.16-.61v.61c0,.35.08.67.25.95.17.28.46.42.86.42s.68-.14.84-.42c.17-.28.25-.6.25-.95v-.61c0-.35-.08-.67-.24-.94-.16-.28-.44-.42-.85-.42s-.68.14-.86.42c-.17.28-.26.59-.26.94Zm-6.95-6.05v-.61c0-.42.09-.81.26-1.16.18-.36.44-.64.77-.85.34-.22.75-.32,1.24-.32s.9.11,1.24.32c.33.21.59.5.76.85.17.35.26.74.26,1.16v.61c0,.42-.09.81-.26,1.17-.17.35-.42.64-.76.85-.33.21-.74.32-1.23.32s-.91-.11-1.24-.32c-.34-.22-.59-.5-.77-.85-.17-.36-.26-.75-.26-1.17Zm1.16-.61v.61c0,.35.08.67.25.95.17.28.46.41.86.41s.68-.14.84-.41c.17-.28.25-.6.25-.95v-.61c0-.35-.08-.67-.24-.94-.16-.28-.44-.42-.85-.42s-.68.14-.86.42c-.17.28-.26.59-.26.94Zm-.73,9.46l8-11.64h1.29l-8,11.64h-1.29Z"/><path class="cls-2" d="m60.23,144.27c-.07-.58-.34-1.02-.83-1.34-.48-.32-1.08-.48-1.78-.48-.52,0-.97.08-1.35.25-.38.17-.68.4-.9.69-.21.29-.32.62-.32.99,0,.31.07.58.22.8.15.22.34.4.58.55.23.14.48.26.74.36.26.09.49.16.71.22l1.18.32c.3.08.64.19,1.01.33.38.14.73.33,1.07.57.34.24.63.55.85.92.22.38.34.83.34,1.38,0,.63-.16,1.2-.49,1.7-.33.51-.8.91-1.43,1.21-.62.3-1.38.45-2.28.45-.83,0-1.55-.13-2.16-.4-.61-.27-1.08-.64-1.43-1.12-.34-.48-.54-1.04-.59-1.68h1.45c.04.44.19.8.44,1.09.26.28.59.5.99.64.4.14.83.21,1.3.21.54,0,1.02-.09,1.45-.26.43-.18.77-.42,1.02-.74.25-.32.38-.69.38-1.11,0-.39-.11-.7-.32-.94s-.5-.44-.85-.59c-.35-.15-.73-.28-1.14-.4l-1.43-.41c-.91-.26-1.63-.63-2.16-1.12-.53-.49-.8-1.12-.8-1.9,0-.65.18-1.22.53-1.71.36-.49.83-.87,1.43-1.14.6-.27,1.27-.41,2.02-.41s1.42.13,2,.4c.58.26,1.05.63,1.39,1.09.34.46.53.99.55,1.57h-1.36Zm6.23,8.93c-.55,0-1.05-.1-1.51-.31-.45-.21-.81-.52-1.07-.91-.27-.4-.4-.89-.4-1.45,0-.5.1-.91.3-1.22.2-.32.46-.56.79-.74.33-.18.69-.31,1.09-.4.4-.09.8-.16,1.21-.21.53-.07.96-.12,1.29-.15.33-.04.58-.1.73-.19.16-.09.23-.24.23-.46v-.04c0-.56-.15-1-.46-1.31-.3-.31-.76-.47-1.38-.47s-1.14.14-1.51.42c-.36.28-.62.58-.77.9l-1.27-.45c.23-.53.53-.94.91-1.24.38-.3.8-.51,1.25-.62.45-.12.9-.18,1.34-.18.28,0,.6.03.97.1.37.07.72.2,1.06.4.34.2.63.51.86.93.23.41.34.97.34,1.66v5.75h-1.34v-1.18h-.07c-.09.19-.24.39-.45.61-.21.22-.49.4-.85.55-.35.15-.78.23-1.29.23Zm.2-1.21c.53,0,.98-.1,1.34-.31.37-.21.64-.48.83-.81.19-.33.28-.68.28-1.04v-1.23c-.06.07-.18.13-.38.19-.19.05-.41.1-.66.14-.25.04-.49.07-.72.1-.23.03-.42.05-.56.07-.35.04-.67.12-.98.22-.3.1-.54.25-.73.45-.18.2-.27.47-.27.81,0,.47.17.82.52,1.06.35.24.79.35,1.32.35Zm7.58-4.25v5.25h-1.34v-8.73h1.3v1.36h.11c.2-.44.52-.8.93-1.07.42-.27.95-.41,1.61-.41.59,0,1.11.12,1.55.36.44.24.79.6,1.03,1.09.25.48.37,1.1.37,1.84v5.54h-1.34v-5.46c0-.68-.18-1.22-.53-1.6-.36-.39-.84-.58-1.47-.58-.43,0-.81.09-1.15.28-.33.19-.6.46-.79.81-.19.36-.29.79-.29,1.29Zm8.02,5.25v-8.73h1.34v8.73h-1.34Zm.68-10.18c-.26,0-.49-.09-.68-.27-.19-.18-.28-.39-.28-.64s.09-.46.28-.64c.19-.18.41-.27.68-.27s.48.09.67.27c.19.18.28.39.28.64s-.09.46-.28.64c-.19.18-.41.27-.67.27Zm6.91,1.46v1.14h-4.52v-1.14h4.52Zm-3.2-2.09h1.34v8.32c0,.38.05.66.16.85.11.19.26.31.43.38.18.06.37.09.56.09.15,0,.27,0,.36-.02.09-.02.17-.03.23-.04l.27,1.21c-.09.03-.22.07-.38.1-.16.04-.37.06-.62.06-.38,0-.75-.08-1.11-.24-.36-.16-.66-.41-.9-.74-.23-.33-.35-.75-.35-1.26v-8.68Zm7.79,11.02c-.55,0-1.05-.1-1.51-.31-.45-.21-.81-.52-1.07-.91-.27-.4-.4-.89-.4-1.45,0-.5.1-.91.3-1.22.2-.32.46-.56.79-.74.33-.18.69-.31,1.09-.4.4-.09.81-.16,1.21-.21.53-.07.96-.12,1.29-.15.33-.04.58-.1.73-.19.16-.09.23-.24.23-.46v-.04c0-.56-.15-1-.46-1.31-.3-.31-.76-.47-1.38-.47s-1.14.14-1.51.42c-.36.28-.62.58-.77.9l-1.27-.45c.23-.53.53-.94.91-1.24.38-.3.8-.51,1.25-.62.45-.12.9-.18,1.34-.18.28,0,.6.03.97.1.37.07.72.2,1.06.4.34.2.63.51.86.93.23.41.34.97.34,1.66v5.75h-1.34v-1.18h-.07c-.09.19-.24.39-.45.61-.21.22-.49.4-.85.55-.35.15-.78.23-1.29.23Zm.2-1.21c.53,0,.98-.1,1.34-.31.37-.21.64-.48.83-.81.19-.33.28-.68.28-1.04v-1.23c-.06.07-.18.13-.38.19-.19.05-.41.1-.66.14-.25.04-.49.07-.72.1-.23.03-.42.05-.56.07-.35.04-.67.12-.98.22-.3.1-.54.25-.73.45-.18.2-.27.47-.27.81,0,.47.17.82.52,1.06.35.24.79.35,1.32.35Zm6.24,1v-8.73h1.34v8.73h-1.34Zm.68-10.18c-.26,0-.49-.09-.68-.27-.18-.18-.28-.39-.28-.64s.09-.46.28-.64c.19-.18.42-.27.68-.27s.49.09.67.27c.19.18.28.39.28.64s-.09.46-.28.64c-.19.18-.41.27-.67.27Zm3.11,10.18v-8.73h1.3v1.32h.09c.16-.43.45-.78.86-1.05.42-.27.89-.4,1.41-.4.1,0,.22,0,.37,0s.26,0,.33.02v1.36s-.15-.03-.31-.05c-.16-.03-.33-.04-.51-.04-.42,0-.8.09-1.14.27-.33.17-.59.42-.78.73-.19.31-.28.66-.28,1.05v5.52h-1.34Zm9.35.18c-.84,0-1.57-.19-2.18-.56-.61-.38-1.07-.9-1.4-1.57-.32-.67-.49-1.46-.49-2.35s.16-1.68.49-2.36c.33-.69.79-1.22,1.38-1.6.59-.39,1.28-.58,2.07-.58.45,0,.9.08,1.35.23.44.15.85.4,1.21.74.36.34.65.78.87,1.34.22.56.32,1.24.32,2.06v.57h-6.73v-1.16h5.36c0-.49-.1-.93-.29-1.32-.19-.39-.47-.69-.83-.91-.36-.22-.78-.34-1.26-.34-.53,0-1,.13-1.39.4-.39.26-.68.6-.89,1.02-.21.42-.31.87-.31,1.35v.77c0,.66.11,1.22.34,1.68.23.45.55.8.96,1.04.41.24.88.35,1.43.35.35,0,.67-.05.96-.15.29-.1.54-.25.74-.46.21-.21.37-.46.48-.76l1.29.36c-.14.44-.36.83-.69,1.16-.32.33-.72.59-1.19.77-.47.18-1.01.27-1.6.27Zm11.13-1.67c-.28,0-.52-.1-.72-.3-.2-.2-.3-.44-.3-.72s.1-.52.3-.72c.2-.2.44-.3.72-.3s.52.1.72.3c.2.2.3.44.3.72,0,.18-.05.36-.14.51-.09.15-.21.28-.37.38-.15.09-.32.14-.51.14Zm0-5.89c-.28,0-.52-.1-.72-.3-.2-.2-.3-.44-.3-.72s.1-.52.3-.72c.2-.2.44-.3.72-.3s.52.1.72.3c.2.2.3.44.3.72,0,.19-.05.36-.14.51-.09.15-.21.28-.37.38-.15.09-.32.14-.51.14Zm7.91,7.38v-1.02l3.84-4.2c.45-.49.82-.92,1.11-1.28.29-.37.51-.71.65-1.03.14-.33.22-.67.22-1.02,0-.41-.1-.76-.29-1.06-.19-.3-.46-.53-.8-.69-.34-.16-.72-.24-1.14-.24-.45,0-.84.09-1.17.28-.33.18-.58.44-.77.77-.18.33-.27.72-.27,1.16h-1.34c0-.68.16-1.28.47-1.79.31-.51.74-.92,1.28-1.21.55-.29,1.16-.43,1.83-.43s1.29.14,1.81.43c.53.29.94.68,1.24,1.16.3.49.45,1.03.45,1.63,0,.43-.08.85-.23,1.26-.15.4-.42.86-.79,1.36-.38.5-.9,1.1-1.56,1.82l-2.61,2.79v.09h5.41v1.25h-7.34Zm13.48.16c-.86,0-1.58-.23-2.19-.7-.6-.47-1.06-1.15-1.38-2.04-.32-.89-.48-1.97-.48-3.24s.16-2.33.48-3.22c.32-.89.78-1.58,1.39-2.05.61-.47,1.33-.71,2.18-.71s1.57.24,2.18.71c.61.47,1.07,1.15,1.39,2.05.32.89.48,1.96.48,3.22s-.16,2.34-.48,3.24c-.32.89-.78,1.57-1.38,2.04-.6.47-1.33.7-2.19.7Zm0-1.25c.85,0,1.51-.41,1.98-1.23.47-.82.71-1.99.71-3.5,0-1.01-.11-1.87-.32-2.57-.21-.71-.52-1.25-.92-1.62-.4-.37-.88-.56-1.44-.56-.84,0-1.5.41-1.97,1.24-.47.83-.71,1.99-.71,3.51,0,1.01.11,1.86.32,2.57s.52,1.24.92,1.61c.4.37.88.55,1.45.55Zm12.14-1.09v-.61c0-.43.09-.81.26-1.17.18-.36.43-.64.77-.85.34-.22.75-.32,1.24-.32s.9.11,1.24.32c.33.21.58.5.75.85.17.35.26.74.26,1.17v.61c0,.42-.09.82-.26,1.17-.17.35-.43.64-.76.85-.33.21-.74.32-1.23.32s-.91-.11-1.24-.32c-.34-.22-.59-.5-.77-.85-.18-.36-.26-.75-.26-1.17Zm1.16-.61v.61c0,.35.08.67.25.95.17.28.46.42.86.42s.68-.14.84-.42c.17-.28.25-.6.25-.95v-.61c0-.35-.08-.67-.24-.94-.16-.28-.44-.42-.85-.42s-.68.14-.86.42c-.17.28-.26.59-.26.94Zm-6.95-6.05v-.61c0-.42.09-.81.26-1.16.18-.36.44-.64.77-.85.34-.22.75-.32,1.24-.32s.9.11,1.24.32c.33.21.58.5.76.85.17.35.26.74.26,1.16v.61c0,.42-.09.81-.26,1.17-.17.35-.42.64-.76.85-.33.21-.74.32-1.23.32s-.91-.11-1.24-.32c-.34-.22-.59-.5-.77-.85-.17-.36-.26-.75-.26-1.17Zm1.16-.61v.61c0,.35.08.67.25.95.17.28.45.41.86.41s.68-.14.84-.41c.17-.28.25-.6.25-.95v-.61c0-.35-.08-.67-.24-.94-.16-.28-.44-.42-.85-.42s-.68.14-.86.42c-.17.28-.26.59-.26.94Zm-.73,9.46l8-11.64h1.29l-8,11.64h-1.29Z"/><path class="cls-2" d="m735.28,73h-3.59v-11.64h3.75c1.13,0,2.09.23,2.9.7.8.46,1.42,1.13,1.85,1.99.43.86.64,1.9.64,3.1s-.22,2.26-.65,3.13c-.43.87-1.06,1.54-1.89,2.01-.83.47-1.83.7-3.01.7Zm-2.18-1.25h2.09c.96,0,1.76-.19,2.39-.56.63-.37,1.11-.9,1.42-1.59.31-.69.47-1.5.47-2.45s-.15-1.75-.46-2.43c-.31-.68-.77-1.2-1.38-1.57-.61-.37-1.37-.55-2.28-.55h-2.25v9.14Zm13.46,1.43c-.79,0-1.48-.19-2.07-.56-.59-.38-1.05-.9-1.39-1.57-.33-.67-.49-1.46-.49-2.36s.16-1.7.49-2.38c.33-.68.79-1.2,1.39-1.58.6-.38,1.29-.56,2.07-.56s1.48.19,2.07.56c.59.38,1.06.9,1.39,1.58.33.68.5,1.47.5,2.38s-.17,1.69-.5,2.36c-.33.67-.79,1.2-1.39,1.57-.59.38-1.28.56-2.07.56Zm0-1.2c.6,0,1.09-.15,1.48-.46.39-.31.67-.71.86-1.21.19-.5.28-1.04.28-1.62s-.09-1.13-.28-1.63c-.18-.5-.47-.91-.86-1.22-.39-.31-.88-.47-1.48-.47s-1.09.16-1.48.47c-.39.31-.67.72-.86,1.22-.19.5-.28,1.05-.28,1.63s.09,1.12.28,1.62c.18.5.47.9.86,1.21.39.31.88.46,1.48.46Zm11.5-2.55v-5.16h1.34v8.73h-1.34v-1.48h-.09c-.2.44-.52.82-.95,1.13-.43.31-.98.46-1.64.46-.55,0-1.03-.12-1.46-.36-.42-.24-.76-.61-1-1.09-.24-.49-.36-1.1-.36-1.85v-5.55h1.34v5.45c0,.64.18,1.14.53,1.52.36.38.82.57,1.38.57.33,0,.67-.09,1.02-.26.35-.17.64-.43.88-.78.24-.35.36-.8.36-1.35Zm7.34,3.75c-.82,0-1.52-.19-2.11-.58-.59-.39-1.04-.92-1.36-1.6-.32-.68-.48-1.45-.48-2.32s.16-1.67.49-2.35c.33-.68.79-1.21,1.38-1.6.59-.39,1.28-.58,2.07-.58.61,0,1.17.11,1.66.34.49.23.9.55,1.21.95.32.41.51.89.59,1.43h-1.34c-.1-.4-.33-.75-.68-1.06-.35-.31-.82-.47-1.41-.47-.52,0-.98.14-1.38.41-.39.27-.7.65-.92,1.14-.22.49-.32,1.06-.32,1.72s.11,1.26.32,1.76c.22.5.52.89.91,1.16.39.28.86.41,1.39.41.35,0,.66-.06.95-.18.28-.12.52-.3.72-.52.2-.23.34-.5.42-.82h1.34c-.08.52-.26.98-.56,1.39-.3.41-.69.73-1.18.98-.48.24-1.05.36-1.69.36Zm6.73-5.43v5.25h-1.34v-11.64h1.34v4.27h.11c.2-.45.51-.81.92-1.07.41-.27.96-.4,1.65-.4.59,0,1.12.12,1.56.36.45.23.79.6,1.04,1.09.25.48.38,1.1.38,1.85v5.55h-1.34v-5.45c0-.69-.18-1.23-.54-1.61-.36-.38-.85-.57-1.48-.57-.44,0-.83.09-1.18.28-.34.19-.62.46-.82.81-.2.36-.3.79-.3,1.3Zm11.77,5.43c-.84,0-1.57-.19-2.18-.56-.61-.38-1.07-.9-1.4-1.57-.33-.67-.49-1.46-.49-2.35s.16-1.68.49-2.36c.33-.69.79-1.22,1.38-1.6.59-.39,1.28-.58,2.07-.58.45,0,.9.08,1.35.23.44.15.85.4,1.21.74.36.34.65.78.87,1.34.22.56.32,1.24.32,2.06v.57h-6.73v-1.16h5.36c0-.49-.1-.93-.29-1.32-.19-.39-.47-.69-.83-.91-.36-.22-.78-.34-1.26-.34-.53,0-1,.13-1.39.4-.39.26-.68.6-.89,1.02-.21.42-.31.87-.31,1.35v.77c0,.66.11,1.22.34,1.68.23.45.55.8.96,1.04.41.23.88.35,1.43.35.35,0,.67-.05.96-.15.29-.1.54-.25.74-.45.21-.2.37-.46.48-.76l1.3.36c-.14.44-.37.83-.69,1.16-.32.33-.72.59-1.19.77-.47.18-1.01.27-1.6.27Zm9.77-12.36l-3.75,13.93h-1.23l3.75-13.93h1.23Zm1.77,12.18v-11.64h1.34v4.3h.11c.1-.15.23-.34.41-.58.18-.24.43-.45.76-.64.33-.19.78-.28,1.35-.28.73,0,1.38.18,1.94.55.56.37,1,.89,1.31,1.56.32.67.47,1.47.47,2.39s-.16,1.73-.47,2.4c-.31.67-.75,1.2-1.31,1.57-.56.37-1.2.55-1.93.55-.56,0-1.01-.09-1.35-.28-.34-.19-.6-.4-.78-.64-.18-.24-.32-.44-.42-.6h-.16v1.34h-1.3Zm1.32-4.36c0,.66.1,1.24.29,1.74.19.5.48.89.85,1.18.37.28.83.42,1.36.42s1.03-.15,1.4-.44c.38-.3.66-.7.85-1.2.19-.51.29-1.07.29-1.69s-.1-1.17-.28-1.66c-.19-.5-.47-.89-.85-1.18-.38-.29-.85-.44-1.41-.44s-1,.14-1.38.41c-.37.27-.65.66-.84,1.15-.19.49-.28,1.06-.28,1.71Zm11.01,4.57c-.55,0-1.05-.1-1.51-.31-.45-.21-.81-.52-1.07-.91-.27-.4-.4-.89-.4-1.45,0-.5.1-.91.29-1.22.2-.31.46-.56.79-.74.33-.18.69-.31,1.09-.4.4-.09.8-.16,1.21-.22.53-.07.96-.12,1.29-.15.33-.04.58-.1.73-.19.16-.09.23-.24.23-.45v-.05c0-.56-.15-1-.46-1.31-.3-.31-.76-.47-1.38-.47s-1.14.14-1.5.42c-.36.28-.62.58-.77.9l-1.27-.45c.23-.53.53-.94.91-1.24.38-.3.8-.51,1.25-.62.46-.12.9-.18,1.34-.18.28,0,.6.03.97.1.37.06.72.2,1.06.4.34.2.63.51.86.93.23.41.34.97.34,1.66v5.75h-1.34v-1.18h-.07c-.09.19-.24.39-.45.61-.21.22-.49.4-.85.55-.35.15-.78.23-1.29.23Zm.21-1.2c.53,0,.98-.1,1.34-.31.37-.21.64-.48.83-.81.19-.33.28-.68.28-1.04v-1.23c-.06.07-.18.13-.38.19-.19.05-.41.1-.66.14-.25.04-.49.07-.72.1-.23.03-.42.05-.56.07-.35.05-.67.12-.98.22-.3.1-.54.25-.73.45-.18.2-.27.47-.27.81,0,.47.17.82.52,1.06.35.23.79.35,1.32.35Zm6.24,1v-8.73h1.34v8.73h-1.34Zm.68-10.18c-.26,0-.49-.09-.68-.27-.18-.18-.28-.39-.28-.64s.09-.46.28-.64c.19-.18.42-.27.68-.27s.48.09.67.27c.19.18.28.39.28.64s-.1.46-.28.64c-.19.18-.41.27-.67.27Zm4.46,4.93v5.25h-1.34v-8.73h1.3v1.36h.11c.2-.44.51-.8.93-1.07.42-.27.96-.41,1.61-.41.59,0,1.11.12,1.55.36.44.24.79.6,1.03,1.09.25.48.37,1.1.37,1.84v5.55h-1.34v-5.45c0-.69-.18-1.22-.53-1.6-.36-.39-.85-.58-1.47-.58-.43,0-.81.09-1.15.28-.33.19-.6.46-.79.81-.19.36-.29.79-.29,1.3Zm13.5,3.76c-.28,0-.52-.1-.72-.3-.2-.2-.3-.44-.3-.72s.1-.52.3-.72c.2-.2.44-.3.72-.3s.52.1.72.3c.2.2.3.44.3.72,0,.19-.05.36-.14.51-.09.16-.21.28-.37.38-.15.09-.32.14-.51.14Zm0-5.89c-.28,0-.52-.1-.72-.3-.2-.2-.3-.44-.3-.72s.1-.52.3-.72c.2-.2.44-.3.72-.3s.52.1.72.3c.2.2.3.44.3.72,0,.19-.05.36-.14.51-.09.16-.21.28-.37.38-.15.09-.32.14-.51.14Zm11.84,7.53c-.75,0-1.42-.13-2.01-.39-.58-.26-1.05-.62-1.39-1.07-.34-.46-.53-1-.56-1.61h1.43c.03.38.16.7.39.97.23.27.52.48.89.62.37.15.77.22,1.22.22.5,0,.94-.09,1.33-.26.39-.17.69-.42.91-.73.22-.31.33-.67.33-1.08s-.11-.8-.32-1.13c-.21-.33-.52-.59-.93-.77s-.91-.28-1.5-.28h-.93v-1.25h.93c.46,0,.87-.08,1.22-.25.35-.17.63-.4.82-.7.2-.3.3-.66.3-1.07s-.09-.74-.26-1.03c-.17-.29-.42-.52-.74-.68-.32-.16-.69-.24-1.11-.24-.4,0-.78.07-1.14.22-.35.14-.64.35-.86.63-.22.27-.34.6-.36.99h-1.36c.02-.61.21-1.14.55-1.6.34-.46.79-.82,1.35-1.08.56-.26,1.18-.39,1.85-.39.72,0,1.34.15,1.85.44.52.29.91.67,1.19,1.14.28.47.41.98.41,1.53,0,.66-.17,1.21-.52,1.68-.34.46-.8.78-1.39.96v.09c.73.12,1.31.43,1.72.94.41.5.62,1.12.62,1.86,0,.63-.17,1.2-.52,1.7-.34.5-.81.89-1.4,1.18-.59.29-1.26.43-2.02.43Zm9.96-11.95c.48,0,.96.09,1.43.27.48.18.91.47,1.31.89.39.41.71.97.95,1.68.24.71.36,1.6.36,2.66s-.1,1.95-.3,2.76c-.19.8-.47,1.47-.84,2.02-.36.55-.81.97-1.33,1.25-.52.28-1.11.43-1.76.43s-1.23-.13-1.74-.39c-.51-.26-.92-.62-1.25-1.09-.32-.47-.53-1.01-.62-1.62h1.39c.12.53.37.98.74,1.32.38.34.87.52,1.48.52.9,0,1.61-.39,2.12-1.18.52-.78.78-1.89.78-3.32h-.09c-.21.32-.46.59-.76.82-.29.23-.61.41-.97.53-.36.12-.73.19-1.14.19-.67,0-1.28-.16-1.84-.49-.55-.33-1-.79-1.33-1.37-.33-.58-.49-1.25-.49-2s.16-1.36.48-1.95c.32-.59.77-1.07,1.35-1.42.58-.35,1.27-.52,2.06-.51Zm0,1.25c-.48,0-.91.12-1.29.36-.38.23-.68.55-.9.95-.22.4-.33.84-.33,1.32s.11.93.32,1.32c.22.39.51.71.88.94.38.23.8.35,1.28.35.36,0,.7-.07,1.01-.21.31-.14.58-.34.81-.59.23-.25.42-.53.55-.85.13-.32.2-.65.2-.99,0-.45-.11-.88-.33-1.28-.22-.4-.52-.72-.9-.97-.38-.25-.81-.37-1.3-.37Zm12.21,8.36v-.61c0-.42.09-.81.26-1.16.18-.36.44-.64.77-.85.34-.22.75-.32,1.24-.32s.91.11,1.24.32c.33.21.59.5.76.85.17.35.26.74.26,1.16v.61c0,.42-.09.81-.26,1.17-.17.35-.42.64-.76.85-.33.21-.74.32-1.23.32s-.91-.11-1.24-.32c-.34-.22-.59-.5-.77-.85-.17-.36-.26-.75-.26-1.17Zm1.16-.61v.61c0,.35.08.67.25.95.17.28.46.41.86.41s.68-.14.84-.41c.17-.28.25-.6.25-.95v-.61c0-.35-.08-.67-.24-.94-.16-.28-.44-.42-.85-.42s-.68.14-.86.42c-.17.28-.26.59-.26.94Zm-6.95-6.05v-.61c0-.42.09-.81.26-1.16.18-.36.44-.64.77-.85.34-.22.75-.32,1.24-.32s.91.11,1.24.32c.33.21.59.5.76.85.17.35.25.74.25,1.16v.61c0,.42-.09.81-.26,1.17-.17.35-.42.64-.76.85-.33.21-.74.32-1.23.32s-.91-.11-1.24-.32c-.34-.22-.59-.5-.77-.85-.17-.36-.26-.75-.26-1.17Zm1.16-.61v.61c0,.35.08.67.25.95.17.28.45.41.86.41s.68-.14.84-.41c.17-.28.25-.6.25-.95v-.61c0-.35-.08-.67-.24-.94-.16-.28-.44-.42-.85-.42s-.68.14-.86.42c-.17.28-.26.59-.26.94Zm-.73,9.45l8-11.64h1.3l-8,11.64h-1.3Z"/></svg>