<?xml version="1.0" encoding="UTF-8"?><svg id="Calque_1" xmlns="http://www.w3.org/2000/svg" xmlns:xlink="http://www.w3.org/1999/xlink" viewBox="0 0 1593.39 871.44"><defs><style>.cls-1{letter-spacing:.01em;}.cls-2{letter-spacing:-.04em;}.cls-3{letter-spacing:.02em;}.cls-4{letter-spacing:0em;}.cls-5{letter-spacing:-.01em;}.cls-6{clip-path:url(#clippath-2);}.cls-7{stroke-linecap:round;}.cls-7,.cls-8,.cls-9{stroke-width:4px;}.cls-7,.cls-8,.cls-9,.cls-10{fill:none;}.cls-7,.cls-9{stroke:#000;}.cls-8{stroke:#1d1d1b;}.cls-11,.cls-12,.cls-13{font-family:Boska-Medium, Boska;font-weight:500;}.cls-11,.cls-14{font-size:36.41px;}.cls-15{clip-path:url(#clippath-1);}.cls-16{clip-path:url(#clippath-4);}.cls-17{letter-spacing:0em;}.cls-18{letter-spacing:0em;}.cls-19{letter-spacing:0em;}.cls-20{letter-spacing:-.02em;}.cls-21{font-size:30px;}.cls-22{letter-spacing:0em;}.cls-23{letter-spacing:-.02em;}.cls-24{letter-spacing:0em;}.cls-25{clip-path:url(#clippath);}.cls-26{clip-path:url(#clippath-3);}.cls-27{letter-spacing:0em;}.cls-28{clip-path:url(#clippath-5);}.cls-13{font-size:48px;}.cls-29{letter-spacing:-.02em;}.cls-30{letter-spacing:.02em;}</style><clipPath id="clippath"><path class="cls-10" d="m700.53,354.83v460.04h181.14v-460.04h-181.14Zm168.25,246.32h-157.64v-70.48h157.64v70.48Z"/></clipPath><clipPath id="clippath-1"><rect class="cls-10" x="700.91" y="353.32" width="177.88" height="461.97"/></clipPath><clipPath id="clippath-2"><path class="cls-10" d="m48.74,207.04v607.83h181.14V207.04H48.74Zm168.25,325.45H59.35v-93.13h157.64v93.13Z"/></clipPath><clipPath id="clippath-3"><rect class="cls-10" x="49.12" y="204.77" width="177.88" height="610.52"/></clipPath><clipPath id="clippath-4"><path class="cls-10" d="m1321.75,362.42v460.04h186.52v-460.04h-186.52Zm173.25,286.22h-162.32v-110.39h162.32v110.39Z"/></clipPath><clipPath id="clippath-5"><rect class="cls-10" x="1327.51" y="360.91" width="177.88" height="461.97"/></clipPath></defs><path class="cls-9" d="m49,815.29V163.29"/><path class="cls-9" d="m12.32,825.55V146.07"/><ellipse cx="31.5" cy="151.29" rx="21.5" ry="22"/><ellipse cx="31.43" cy="825.69" rx="21.44" ry="20.1"/><path class="cls-9" d="m227,163.29v652"/><path class="cls-9" d="m259.55,149.53v679.48"/><ellipse cx="240.5" cy="825.29" rx="21.5" ry="20"/><ellipse cx="240.44" cy="149.39" rx="21.44" ry="20.1"/><path class="cls-9" d="m47,163.29h180"/><path class="cls-9" d="m27,131.29h219.19"/><path class="cls-9" d="m47,204.29h180"/><path class="cls-9" d="m228,815.29H49"/><path class="cls-9" d="m248.19,842.29H29"/><path class="cls-9" d="m700.79,815.29V163.29"/><path class="cls-9" d="m664.11,825.55V146.07"/><ellipse cx="683.29" cy="151.29" rx="21.5" ry="22"/><ellipse cx="683.22" cy="825.69" rx="21.44" ry="20.1"/><path class="cls-9" d="m878.79,163.29v652"/><path class="cls-9" d="m911.34,149.53v679.48"/><ellipse cx="892.29" cy="825.29" rx="21.5" ry="20"/><ellipse cx="892.23" cy="149.39" rx="21.44" ry="20.1"/><path class="cls-9" d="m698.79,163.29h180"/><path class="cls-9" d="m678.79,131.29h219.19"/><path class="cls-9" d="m698.79,356.63h180"/><path class="cls-9" d="m698.79,191.03h180"/><path class="cls-9" d="m879.79,815.29h-179"/><path class="cls-9" d="m899.98,842.29h-219.19"/><path class="cls-9" d="m1325.46,814.48V162.48"/><path class="cls-9" d="m1288.78,824.74V145.26"/><ellipse cx="1307.96" cy="150.48" rx="21.5" ry="22"/><ellipse cx="1307.89" cy="824.88" rx="21.44" ry="20.1"/><path class="cls-9" d="m1503.46,162.48v652"/><path class="cls-9" d="m1536,148.71v679.48"/><ellipse cx="1516.96" cy="824.48" rx="21.5" ry="20"/><ellipse cx="1516.89" cy="148.58" rx="21.44" ry="20.1"/><path class="cls-9" d="m1323.46,162.48h180"/><path class="cls-9" d="m1303.46,130.48h219.19"/><path class="cls-9" d="m1325.98,230.26h180"/><path class="cls-9" d="m1325.98,361.63h180"/><path class="cls-9" d="m1504.46,814.48h-179"/><path class="cls-9" d="m1524.65,841.48h-219.19"/><path class="cls-7" d="m813.67,307.54h12m23.5,27.5h12"/><path class="cls-7" d="m725.94,307.54h12m23.5,27.5h12"/><path class="cls-7" d="m1428.48,299.65h12m23.5,27.5h12"/><path class="cls-7" d="m1340.76,299.65h12m23.5,27.5h12"/><path class="cls-7" d="m1428.48,249.63h12m23.5,27.5h12"/><path class="cls-7" d="m1340.76,249.63h12m23.5,27.5h12"/><path class="cls-7" d="m813.67,255.34h12m23.5,27.5h12"/><path class="cls-7" d="m725.94,255.34h12m23.5,27.5h12"/><path class="cls-7" d="m813.67,196.98h12m23.5,27.5h12"/><path class="cls-7" d="m725.94,196.98h12m23.5,27.5h12"/><polyline class="cls-8" points="208.66 184.31 293.54 184.31 570.55 461.32 570.55 73.66 678.55 73.66"/><polyline class="cls-8" points="570.68 457.91 570.68 869.44 680.07 869.44"/><polyline class="cls-8" points="827.35 177.87 919.56 177.87 1189.25 461.32 1189.25 73.66 1297.25 73.66"/><polyline class="cls-8" points="1189.37 457.91 1189.37 869.44 1298.76 869.44"/><text class="cls-13" transform="translate(25.94 41.16)"><tspan class="cls-30" x="0" y="0">E</tspan><tspan x="25.2" y="0">au po</tspan><tspan class="cls-22" x="134.54" y="0">ta</tspan><tspan x="171.88" y="0">ble</tspan><tspan x="69.02" y="57.6">2</tspan><tspan class="cls-27" x="91.77" y="57.6">.</tspan><tspan x="100.99" y="57.6">5%</tspan></text><text class="cls-13" transform="translate(647.79 41.16)"><tspan class="cls-30" x="0" y="0">E</tspan><tspan x="25.2" y="0">au en sur</tspan><tspan class="cls-22" x="209.42" y="0">f</tspan><tspan x="222.62" y="0">a</tspan><tspan class="cls-22" x="245.51" y="0">c</tspan><tspan class="cls-19" x="266.2" y="0">e</tspan><tspan x="100.37" y="57.6">1.2%</tspan></text><text class="cls-12" transform="translate(737.88 560.68)"><tspan class="cls-14"><tspan x="0" y="0">Glacier</tspan></tspan><tspan class="cls-21"><tspan class="cls-4" x="24.24" y="36">6</tspan><tspan x="38.88" y="36">8%</tspan></tspan></text><text class="cls-12" transform="translate(81.14 477.43)"><tspan class="cls-14"><tspan x="0" y="0">O</tspan><tspan class="cls-5" x="19.95" y="0">c</tspan><tspan x="35.64" y="0">éans</tspan></tspan><tspan class="cls-21"><tspan x="26.01" y="36">95%</tspan></tspan></text><text class="cls-11" transform="translate(761.4 260.61)"><tspan class="cls-3" x="0" y="0">E</tspan><tspan class="cls-18" x="19.11" y="0">au</tspan><tspan x="-57.94" y="43.69">so</tspan><tspan class="cls-24" x="-24.52" y="43.69">u</tspan><tspan class="cls-23" x="-4.79" y="43.69">t</tspan><tspan x="6.17" y="43.69">er</tspan><tspan class="cls-20" x="36.83" y="43.69">r</tspan><tspan class="cls-18" x="50.08" y="43.69">aine</tspan></text><g class="cls-25"><g class="cls-15"><path class="cls-9" d="m704.79,746.82c0,20.15,3.45,58.47,53.22,58.47s49.78-42.75,49.78-58.47-8.38-55.53-49.78-55.53-53.22,61.91,0,61.91"/><path class="cls-9" d="m704.79,518.82c0,20.15,3.45,58.47,53.22,58.47s49.78-42.75,49.78-58.47-8.38-55.53-49.78-55.53-53.22,61.91,0,61.91"/><path class="cls-9" d="m704.79,290.82c0,20.15,3.45,58.47,53.22,58.47s49.78-42.75,49.78-58.47-8.38-55.53-49.78-55.53-53.22,61.91,0,61.91"/><path class="cls-9" d="m807.79,746.82c0,20.15,3.45,58.47,53.23,58.47s49.77-42.75,49.77-58.47-8.38-55.53-49.77-55.53-53.23,61.91,0,61.91"/><path class="cls-9" d="m807.79,518.82c0,20.15,3.45,58.47,53.23,58.47s49.77-42.75,49.77-58.47-8.38-55.53-49.77-55.53-53.23,61.91,0,61.91"/><path class="cls-9" d="m807.79,290.82c0,20.15,3.45,58.47,53.23,58.47s49.77-42.75,49.77-58.47-8.38-55.53-49.77-55.53-53.23,61.91,0,61.91"/><path class="cls-9" d="m861.79,632.82c0,20.15,3.45,58.47,53.23,58.47s49.77-42.75,49.77-58.47-8.38-55.53-49.77-55.53-53.23,61.91,0,61.91"/><path class="cls-9" d="m861.79,404.82c0,20.15,3.45,58.47,53.23,58.47s49.77-42.75,49.77-58.47-8.38-55.53-49.77-55.53-53.23,61.91,0,61.91"/><path class="cls-9" d="m861.79,176.82c0,20.15,3.45,58.47,53.23,58.47s49.77-42.75,49.77-58.47-8.38-55.53-49.77-55.53-53.23,61.91,0,61.91"/><path class="cls-9" d="m756.79,632.82c0,20.15,3.45,58.47,53.23,58.47s49.77-42.75,49.77-58.47-8.38-55.53-49.77-55.53-53.23,61.91,0,61.91"/><path class="cls-9" d="m756.79,404.82c0,20.15,3.45,58.47,53.23,58.47s49.77-42.75,49.77-58.47-8.38-55.53-49.77-55.53-53.23,61.91,0,61.91"/><path class="cls-9" d="m756.79,176.82c0,20.15,3.45,58.47,53.23,58.47s49.77-42.75,49.77-58.47-8.38-55.53-49.77-55.53-53.23,61.91,0,61.91"/><path class="cls-9" d="m653.79,632.82c0,20.15,3.45,58.47,53.22,58.47s49.78-42.75,49.78-58.47-8.38-55.53-49.78-55.53-53.22,61.91,0,61.91"/><path class="cls-9" d="m653.79,404.82c0,20.15,3.45,58.47,53.22,58.47s49.78-42.75,49.78-58.47-8.38-55.53-49.78-55.53-53.22,61.91,0,61.91"/><path class="cls-9" d="m653.79,176.82c0,20.15,3.45,58.47,53.22,58.47s49.78-42.75,49.78-58.47-8.38-55.53-49.78-55.53-53.22,61.91,0,61.91"/></g></g><g class="cls-6"><g class="cls-26"><path class="cls-9" d="m53,746.82c0,20.15,3.45,58.47,53.22,58.47s49.78-42.75,49.78-58.47-8.38-55.53-49.78-55.53-53.22,61.91,0,61.91"/><path class="cls-9" d="m53,518.82c0,20.15,3.45,58.47,53.22,58.47s49.78-42.75,49.78-58.47-8.38-55.53-49.78-55.53-53.22,61.91,0,61.91"/><path class="cls-9" d="m53,290.82c0,20.15,3.45,58.47,53.22,58.47s49.78-42.75,49.78-58.47-8.38-55.53-49.78-55.53-53.22,61.91,0,61.91"/><path class="cls-9" d="m156,746.82c0,20.15,3.45,58.47,53.23,58.47s49.77-42.75,49.77-58.47-8.38-55.53-49.77-55.53-53.23,61.91,0,61.91"/><path class="cls-9" d="m156,518.82c0,20.15,3.45,58.47,53.23,58.47s49.77-42.75,49.77-58.47-8.38-55.53-49.77-55.53-53.23,61.91,0,61.91"/><path class="cls-9" d="m156,290.82c0,20.15,3.45,58.47,53.23,58.47s49.77-42.75,49.77-58.47-8.38-55.53-49.77-55.53-53.23,61.91,0,61.91"/><path class="cls-9" d="m210,632.82c0,20.15,3.45,58.47,53.23,58.47s49.77-42.75,49.77-58.47-8.38-55.53-49.77-55.53-53.23,61.91,0,61.91"/><path class="cls-9" d="m210,404.82c0,20.15,3.45,58.47,53.23,58.47s49.77-42.75,49.77-58.47-8.38-55.53-49.77-55.53-53.23,61.91,0,61.91"/><path class="cls-9" d="m210,176.82c0,20.15,3.45,58.47,53.23,58.47s49.77-42.75,49.77-58.47-8.38-55.53-49.77-55.53-53.23,61.91,0,61.91"/><path class="cls-9" d="m105,632.82c0,20.15,3.45,58.47,53.23,58.47s49.77-42.75,49.77-58.47-8.38-55.53-49.77-55.53-53.23,61.91,0,61.91"/><path class="cls-9" d="m105,404.82c0,20.15,3.45,58.47,53.23,58.47s49.77-42.75,49.77-58.47-8.38-55.53-49.77-55.53-53.23,61.91,0,61.91"/><path class="cls-9" d="m105,176.82c0,20.15,3.45,58.47,53.23,58.47s49.77-42.75,49.77-58.47-8.38-55.53-49.77-55.53-53.23,61.91,0,61.91"/><path class="cls-9" d="m2,632.82c0,20.15,3.45,58.47,53.22,58.47s49.78-42.75,49.78-58.47-8.38-55.53-49.78-55.53-53.22,61.91,0,61.91"/><path class="cls-9" d="m2,404.82c0,20.15,3.45,58.47,53.22,58.47s49.78-42.75,49.78-58.47-8.38-55.53-49.78-55.53-53.22,61.91,0,61.91"/><path class="cls-9" d="m2,176.82c0,20.15,3.45,58.47,53.22,58.47s49.78-42.75,49.78-58.47-8.38-55.53-49.78-55.53-53.22,61.91,0,61.91"/></g></g><text class="cls-11" transform="translate(1330.63 582.79)"><tspan class="cls-2" x="0" y="0">T</tspan><tspan x="17.73" y="0">er</tspan><tspan class="cls-29" x="48.39" y="0">r</tspan><tspan x="61.53" y="0">e </tspan><tspan class="cls-17" x="86.21" y="0">g</tspan><tspan x="103" y="0">elée</tspan><tspan x="47.48" y="43.69">69%</tspan></text><text class="cls-11" transform="translate(1385.45 289.15)"><tspan class="cls-1" x="0" y="0">L</tspan><tspan class="cls-18" x="18.64" y="0">acs</tspan><tspan x="-.31" y="43.69">20%</tspan></text><text class="cls-11" transform="translate(1362.83 206.37)"><tspan class="cls-23" x="0" y="0">A</tspan><tspan class="cls-24" x="21.55" y="0">u</tspan><tspan x="41.29" y="0">t</tspan><tspan class="cls-29" x="52.97" y="0">r</tspan><tspan x="66.12" y="0">es</tspan></text><g class="cls-16"><g class="cls-28"><path class="cls-9" d="m1331.39,754.41c0,20.15,3.45,58.47,53.22,58.47s49.78-42.75,49.78-58.47-8.38-55.53-49.78-55.53-53.22,61.91,0,61.91"/><path class="cls-9" d="m1331.39,526.41c0,20.15,3.45,58.47,53.22,58.47s49.78-42.75,49.78-58.47-8.38-55.53-49.78-55.53-53.22,61.91,0,61.91"/><path class="cls-9" d="m1331.39,298.41c0,20.15,3.45,58.47,53.22,58.47s49.78-42.75,49.78-58.47-8.38-55.53-49.78-55.53-53.22,61.91,0,61.91"/><path class="cls-9" d="m1434.39,754.41c0,20.15,3.45,58.47,53.23,58.47s49.77-42.75,49.77-58.47-8.38-55.53-49.77-55.53-53.23,61.91,0,61.91"/><path class="cls-9" d="m1434.39,526.41c0,20.15,3.45,58.47,53.23,58.47s49.77-42.75,49.77-58.47-8.38-55.53-49.77-55.53-53.23,61.91,0,61.91"/><path class="cls-9" d="m1434.39,298.41c0,20.15,3.45,58.47,53.23,58.47s49.77-42.75,49.77-58.47-8.38-55.53-49.77-55.53-53.23,61.91,0,61.91"/><path class="cls-9" d="m1488.39,640.41c0,20.15,3.45,58.47,53.23,58.47s49.77-42.75,49.77-58.47-8.38-55.53-49.77-55.53-53.23,61.91,0,61.91"/><path class="cls-9" d="m1488.39,412.41c0,20.15,3.45,58.47,53.23,58.47s49.77-42.75,49.77-58.47-8.38-55.53-49.77-55.53-53.23,61.91,0,61.91"/><path class="cls-9" d="m1488.39,184.41c0,20.15,3.45,58.47,53.23,58.47s49.77-42.75,49.77-58.47-8.38-55.53-49.77-55.53-53.23,61.91,0,61.91"/><path class="cls-9" d="m1383.39,640.41c0,20.15,3.45,58.47,53.23,58.47s49.77-42.75,49.77-58.47-8.38-55.53-49.77-55.53-53.23,61.91,0,61.91"/><path class="cls-9" d="m1383.39,412.41c0,20.15,3.45,58.47,53.23,58.47s49.77-42.75,49.77-58.47-8.38-55.53-49.77-55.53-53.23,61.91,0,61.91"/><path class="cls-9" d="m1383.39,184.41c0,20.15,3.45,58.47,53.23,58.47s49.77-42.75,49.77-58.47-8.38-55.53-49.77-55.53-53.23,61.91,0,61.91"/><path class="cls-9" d="m1280.39,640.41c0,20.15,3.45,58.47,53.22,58.47s49.78-42.75,49.78-58.47-8.38-55.53-49.78-55.53-53.22,61.91,0,61.91"/><path class="cls-9" d="m1280.39,412.41c0,20.15,3.45,58.47,53.22,58.47s49.78-42.75,49.78-58.47-8.38-55.53-49.78-55.53-53.22,61.91,0,61.91"/><path class="cls-9" d="m1280.39,184.41c0,20.15,3.45,58.47,53.22,58.47s49.78-42.75,49.78-58.47-8.38-55.53-49.78-55.53-53.22,61.91,0,61.91"/></g></g></svg>