<?xml version="1.0" encoding="UTF-8"?><svg id="Calque_1" xmlns="http://www.w3.org/2000/svg" viewBox="0 0 645.95 228.9"><path d="m634.47,21H10.47V0h624v21ZM15.47,16h614V5H15.47v11Z"/><path d="m26.4,215.44H0V15.74h26.4v199.7Zm-21.4-5h16.4V20.74H5v189.7Z"/><path d="m302.1,224.33H9.2v-22.9h292.9v22.9Zm-287.9-5h282.9v-12.9H14.2v12.9Z"/><path d="m630.18,224.33h-284.7v-23h284.7v23Zm-279.7-5h274.7v-13h-274.7v13Z"/><path d="m323.57,228.9l-15.91-15.91,16.26-16.26,15.91,15.91-16.26,16.26Zm-8.84-15.91l8.84,8.84,9.19-9.19-8.84-8.84-9.19,9.19Z"/><path d="m645.95,215.39h-28.1V15.69h28.1v199.7Zm-23.1-5h18.1V20.69h-18.1v189.7Z"/><path d="m40.27,51.1c-5.71,0-10.23-1.67-13.42-4.97-5.95-6.15-5.63-16.08-5.43-22.02.03-.84.05-1.59.05-2.22,0-11.15,6.33-16.8,18.8-16.8,15.82,0,19,8.19,19,21.4,0,3.75-1.28,6.8-3.8,9.06-5.52,4.95-15.07,3.97-15.47,3.93l-2.23-.24v-12.74h5v8.09c2.82-.05,6.97-.6,9.37-2.77,1.43-1.29,2.13-3.03,2.13-5.33,0-11.57-1.95-16.4-14-16.4s-13.8,5.97-13.8,11.8c0,.67-.03,1.48-.06,2.38-.17,5.14-.45,13.75,4.03,18.37,2.24,2.32,5.46,3.45,9.83,3.45,19.29,0,31-1.32,31-19.6h5c0,24.6-19.96,24.6-36,24.6Z"/><path d="m90.17,51.2c-5.71,0-10.23-1.67-13.42-4.97-5.95-6.15-5.63-16.08-5.43-22.02.03-.84.05-1.59.05-2.22,0-11.21,6.33-16.9,18.8-16.9,15.82,0,19,8.19,19,21.4,0,3.75-1.28,6.8-3.8,9.06-5.52,4.95-15.07,3.97-15.48,3.93l-2.23-.24v-12.74h5v8.09c2.82-.05,6.97-.6,9.38-2.77,1.43-1.29,2.13-3.03,2.13-5.33,0-11.57-1.95-16.4-14-16.4s-13.8,6.02-13.8,11.9c0,.67-.03,1.48-.06,2.38-.17,5.14-.45,13.75,4.03,18.37,2.24,2.32,5.46,3.45,9.83,3.45,21.37,0,30.9-2.84,30.9-19.7h5c0,24.7-19.91,24.7-35.9,24.7Z"/><path d="m140.07,51.2c-5.71,0-10.23-1.67-13.42-4.97-5.95-6.15-5.63-16.08-5.43-22.02.03-.84.05-1.59.05-2.22,0-11.21,6.33-16.9,18.8-16.9,15.82,0,19,8.19,19,21.4,0,3.75-1.28,6.8-3.8,9.06-5.52,4.95-15.07,3.97-15.47,3.93l-2.23-.24v-12.74h5v8.09c2.82-.05,6.97-.6,9.37-2.77,1.43-1.29,2.13-3.03,2.13-5.33,0-11.57-1.95-16.4-14-16.4s-13.8,6.02-13.8,11.9c0,.67-.03,1.48-.06,2.38-.17,5.14-.45,13.75,4.03,18.37,2.24,2.32,5.46,3.45,9.83,3.45,21.37,0,30.9-2.84,30.9-19.7h5c0,24.7-19.91,24.7-35.9,24.7Z"/><path d="m189.87,51.2c-5.71,0-10.23-1.67-13.42-4.97-5.95-6.15-5.63-16.08-5.43-22.02.03-.84.05-1.59.05-2.22,0-11.21,6.33-16.9,18.8-16.9,15.82,0,19,8.19,19,21.4,0,3.75-1.28,6.8-3.8,9.06-5.52,4.95-15.07,3.97-15.47,3.93l-2.23-.24v-12.74h5v8.09c2.82-.05,6.97-.6,9.37-2.77,1.43-1.29,2.13-3.03,2.13-5.33,0-11.57-1.95-16.4-14-16.4s-13.8,6.02-13.8,11.9c0,.67-.03,1.48-.06,2.38-.17,5.14-.45,13.75,4.03,18.37,2.24,2.32,5.46,3.45,9.83,3.45,21.37,0,30.9-2.84,30.9-19.7h5c0,24.7-19.91,24.7-35.9,24.7Z"/><path d="m239.77,51.2c-5.71,0-10.23-1.67-13.42-4.97-5.95-6.15-5.63-16.08-5.43-22.02.03-.84.05-1.59.05-2.22,0-11.21,6.33-16.9,18.8-16.9,15.82,0,19,8.19,19,21.4,0,3.75-1.28,6.8-3.8,9.06-5.52,4.95-15.07,3.97-15.47,3.93l-2.23-.24v-12.74h5v8.09c2.82-.05,6.97-.6,9.37-2.77,1.43-1.29,2.13-3.03,2.13-5.33,0-11.57-1.95-16.4-14-16.4s-13.8,6.02-13.8,11.9c0,.67-.03,1.48-.06,2.38-.17,5.14-.45,13.75,4.03,18.37,2.24,2.32,5.46,3.45,9.83,3.45,21.37,0,30.9-2.84,30.9-19.7h5c0,24.7-19.91,24.7-35.9,24.7Z"/><path d="m289.67,51.2c-5.71,0-10.23-1.67-13.42-4.97-5.95-6.15-5.63-16.08-5.43-22.02.03-.84.05-1.59.05-2.22,0-11.21,6.33-16.9,18.8-16.9,15.82,0,19,8.19,19,21.4,0,3.75-1.28,6.8-3.8,9.06-5.52,4.95-15.07,3.97-15.47,3.93l-2.23-.24v-12.74h5v8.09c2.82-.05,6.97-.6,9.37-2.77,1.43-1.29,2.13-3.03,2.13-5.33,0-11.57-1.95-16.4-14-16.4s-13.8,6.02-13.8,11.9c0,.67-.03,1.48-.06,2.38-.17,5.14-.45,13.75,4.03,18.37,2.24,2.32,5.46,3.45,9.83,3.45,21.37,0,30.9-2.84,30.9-19.7h5c0,24.7-19.91,24.7-35.9,24.7Z"/><path d="m339.47,51.2c-5.71,0-10.23-1.67-13.42-4.97-5.95-6.15-5.63-16.08-5.43-22.02.03-.84.05-1.59.05-2.22,0-11.21,6.33-16.9,18.8-16.9,15.82,0,19,8.19,19,21.4,0,3.75-1.28,6.8-3.8,9.06-5.52,4.95-15.07,3.97-15.47,3.93l-2.23-.24v-12.74h5v8.09c2.82-.05,6.97-.6,9.37-2.77,1.43-1.29,2.13-3.03,2.13-5.33,0-11.57-1.95-16.4-14-16.4s-13.8,6.02-13.8,11.9c0,.67-.03,1.48-.06,2.38-.17,5.14-.45,13.75,4.03,18.37,2.24,2.32,5.46,3.45,9.83,3.45,21.37,0,30.9-2.84,30.9-19.7h5c0,24.7-19.91,24.7-35.9,24.7Z"/><path d="m389.37,51.2c-5.71,0-10.23-1.67-13.42-4.97-5.95-6.15-5.63-16.08-5.43-22.02.03-.84.05-1.59.05-2.22,0-11.21,6.33-16.9,18.8-16.9,15.82,0,19,8.19,19,21.4,0,3.75-1.28,6.8-3.8,9.06-5.52,4.95-15.07,3.97-15.47,3.93l-2.23-.24v-12.74h5v8.09c2.82-.05,6.97-.6,9.37-2.77,1.43-1.29,2.13-3.03,2.13-5.33,0-11.57-1.95-16.4-14-16.4s-13.8,6.02-13.8,11.9c0,.67-.03,1.48-.06,2.38-.17,5.14-.45,13.75,4.03,18.37,2.24,2.32,5.46,3.45,9.83,3.45,21.37,0,30.9-2.84,30.9-19.7h5c0,24.7-19.91,24.7-35.9,24.7Z"/><path d="m439.17,51.2c-5.71,0-10.23-1.67-13.42-4.97-5.95-6.15-5.63-16.08-5.43-22.02.03-.84.05-1.59.05-2.22,0-11.21,6.33-16.9,18.8-16.9,15.82,0,19,8.19,19,21.4,0,3.75-1.28,6.8-3.8,9.06-5.52,4.95-15.07,3.97-15.47,3.93l-2.23-.24v-12.74h5v8.09c2.82-.05,6.97-.6,9.37-2.77,1.43-1.29,2.13-3.03,2.13-5.33,0-11.57-1.95-16.4-14-16.4s-13.8,6.02-13.8,11.9c0,.67-.03,1.48-.06,2.38-.17,5.14-.45,13.75,4.03,18.37,2.24,2.32,5.46,3.45,9.83,3.45,21.37,0,30.9-2.84,30.9-19.7h5c0,24.7-19.91,24.7-35.9,24.7Z"/><path d="m489.07,51.2c-5.71,0-10.23-1.67-13.42-4.97-5.95-6.15-5.63-16.08-5.43-22.02.03-.84.05-1.59.05-2.22,0-11.21,6.33-16.9,18.8-16.9,15.82,0,19,8.19,19,21.4,0,3.75-1.28,6.8-3.8,9.06-5.52,4.95-15.07,3.97-15.47,3.93l-2.23-.24v-12.74h5v8.09c2.82-.05,6.97-.6,9.37-2.77,1.43-1.29,2.13-3.03,2.13-5.33,0-11.57-1.95-16.4-14-16.4s-13.8,6.02-13.8,11.9c0,.67-.03,1.48-.06,2.38-.17,5.14-.45,13.75,4.03,18.37,2.24,2.32,5.46,3.45,9.83,3.45,21.37,0,30.9-2.84,30.9-19.7h5c0,24.7-19.91,24.7-35.9,24.7Z"/><path d="m538.97,51.1c-5.73,0-10.25-1.67-13.44-4.97-5.93-6.13-5.6-16.01-5.41-21.91.03-.84.05-1.59.05-2.22,0-11.21,6.33-16.9,18.8-16.9,15.82,0,19,8.19,19,21.4,0,3.75-1.28,6.8-3.8,9.06-5.52,4.95-15.07,3.97-15.47,3.93l-2.23-.24v-12.74h5v8.09c2.82-.05,6.97-.6,9.37-2.77,1.43-1.29,2.13-3.03,2.13-5.33,0-11.57-1.95-16.4-14-16.4s-13.8,6.02-13.8,11.9c0,.67-.03,1.48-.06,2.38-.17,5.11-.45,13.67,4.01,18.27,2.24,2.32,5.47,3.45,9.85,3.45,21.37,0,30.9-2.84,30.9-19.7h5c0,24.7-19.91,24.7-35.9,24.7Z"/><path d="m586.97,51.2c-4.87,0-8.79-1.49-11.65-4.44-5.88-6.05-5.57-16.37-5.39-22.54.02-.84.05-1.59.05-2.22,0-11.21,5.72-16.9,17-16.9,15.87,0,17.2,10.57,17.2,21.4,0,3.99-1.31,7.17-3.9,9.46-5.09,4.5-13.26,3.56-13.61,3.52l-2.2-.27v-12.71h5v8.08c2.14-.06,5.38-.49,7.5-2.38,1.48-1.32,2.2-3.18,2.2-5.7,0-12.87-2.62-16.4-12.2-16.4-10.57,0-12,6.02-12,11.9,0,.67-.02,1.47-.05,2.37-.16,5.38-.42,14.37,3.98,18.91,1.91,1.97,4.55,2.92,8.07,2.92,16.92,0,27.2-1.33,27.2-19.7h5c0,22.84-14.58,24.7-32.2,24.7Z"/><path d="m40.27,89.6c-5.71,0-10.23-1.67-13.42-4.97-5.95-6.15-5.63-16.08-5.43-22.02.03-.84.05-1.59.05-2.22,0-11.15,6.33-16.8,18.8-16.8,15.82,0,19,8.19,19,21.4,0,3.75-1.28,6.8-3.8,9.06-5.52,4.95-15.07,3.97-15.47,3.93l-2.23-.24v-12.84h5v8.19c2.82-.05,6.97-.6,9.37-2.77,1.43-1.29,2.13-3.03,2.13-5.33,0-11.57-1.95-16.4-14-16.4s-13.8,5.97-13.8,11.8c0,.67-.03,1.48-.06,2.38-.17,5.14-.45,13.75,4.03,18.37,2.24,2.32,5.46,3.45,9.83,3.45,21.37,0,30.9-2.84,30.9-19.7h5c0,24.7-19.91,24.7-35.9,24.7Z"/><path d="m90.17,89.7c-5.71,0-10.23-1.67-13.42-4.97-5.95-6.15-5.63-16.08-5.43-22.02.03-.84.05-1.59.05-2.22,0-11.21,6.33-16.9,18.8-16.9,15.82,0,19,8.19,19,21.4,0,3.75-1.28,6.8-3.8,9.06-5.52,4.95-15.07,3.97-15.48,3.93l-2.23-.24v-12.84h5v8.19c2.82-.05,6.97-.6,9.38-2.77,1.43-1.29,2.13-3.03,2.13-5.33,0-11.57-1.95-16.4-14-16.4s-13.8,6.02-13.8,11.9c0,.67-.03,1.48-.06,2.38-.17,5.14-.45,13.75,4.03,18.37,2.24,2.32,5.46,3.45,9.83,3.45,21.37,0,30.9-2.84,30.9-19.7h5c0,24.7-19.91,24.7-35.9,24.7Z"/><path d="m140.07,89.7c-5.71,0-10.23-1.67-13.42-4.97-5.95-6.15-5.63-16.08-5.43-22.02.03-.84.05-1.59.05-2.22,0-11.21,6.33-16.9,18.8-16.9,15.82,0,19,8.19,19,21.4,0,3.75-1.28,6.8-3.8,9.06-5.52,4.95-15.07,3.97-15.47,3.93l-2.23-.24v-12.84h5v8.19c2.82-.05,6.97-.6,9.37-2.77,1.43-1.29,2.13-3.03,2.13-5.33,0-11.57-1.95-16.4-14-16.4s-13.8,6.02-13.8,11.9c0,.67-.03,1.48-.06,2.38-.17,5.14-.45,13.75,4.03,18.37,2.24,2.32,5.46,3.45,9.83,3.45,21.37,0,30.9-2.84,30.9-19.7h5c0,24.7-19.91,24.7-35.9,24.7Z"/><path d="m189.87,89.7c-5.71,0-10.23-1.67-13.42-4.97-5.95-6.15-5.63-16.08-5.43-22.02.03-.84.05-1.59.05-2.22,0-11.21,6.33-16.9,18.8-16.9,15.82,0,19,8.19,19,21.4,0,3.75-1.28,6.8-3.8,9.06-5.52,4.95-15.07,3.97-15.47,3.93l-2.23-.24v-12.84h5v8.19c2.82-.05,6.97-.6,9.37-2.77,1.43-1.29,2.13-3.03,2.13-5.33,0-11.57-1.95-16.4-14-16.4s-13.8,6.02-13.8,11.9c0,.67-.03,1.48-.06,2.38-.17,5.14-.45,13.75,4.03,18.37,2.24,2.32,5.46,3.45,9.83,3.45,21.37,0,30.9-2.84,30.9-19.7h5c0,24.7-19.91,24.7-35.9,24.7Z"/><path d="m239.77,89.7c-5.71,0-10.23-1.67-13.42-4.97-5.95-6.15-5.63-16.08-5.43-22.02.03-.84.05-1.59.05-2.22,0-11.21,6.33-16.9,18.8-16.9,15.82,0,19,8.19,19,21.4,0,3.75-1.28,6.8-3.8,9.06-5.52,4.95-15.07,3.97-15.47,3.93l-2.23-.24v-12.84h5v8.19c2.82-.05,6.97-.6,9.37-2.77,1.43-1.29,2.13-3.03,2.13-5.33,0-11.57-1.95-16.4-14-16.4s-13.8,6.02-13.8,11.9c0,.67-.03,1.48-.06,2.38-.17,5.14-.45,13.75,4.03,18.37,2.24,2.32,5.46,3.45,9.83,3.45,21.37,0,30.9-2.84,30.9-19.7h5c0,24.7-19.91,24.7-35.9,24.7Z"/><path d="m289.67,89.7c-5.71,0-10.23-1.67-13.42-4.97-5.95-6.15-5.63-16.08-5.43-22.02.03-.84.05-1.59.05-2.22,0-11.21,6.33-16.9,18.8-16.9,15.82,0,19,8.19,19,21.4,0,3.75-1.28,6.8-3.8,9.06-5.52,4.95-15.07,3.97-15.47,3.93l-2.23-.24v-12.84h5v8.19c2.82-.05,6.97-.6,9.37-2.77,1.43-1.29,2.13-3.03,2.13-5.33,0-11.57-1.95-16.4-14-16.4s-13.8,6.02-13.8,11.9c0,.67-.03,1.48-.06,2.38-.17,5.14-.45,13.75,4.03,18.37,2.24,2.32,5.46,3.45,9.83,3.45,21.37,0,30.9-2.84,30.9-19.7h5c0,24.7-19.91,24.7-35.9,24.7Z"/><path d="m339.47,89.7c-5.71,0-10.23-1.67-13.42-4.97-5.95-6.15-5.63-16.08-5.43-22.02.03-.84.05-1.59.05-2.22,0-11.21,6.33-16.9,18.8-16.9,15.82,0,19,8.19,19,21.4,0,3.75-1.28,6.8-3.8,9.06-5.52,4.95-15.07,3.97-15.47,3.93l-2.23-.24v-12.84h5v8.19c2.82-.05,6.97-.6,9.37-2.77,1.43-1.29,2.13-3.03,2.13-5.33,0-11.57-1.95-16.4-14-16.4s-13.8,6.02-13.8,11.9c0,.67-.03,1.48-.06,2.38-.17,5.14-.45,13.75,4.03,18.37,2.24,2.32,5.46,3.45,9.83,3.45,21.37,0,30.9-2.84,30.9-19.7h5c0,24.7-19.91,24.7-35.9,24.7Z"/><path d="m389.37,89.7c-5.71,0-10.23-1.67-13.42-4.97-5.95-6.15-5.63-16.08-5.43-22.02.03-.84.05-1.59.05-2.22,0-11.21,6.33-16.9,18.8-16.9,15.82,0,19,8.19,19,21.4,0,3.75-1.28,6.8-3.8,9.06-5.52,4.95-15.07,3.97-15.47,3.93l-2.23-.24v-12.84h5v8.19c2.82-.05,6.97-.6,9.37-2.77,1.43-1.29,2.13-3.03,2.13-5.33,0-11.57-1.95-16.4-14-16.4s-13.8,6.02-13.8,11.9c0,.67-.03,1.48-.06,2.38-.17,5.14-.45,13.75,4.03,18.37,2.24,2.32,5.46,3.45,9.83,3.45,21.37,0,30.9-2.84,30.9-19.7h5c0,24.7-19.91,24.7-35.9,24.7Z"/><path d="m439.17,89.7c-5.71,0-10.23-1.67-13.42-4.97-5.95-6.15-5.63-16.08-5.43-22.02.03-.84.05-1.59.05-2.22,0-11.21,6.33-16.9,18.8-16.9,15.82,0,19,8.19,19,21.4,0,3.75-1.28,6.8-3.8,9.06-5.52,4.95-15.07,3.97-15.47,3.93l-2.23-.24v-12.84h5v8.19c2.82-.05,6.97-.6,9.37-2.77,1.43-1.29,2.13-3.03,2.13-5.33,0-11.57-1.95-16.4-14-16.4s-13.8,6.02-13.8,11.9c0,.67-.03,1.48-.06,2.38-.17,5.14-.45,13.75,4.03,18.37,2.24,2.32,5.46,3.45,9.83,3.45,21.37,0,30.9-2.84,30.9-19.7h5c0,24.7-19.91,24.7-35.9,24.7Z"/><path d="m489.07,89.7c-5.71,0-10.23-1.67-13.42-4.97-5.95-6.15-5.63-16.08-5.43-22.02.03-.84.05-1.59.05-2.22,0-11.21,6.33-16.9,18.8-16.9,15.82,0,19,8.19,19,21.4,0,3.75-1.28,6.8-3.8,9.06-5.52,4.95-15.07,3.97-15.47,3.93l-2.23-.24v-12.84h5v8.19c2.82-.05,6.97-.6,9.37-2.77,1.43-1.29,2.13-3.03,2.13-5.33,0-11.57-1.95-16.4-14-16.4s-13.8,6.02-13.8,11.9c0,.67-.03,1.48-.06,2.38-.17,5.14-.45,13.75,4.03,18.37,2.24,2.32,5.46,3.45,9.83,3.45,21.37,0,30.9-2.84,30.9-19.7h5c0,24.7-19.91,24.7-35.9,24.7Z"/><path d="m538.97,89.6c-5.73,0-10.25-1.67-13.44-4.97-5.93-6.13-5.6-16.01-5.41-21.91.03-.84.05-1.59.05-2.22,0-11.21,6.33-16.9,18.8-16.9,15.82,0,19,8.19,19,21.4,0,3.75-1.28,6.8-3.8,9.06-5.52,4.95-15.07,3.97-15.47,3.93l-2.23-.24v-12.84h5v8.19c2.82-.05,6.97-.6,9.37-2.77,1.43-1.29,2.13-3.03,2.13-5.33,0-11.57-1.95-16.4-14-16.4s-13.8,6.02-13.8,11.9c0,.67-.03,1.48-.06,2.38-.17,5.11-.45,13.67,4.01,18.27,2.24,2.32,5.47,3.45,9.85,3.45,21.37,0,30.9-2.84,30.9-19.7h5c0,24.7-19.91,24.7-35.9,24.7Z"/><path d="m586.97,89.7c-4.87,0-8.79-1.49-11.65-4.44-5.88-6.05-5.57-16.37-5.39-22.54.02-.84.05-1.59.05-2.22,0-11.21,5.72-16.9,17-16.9,15.87,0,17.2,10.57,17.2,21.4,0,3.99-1.31,7.17-3.9,9.46-5.09,4.5-13.26,3.56-13.61,3.52l-2.2-.27v-12.81h5v8.18c2.14-.06,5.38-.49,7.5-2.38,1.48-1.32,2.2-3.18,2.2-5.7,0-12.87-2.62-16.4-12.2-16.4-10.57,0-12,6.02-12,11.9,0,.67-.02,1.47-.05,2.37-.16,5.38-.42,14.37,3.98,18.91,1.91,1.97,4.55,2.92,8.07,2.92,16.92,0,27.2-1.33,27.2-19.7h5c0,22.84-14.58,24.7-32.2,24.7Z"/><rect x="44.77" y="83.2" width="5" height="12.6"/><rect x="52.77" y="82.7" width="5" height="30.9"/><rect x="84.17" y="88.7" width="5" height="16.3"/><rect x="84.17" y="108.4" width="5" height="9.9"/><rect x="135.17" y="99.7" width="5" height="11.8"/><rect x="181.57" y="96.8" width="5" height="5.8"/><rect x="181.57" y="108.4" width="5" height="14.4"/><rect x="222.87" y="93.6" width="5" height="14.8"/><rect x="222.87" y="113.4" width="5" height="4.9"/><rect x="280.37" y="96.8" width="5" height="8.2"/><rect x="280.37" y="111.5" width="5" height="8.5"/><rect x="313.17" y="90.1" width="5" height="12.5"/><rect x="331.67" y="88.7" width="5" height="24.7"/><rect x="331.67" y="118.3" width="5" height="6.9"/><rect x="374.57" y="94.4" width="5" height="11.2"/><rect x="374.57" y="110.2" width="5" height="8.1"/><rect x="418.57" y="96.4" width="5" height="12"/><rect x="418.57" y="115.9" width="5" height="9.3"/><rect x="418.57" y="128.2" width="5" height="3.1"/><rect x="460.77" y="94.2" width="5" height="21.4"/><rect x="460.77" y="120.5" width="5" height="9.3"/><rect x="528.97" y="96.4" width="5" height="28.7"/><rect x="528.97" y="129.8" width="5" height="3.9"/><rect x="578.27" y="84.4" width="5" height="37.4"/><rect x="269.67" y="100" width="5" height="40.9"/></svg>