<?xml version="1.0" encoding="UTF-8"?><svg id="Calque_1" xmlns="http://www.w3.org/2000/svg" viewBox="0 0 936.26 306.63"><defs><style>.cls-1{fill:#fff;}</style></defs><path class="cls-1" d="m129.35,131.75c33.18-35.87,29.69-85.8,29.53-87.91l-4.98.39c.04.5,3.45,49.93-28.25,84.16-20.36,21.99-50.68,33.15-90.11,33.15v5c40.9,0,72.47-11.7,93.81-34.78Z"/><path class="cls-1" d="m804.28,148.38c-24.71-22.93-37.25-56.69-37.25-100.35h-5c0,45.12,13.08,80.13,38.88,104.04,33.76,31.3,79.04,34.48,96.05,34.48,3.89,0,6.3-.17,6.76-.2l-.38-4.99c-.59.04-59.22,3.98-99.07-32.99Z"/><rect class="cls-1" x="105.53" y="48.54" width="41" height="5"/><rect class="cls-1" x="108.53" y="69.44" width="5" height="39.2" transform="translate(-27.34 122.33) rotate(-52.25)"/><rect class="cls-1" x="36.66" y="109.12" width="5" height="39.33"/><rect class="cls-1" x="81.03" y="98.8" width="5" height="38.47" transform="translate(-45.52 52.8) rotate(-27.9)"/><rect class="cls-1" x="890.03" y="124.04" width="5" height="45"/><rect class="cls-1" x="835.51" y="130.54" width="41.05" height="5" transform="translate(266.2 767.53) rotate(-55.92)"/><rect class="cls-1" x="795.53" y="50.54" width="38" height="5"/><rect class="cls-1" x="808.48" y="96.04" width="39.12" height="5" transform="translate(76.55 459.96) rotate(-32.47)"/><path class="cls-1" d="m720.14,245.55c-13.48,8.07-27.42,16.41-64.61,16.41-29.52,0-49.91-9.26-67.89-17.42-15.41-7-29.96-13.6-47.8-13.6-30.45,0-45.92,8.42-60.89,16.57-13.67,7.44-26.57,14.46-50.51,14.46-26.13,0-41.24-8.37-55.86-16.47-13.5-7.48-26.26-14.55-46.18-14.55s-33.8,7.86-46.44,15.46c-12.74,7.66-25.91,15.57-47.51,15.57s-34.17-7.22-48.17-14.86c-14.57-7.95-29.63-16.17-53.87-16.17-44.85,0-65.35,18.69-77.59,29.85-.7.63-1.36,1.24-2,1.81l3.34,3.72c.65-.58,1.32-1.2,2.02-1.84,11.71-10.68,31.31-28.55,74.22-28.55,22.96,0,37.46,7.91,51.47,15.56,13.94,7.61,28.36,15.47,50.57,15.47s36.76-8.28,50.08-16.29c12.61-7.58,24.53-14.74,43.86-14.74s30.84,6.76,43.76,13.93c15.17,8.41,30.85,17.1,58.28,17.1,25.21,0,39.29-7.66,52.9-15.07,14.42-7.85,29.33-15.96,58.5-15.96,16.75,0,30.18,6.1,45.73,13.16,18.45,8.38,39.36,17.87,69.96,17.87,38.57,0,53.12-8.7,67.18-17.12,11.95-7.15,23.23-13.9,49.94-13.9,39.39,0,69.82,29.99,70.12,30.29l3.54-3.53c-1.29-1.3-32.16-31.76-73.66-31.76-28.09,0-39.95,7.1-52.51,14.61Z"/><path class="cls-1" d="m52.81,240.04c-.69.63-1.36,1.24-1.99,1.81l3.34,3.72c.65-.58,1.32-1.19,2.02-1.83,11.71-10.68,31.31-28.55,74.23-28.55,22.96,0,37.46,7.91,51.47,15.56,13.94,7.61,28.36,15.47,50.57,15.47s36.76-8.28,50.08-16.29c12.61-7.58,24.53-14.74,43.86-14.74s30.84,6.76,43.76,13.93c15.17,8.41,30.85,17.1,58.28,17.1,25.21,0,39.29-7.66,52.9-15.07,14.42-7.84,29.33-15.96,58.5-15.96,16.75,0,30.18,6.1,45.73,13.16,18.45,8.38,39.36,17.87,69.96,17.87,38.57,0,53.12-8.7,67.18-17.12,11.95-7.15,23.23-13.9,49.94-13.9,39.39,0,69.82,29.99,70.12,30.29l3.54-3.53c-1.29-1.3-32.15-31.76-73.66-31.76-28.09,0-39.95,7.1-52.51,14.61-13.48,8.07-27.42,16.41-64.61,16.41-29.52,0-49.91-9.26-67.89-17.42-15.41-7-29.96-13.6-47.8-13.6-30.45,0-45.92,8.42-60.89,16.57-13.67,7.44-26.57,14.46-50.51,14.46-26.13,0-41.24-8.37-55.86-16.47-13.5-7.48-26.26-14.55-46.18-14.55s-33.8,7.86-46.44,15.46c-12.74,7.66-25.91,15.57-47.51,15.57s-34.17-7.22-48.17-14.86c-14.57-7.95-29.63-16.17-53.87-16.17-44.86,0-65.35,18.69-77.6,29.86Z"/><path class="cls-1" d="m370.37,110.02c4.35,3.82,8.12,7.12,8.12,15.05h5c0-10.2-5.22-14.78-9.82-18.81-4.35-3.82-8.12-7.12-8.12-15.05,0-11.14,2.97-12.61,6.73-14.48,6.35-3.16,11.21-7.06,11.21-25.72h-5c0,17.04-4.1,19.08-8.44,21.24-5.38,2.68-9.5,5.78-9.5,18.96,0,10.2,5.22,14.78,9.82,18.81Z"/><path class="cls-1" d="m421.32,110.02c4.35,3.82,8.11,7.12,8.11,15.05h5c0-10.2-5.22-14.78-9.82-18.81-4.35-3.82-8.11-7.12-8.11-15.05,0-11.14,2.97-12.61,6.73-14.48,6.35-3.16,11.21-7.06,11.21-25.72h-5c0,17.04-4.1,19.08-8.43,21.24-5.38,2.68-9.5,5.78-9.5,18.96,0,10.2,5.22,14.78,9.82,18.81Z"/><path class="cls-1" d="m472.42,110.02c4.35,3.82,8.12,7.12,8.12,15.05h5c0-10.2-5.22-14.78-9.82-18.81-4.35-3.82-8.12-7.12-8.12-15.05,0-11.14,2.97-12.61,6.73-14.48,6.35-3.16,11.21-7.06,11.21-25.72h-5c0,17.04-4.1,19.08-8.44,21.24-5.38,2.68-9.5,5.78-9.5,18.96,0,10.2,5.22,14.78,9.82,18.81Z"/><path class="cls-1" d="m523.36,110.02c4.35,3.82,8.11,7.12,8.11,15.05h5c0-10.2-5.22-14.78-9.82-18.81-4.35-3.82-8.11-7.12-8.11-15.05,0-11.14,2.97-12.61,6.73-14.48,6.35-3.16,11.21-7.06,11.21-25.72h-5c0,17.04-4.1,19.08-8.43,21.24-5.38,2.68-9.5,5.78-9.5,18.96,0,10.2,5.22,14.78,9.82,18.81Z"/><path class="cls-1" d="m936.26,29.37V2.5h-.2V0H0v306.08h2.5v.56h22.53v-.56h888.69v.56h22.53v-26.87h-.2V29.37h.2Zm-22.53-2.5H25.03V5h888.69v21.87ZM89.87,31.87c.47,7.11.56,28.12-12.95,43.7-10.59,12.22-27.21,18.57-49.39,18.93V31.87h62.33ZM27.54,99.5c23.72-.37,41.63-7.31,53.2-20.69,14.61-16.89,14.72-38.8,14.17-46.94h750.18c.49,27.69,8.16,48.05,22.86,60.5,13.29,11.25,28.94,13.19,38.14,13.19,2.08,0,3.83-.1,5.15-.21v175.84H27.54V99.5Zm883.69.81c-5.97.53-24.93,1.04-40.06-11.76-13.54-11.46-20.61-30.54-21.09-56.68h61.15v68.44ZM22.54,279.76H5V29.37h17.54v250.39Zm2.5,21.32v-14.88h888.69v14.88H25.03Zm906.03-21.32h-14.84V29.37h14.84v250.39Z"/></svg>