<?xml version="1.0" encoding="UTF-8"?><svg id="Calque_1" xmlns="http://www.w3.org/2000/svg" viewBox="0 0 833 203"><rect x="3.35" y="195" width="832.85" height="6"/><rect y="-3" width="836.2" height="6"/><rect x="8.55" y="6.86" width="9.04" height="6"/><rect x="17.59" y="41.79" width="14.29" height="6"/><rect x="62.35" y="6.86" width="15.34" height="6"/><rect x="98.29" y="6.86" width="8.41" height="6"/><rect x="87.99" y="98.03" width="14.5" height="6"/><rect x="53.79" y="6.86" width="6.52" height="6"/><rect x="114.11" y="6.86" width="8.83" height="6"/><rect x="167.7" y="6.86" width="15.55" height="6"/><rect x="322.38" y="6.86" width="6.52" height="6"/><rect x="349.7" y="6.86" width="8.83" height="6"/><rect x="403.5" y="6.86" width="15.34" height="6"/><rect x="557.97" y="6.86" width="6.51" height="6"/><rect x="615.55" y="6.86" width="8.83" height="6"/><rect x="669.35" y="6.86" width="15.34" height="6"/><rect x="715.72" y="98.03" width="17.65" height="6"/><rect x="792.64" y="41.79" width="17.23" height="6"/><rect x="59.41" y="174.92" width="14.5" height="6"/><rect x="5.45" y="174.92" width="17.65" height="6"/><rect x="164.97" y="174.92" width="14.5" height="6"/><rect x="274.25" y="174.92" width="17.65" height="6"/><rect x="400.56" y="174.92" width="14.5" height="6"/><rect x="509.84" y="174.92" width="17.65" height="6"/><rect x="666.41" y="174.92" width="14.5" height="6"/><rect x="775.69" y="174.92" width="17.65" height="6"/><rect x="764.06" y="118.46" width="17.23" height="6"/><rect x="807.98" y="174.92" width="17.65" height="6"/><rect x="823.82" y="6.86" width="6.51" height="6"/><path d="m833,203H0V0h833v203ZM6,197h821V6H6v191Z"/></svg>