<?xml version="1.0" encoding="UTF-8"?><svg id="Calque_1" xmlns="http://www.w3.org/2000/svg" viewBox="0 0 833 203"><path d="m72.26,170.43c-62.16,0-73.52-22.82-73.97-23.8l5.44-2.54-2.72,1.27,2.7-1.3c.1.2,10.86,20.37,68.55,20.37s69.66-20.27,69.78-20.48l5.31,2.8c-.5.97-13.01,23.68-75.08,23.68Z"/><path d="m213.22,170.22c-59.87,0-70.82-22.22-71.26-23.17l5.45-2.52-2.72,1.26,2.71-1.3c.1.2,10.44,19.72,65.83,19.72s66.95-19.64,67.05-19.84l5.31,2.79c-.49.94-12.59,23.05-72.37,23.05Z"/><path d="m354.37,170.43c-62.16,0-73.52-22.82-73.98-23.79l5.42-2.57c.1.2,10.86,20.37,68.56,20.37s69.65-20.24,69.76-20.45l5.32,2.77c-.5.97-13.01,23.68-75.08,23.68Z"/><path d="m493.97,170.43c-58.75,0-69.5-22.88-69.92-23.86l5.48-2.45c.1.2,10.2,20.31,64.45,20.31s65.56-20.22,65.67-20.42l5.37,2.68c-.48.97-12.37,23.74-71.04,23.74Z"/><path d="m632.79,170.43c-61.6,0-72.76-22.84-73.21-23.82l5.44-2.53c.1.2,10.66,20.35,67.77,20.35s69.08-20.27,69.19-20.48l5.31,2.8c-.5.97-13,23.68-74.5,23.68Z"/><path d="m765.79,167.88c-53.75,0-63.51-20.42-63.9-21.29l5.46-2.49c.09.18,9.2,17.78,58.44,17.78s59.56-17.7,59.65-17.88l5.35,2.71c-.44.86-11.35,21.16-65,21.16Z"/><path d="m72.26,184.85c-62.16,0-73.52-22.82-73.97-23.8l5.44-2.54-2.72,1.27,2.7-1.3c.1.2,10.86,20.37,68.55,20.37s69.66-20.27,69.78-20.48l5.31,2.8c-.5.97-13.01,23.68-75.08,23.68Z"/><path d="m213.22,184.64c-59.87,0-70.82-22.22-71.26-23.17l5.45-2.52-2.72,1.26,2.71-1.3c.1.2,10.44,19.72,65.83,19.72s66.95-19.64,67.05-19.84l5.31,2.79c-.49.94-12.59,23.05-72.37,23.05Z"/><path d="m354.37,184.85c-62.16,0-73.52-22.82-73.98-23.79l5.42-2.57c.1.2,10.86,20.37,68.56,20.37s69.65-20.24,69.76-20.45l5.32,2.77c-.5.97-13.01,23.68-75.08,23.68Z"/><path d="m493.97,184.85c-58.75,0-69.5-22.88-69.92-23.86l5.48-2.45c.1.2,10.2,20.31,64.45,20.31s65.56-20.22,65.67-20.42l5.37,2.68c-.48.97-12.37,23.74-71.04,23.74Z"/><path d="m632.79,184.85c-61.6,0-72.76-22.84-73.21-23.82l5.44-2.53c.1.2,10.66,20.35,67.77,20.35s69.08-20.27,69.19-20.48l5.31,2.8c-.5.97-13,23.68-74.5,23.68Z"/><path d="m765.79,182.31c-53.75,0-63.51-20.42-63.9-21.29l5.46-2.49c.09.18,9.2,17.78,58.44,17.78s59.56-17.7,59.65-17.88l5.35,2.71c-.44.86-11.35,21.16-65,21.16Z"/><path d="m812.41,149.11h-6c0-7.07-3.97-9.11-10.51-11.64-4.49-1.74-10.08-3.89-10.08-10.11s1.62-10.65,4.8-13.44c3.34-2.93,7.16-2.84,8.23-2.74,5.37,0,7.45-.24,8.36-1.52,1.44-2.01,1.73-7.49,1.73-15.69h6c0,20.17-2.12,23.21-16.24,23.21l-.4-.03s-2.09-.19-3.79,1.34c-1.76,1.59-2.69,4.66-2.69,8.87,0,1.81,1.48,2.68,6.25,4.52,5.71,2.21,14.35,5.54,14.35,17.23Z"/><path d="m812.41,83.21h-6c0-7.07-3.97-9.11-10.51-11.64-4.49-1.74-10.08-3.89-10.08-10.11s1.62-10.65,4.8-13.44c3.34-2.93,7.16-2.83,8.23-2.74,5.37,0,7.45-.24,8.36-1.52,1.44-2.01,1.73-7.5,1.73-15.69h6c0,20.17-2.12,23.21-16.24,23.21l-.4-.03s-2.09-.19-3.79,1.34c-1.76,1.59-2.7,4.66-2.7,8.87,0,1.81,1.48,2.68,6.25,4.52,5.71,2.21,14.35,5.54,14.35,17.23Z"/><path d="m775.21,149.11h-6c0-7.07-3.97-9.11-10.51-11.64-4.49-1.74-10.08-3.89-10.08-10.11s1.62-10.65,4.8-13.44c3.34-2.93,7.16-2.83,8.22-2.74,5.37,0,7.45-.24,8.36-1.52,1.44-2.01,1.73-7.5,1.73-15.69h6c0,20.17-2.12,23.21-16.24,23.21l-.4-.03s-2.1-.19-3.79,1.34c-1.76,1.59-2.69,4.66-2.69,8.87,0,1.81,1.48,2.68,6.25,4.52,5.71,2.21,14.35,5.54,14.35,17.23Z"/><path d="m775.21,83.21h-6c0-7.07-3.97-9.11-10.51-11.64-4.49-1.74-10.08-3.89-10.08-10.11s1.62-10.65,4.8-13.44c3.34-2.93,7.16-2.83,8.22-2.74,5.37,0,7.45-.24,8.36-1.52,1.44-2.01,1.73-7.5,1.73-15.69h6c0,20.17-2.12,23.21-16.24,23.21l-.4-.03s-2.09-.19-3.79,1.34c-1.76,1.59-2.69,4.66-2.69,8.87,0,1.81,1.48,2.68,6.25,4.52,5.71,2.21,14.35,5.54,14.35,17.23Z"/><path d="m73.48,149.11h-6c0-7.07-3.97-9.11-10.51-11.64-4.49-1.74-10.08-3.89-10.08-10.11s1.62-10.65,4.8-13.44c3.34-2.92,7.15-2.84,8.22-2.74,5.37,0,7.45-.24,8.36-1.52,1.44-2.01,1.73-7.49,1.73-15.69h6c0,20.17-2.12,23.21-16.24,23.21l-.4-.03s-2.09-.19-3.79,1.34c-1.76,1.59-2.69,4.66-2.69,8.87,0,1.81,1.48,2.68,6.25,4.52,5.71,2.21,14.35,5.54,14.35,17.23Z"/><path d="m73.48,83.21h-6c0-7.07-3.97-9.11-10.51-11.64-4.49-1.74-10.08-3.89-10.08-10.11s1.62-10.65,4.8-13.44c3.34-2.93,7.16-2.83,8.22-2.74,5.37,0,7.45-.24,8.36-1.52,1.44-2.01,1.73-7.49,1.73-15.69h6c0,20.17-2.12,23.21-16.24,23.21l-.4-.03s-2.09-.19-3.79,1.34c-1.76,1.59-2.69,4.66-2.69,8.87,0,1.81,1.48,2.68,6.25,4.52,5.71,2.21,14.35,5.54,14.35,17.23Z"/><path d="m36.07,149.11h-6c0-7.07-3.97-9.11-10.51-11.64-4.49-1.74-10.08-3.89-10.08-10.11s1.62-10.65,4.8-13.44c3.34-2.92,7.16-2.84,8.22-2.74,5.37,0,7.45-.24,8.36-1.52,1.44-2.01,1.73-7.49,1.73-15.69h6c0,20.17-2.12,23.21-16.24,23.21l-.4-.03s-2.09-.19-3.79,1.34c-1.76,1.59-2.69,4.66-2.69,8.87,0,1.81,1.48,2.68,6.25,4.52,5.71,2.21,14.35,5.54,14.35,17.23Z"/><path d="m36.07,83.21h-6c0-7.07-3.97-9.11-10.51-11.64-4.49-1.74-10.08-3.89-10.08-10.11s1.62-10.65,4.8-13.44c3.34-2.93,7.16-2.83,8.22-2.74,5.37,0,7.45-.24,8.36-1.52,1.44-2.01,1.73-7.49,1.73-15.69h6c0,20.17-2.12,23.21-16.24,23.21l-.4-.03s-2.09-.19-3.79,1.34c-1.76,1.59-2.69,4.66-2.69,8.87,0,1.81,1.48,2.68,6.25,4.52,5.71,2.21,14.35,5.54,14.35,17.23Z"/><path d="m833,203H0V0h833v203ZM6,197h821V6H6v191Z"/></svg>