<?xml version="1.0" encoding="UTF-8"?><svg id="Calque_1" xmlns="http://www.w3.org/2000/svg" viewBox="0 0 726.65 182.48"><defs><style>.cls-1{fill:#f4f1db;}.cls-2{fill:#2d2c28;}</style></defs><path class="cls-1" d="m362.88,164.66c-2.79,0-5.58-.2-8.35-.6l-98.48-14.2c-2.76-.4-5.56-.6-8.35-.6H72.39c-32.26,0-58.5-26.24-58.5-58.5s26.24-58.5,58.5-58.5h179.5s102.9-14.37,102.9-14.37c5.37-.75,10.81-.75,16.18,0l102.91,14.37h179.5c32.26,0,58.5,26.24,58.5,58.5s-26.24,58.5-58.5,58.5h-175.79c-2.79,0-5.61.2-8.38.6l-97.97,14.19c-2.78.4-5.58.6-8.38.6ZM72.39,36.27c-30.05,0-54.5,24.45-54.5,54.5s24.45,54.5,54.5,54.5h175.3c2.97,0,5.97.22,8.92.64l98.48,14.2c5.17.75,10.41.74,15.59,0l97.97-14.19c2.96-.43,5.97-.64,8.96-.64h175.79c30.05,0,54.5-24.45,54.5-54.5s-24.45-54.5-54.5-54.5h-179.78l-.28-.04-102.91-14.37c-5-.7-10.07-.7-15.08,0l-103.46,14.41H72.39Z"/><path class="cls-2" d="m80.39,47.27h565c24.02,0,43.5,19.48,43.5,43.5h0c0,24.02-19.48,43.5-43.5,43.5H80.39c-24.02,0-43.5-19.48-43.5-43.5h0c0-24.02,19.48-43.5,43.5-43.5Z"/><path class="cls-1" d="m645.39,136.27H80.39c-25.09,0-45.5-20.41-45.5-45.5s20.41-45.5,45.5-45.5h565c25.09,0,45.5,20.41,45.5,45.5s-20.41,45.5-45.5,45.5ZM80.39,49.27c-22.88,0-41.5,18.62-41.5,41.5s18.62,41.5,41.5,41.5h565c22.88,0,41.5-18.62,41.5-41.5s-18.62-41.5-41.5-41.5H80.39Z"/></svg>