<?xml version="1.0" encoding="UTF-8"?><svg id="Calque_1" xmlns="http://www.w3.org/2000/svg" xmlns:xlink="http://www.w3.org/1999/xlink" viewBox="0 0 1629.09 962.15"><defs><style>.cls-1{stroke-width:4px;}.cls-1,.cls-2,.cls-3,.cls-4{fill:none;}.cls-1,.cls-3,.cls-5,.cls-4{stroke:#fff;}.cls-6{clip-path:url(#clippath);}.cls-3{stroke-width:3px;}.cls-5{fill:#fff;}.cls-5,.cls-4{stroke-width:2px;}</style><clipPath id="clippath"><rect class="cls-2" x="1175.25" y="8.44" width="366" height="60"/></clipPath></defs><path class="cls-1" d="m1175.75,37.44H35.25v884h63.5M1541.25,37.44h54v884h-55.5"/><g class="cls-6"><path class="cls-5" d="m1208.25,8.44l-31,58.5V8.44h31Z"/><path class="cls-5" d="m1264.25,9.44l-89,141h50.5l89-141h-50.5Z"/><path class="cls-5" d="m1362.25,9.44l-89,141h50.5l89-141h-50.5Z"/><path class="cls-5" d="m1460.25,9.44l-89,141h50.5l89-141h-50.5Z"/><path class="cls-5" d="m1558.25,9.44l-89,141h50.5l89-141h-50.5Z"/></g><rect class="cls-1" x="1177.25" y="10.44" width="362" height="56"/><rect class="cls-3" x="98.75" y="889.94" width="1441" height="62"/><path class="cls-1" d="m1586.25,951.44h39v-39"/><path class="cls-1" d="m1625.25,46.44V7.44h-39"/><path class="cls-1" d="m49.25,10.44H10.25v39"/><path class="cls-1" d="m10.25,909.44v39h39"/><path class="cls-4" d="m576.25,821.44v49"/></svg>