<?xml version="1.0" encoding="UTF-8"?><svg id="Calque_1" xmlns="http://www.w3.org/2000/svg" viewBox="0 0 116.28 95.2"><defs><style>.cls-1{fill:#f3f0db;}</style></defs><path class="cls-1" d="m18.69,3h80.07V0H18.69c-4.93,0-8.85,3.66-9.23,8.46h-.16C4.11,8.46.04,12.52.04,17.71v57.33c-.06.64-.42,5.56,2.74,9.1,2.07,2.32,5.12,3.49,9.06,3.49h1v-3h-1c-3.05,0-5.34-.84-6.81-2.49-2.32-2.59-2.03-6.46-1.98-6.9V17.71c0-3.5,2.76-6.24,6.27-6.24h.13v55.11c-.06.64-.42,5.56,2.74,9.1,2.07,2.32,5.12,3.49,9.06,3.49h1v-3h-1c-3.05,0-5.34-.84-6.81-2.49-2.32-2.59-2.03-6.46-1.98-6.9V11.46h76.95v-3H12.48c.37-3.12,2.97-5.46,6.22-5.46Z"/><path class="cls-1" d="m113.5,11.96c-2.07-2.32-5.11-3.5-9.05-3.5h-1v3h1c3.05,0,5.34.84,6.81,2.49,2.32,2.59,2.03,6.46,1.98,6.9v57.37c0,2.88-1.91,5.3-4.59,6.02V28.8c.06-.64.42-5.56-2.74-9.1-2.07-2.32-5.11-3.5-9.05-3.5h-1v3h1c3.05,0,5.34.84,6.81,2.49,2.32,2.59,2.03,6.46,1.98,6.9v55.87H26.9v3h78.57c-.66,2.77-3.11,4.74-6.08,4.74H19.32v3h80.07c4.71,0,8.51-3.33,9.16-7.88,4.44-.73,7.69-4.51,7.69-9.11V21.06c.06-.64.42-5.56-2.74-9.1Z"/><path class="cls-1" d="m74.06,18.15v34.13c0,3.84-3.13,6.96-6.99,6.96h-23.21v3h23.21c5.51,0,9.99-4.47,9.99-9.96V18.15h-3Z"/><path class="cls-1" d="m41.78,59.83l8.83-8.81-2.12-2.12-8.83,8.81c-1.85,1.84-1.87,4.68,0,6.8l8.83,8.81,2.12-2.12-8.76-8.74c-.74-.85-.77-1.93-.07-2.63Z"/><path class="cls-1" d="m97.04,5.54c-2.44,0-4.43,1.98-4.43,4.42s1.99,4.42,4.43,4.42,4.43-1.98,4.43-4.42-1.99-4.42-4.43-4.42Z"/><path class="cls-1" d="m20.32,80.63c-2.44,0-4.43,1.98-4.43,4.42s1.99,4.42,4.43,4.42,4.43-1.98,4.43-4.42-1.99-4.42-4.43-4.42Z"/></svg>